/* XPM */
static char * armor_xpm[] = {
"32 32 223 2",
"  	c None",
". 	c #000000",
"+ 	c #010101",
"@ 	c #0D0D0D",
"# 	c #161616",
"$ 	c #292929",
"% 	c #383838",
"& 	c #2D2D2D",
"* 	c #1E1E1E",
"= 	c #0F0F0F",
"- 	c #070707",
"; 	c #050505",
"> 	c #2C2C2C",
", 	c #8B8B8B",
"' 	c #B6B6B6",
") 	c #DADADA",
"! 	c #E2E2E2",
"~ 	c #DEDEDE",
"{ 	c #D9D9D9",
"] 	c #D0D0D0",
"^ 	c #BFBFBF",
"/ 	c #979797",
"( 	c #666666",
"_ 	c #0A0A0A",
": 	c #454545",
"< 	c #BCBCBC",
"[ 	c #D7D7D7",
"} 	c #E1E1E1",
"| 	c #C1C1C1",
"1 	c #A5A5A5",
"2 	c #A3A3A3",
"3 	c #B1B1B1",
"4 	c #B7B7B7",
"5 	c #B4B4B4",
"6 	c #9A9A9A",
"7 	c #858585",
"8 	c #0E0E0E",
"9 	c #171717",
"0 	c #181818",
"a 	c #242424",
"b 	c #212121",
"c 	c #202020",
"d 	c #D6D6D6",
"e 	c #F6F6F6",
"f 	c #EFEFEF",
"g 	c #585858",
"h 	c #363636",
"i 	c #222222",
"j 	c #515151",
"k 	c #898989",
"l 	c #A9A9A9",
"m 	c #909090",
"n 	c #040404",
"o 	c #6B6B6B",
"p 	c #9D9D9D",
"q 	c #C8C8C8",
"r 	c #CDCDCD",
"s 	c #C2C2C2",
"t 	c #C9C9C9",
"u 	c #EAEAEA",
"v 	c #F4F4F4",
"w 	c #BEBEBE",
"x 	c #373737",
"y 	c #0C0C0C",
"z 	c #060606",
"A 	c #848484",
"B 	c #AEAEAE",
"C 	c #A8A8A8",
"D 	c #AAAAAA",
"E 	c #C0C0C0",
"F 	c #BDBDBD",
"G 	c #B3B3B3",
"H 	c #090909",
"I 	c #696969",
"J 	c #9B9B9B",
"K 	c #DDDDDD",
"L 	c #ECECEC",
"M 	c #E0E0E0",
"N 	c #E5E5E5",
"O 	c #757575",
"P 	c #131313",
"Q 	c #080808",
"R 	c #ABABAB",
"S 	c #B2B2B2",
"T 	c #D8D8D8",
"U 	c #D5D5D5",
"V 	c #CBCBCB",
"W 	c #7E7E7E",
"X 	c #1B1B1B",
"Y 	c #929292",
"Z 	c #D1D1D1",
"` 	c #F2F2F2",
" .	c #F5F5F5",
"..	c #EDEDED",
"+.	c #DFDFDF",
"@.	c #C5C5C5",
"#.	c #787878",
"$.	c #323232",
"%.	c #121212",
"&.	c #303030",
"*.	c #C3C3C3",
"=.	c #D4D4D4",
"-.	c #DCDCDC",
";.	c #CACACA",
">.	c #020202",
",.	c #2F2F2F",
"'.	c #BABABA",
").	c #E4E4E4",
"!.	c #C6C6C6",
"~.	c #ADADAD",
"{.	c #838383",
"].	c #636363",
"^.	c #4A4A4A",
"/.	c #424242",
"(.	c #565656",
"_.	c #6D6D6D",
":.	c #999999",
"<.	c #AFAFAF",
"[.	c #E7E7E7",
"}.	c #CCCCCC",
"|.	c #EBEBEB",
"1.	c #B8B8B8",
"2.	c #CECECE",
"3.	c #C4C4C4",
"4.	c #9E9E9E",
"5.	c #F0F0F0",
"6.	c #E6E6E6",
"7.	c #D3D3D3",
"8.	c #141414",
"9.	c #EEEEEE",
"0.	c #767676",
"a.	c #BBBBBB",
"b.	c #C7C7C7",
"c.	c #0B0B0B",
"d.	c #E3E3E3",
"e.	c #DBDBDB",
"f.	c #606060",
"g.	c #969696",
"h.	c #A6A6A6",
"i.	c #404040",
"j.	c #727272",
"k.	c #646464",
"l.	c #A2A2A2",
"m.	c #919191",
"n.	c #949494",
"o.	c #A7A7A7",
"p.	c #A4A4A4",
"q.	c #3B3B3B",
"r.	c #505050",
"s.	c #9C9C9C",
"t.	c #8F8F8F",
"u.	c #8A8A8A",
"v.	c #B5B5B5",
"w.	c #D2D2D2",
"x.	c #7D7D7D",
"y.	c #272727",
"z.	c #616161",
"A.	c #676767",
"B.	c #4D4D4D",
"C.	c #101010",
"D.	c #525252",
"E.	c #888888",
"F.	c #939393",
"G.	c #A1A1A1",
"H.	c #313131",
"I.	c #2E2E2E",
"J.	c #3A3A3A",
"K.	c #ACACAC",
"L.	c #535353",
"M.	c #737373",
"N.	c #A0A0A0",
"O.	c #656565",
"P.	c #2B2B2B",
"Q.	c #393939",
"R.	c #8E8E8E",
"S.	c #747474",
"T.	c #686868",
"U.	c #343434",
"V.	c #5E5E5E",
"W.	c #1F1F1F",
"X.	c #2A2A2A",
"Y.	c #717171",
"Z.	c #353535",
"`.	c #232323",
" +	c #B9B9B9",
".+	c #989898",
"++	c #B0B0B0",
"@+	c #878787",
"#+	c #111111",
"$+	c #8C8C8C",
"%+	c #9F9F9F",
"&+	c #818181",
"*+	c #CFCFCF",
"=+	c #E8E8E8",
"-+	c #5F5F5F",
";+	c #191919",
">+	c #7A7A7A",
",+	c #7C7C7C",
"'+	c #7B7B7B",
")+	c #7F7F7F",
"!+	c #262626",
"~+	c #282828",
"{+	c #808080",
"]+	c #707070",
"^+	c #6C6C6C",
"/+	c #6A6A6A",
"(+	c #6E6E6E",
"_+	c #3C3C3C",
":+	c #797979",
"<+	c #4C4C4C",
"[+	c #777777",
"}+	c #595959",
"|+	c #414141",
"1+	c #5A5A5A",
"2+	c #444444",
"3+	c #030303",
"4+	c #252525",
"5+	c #1C1C1C",
"6+	c #6F6F6F",
"7+	c #4F4F4F",
"8+	c #555555",
"9+	c #828282",
"0+	c #5C5C5C",
". . . . . . . . . . + @ # $ % % & * = - + . . . . . . . . . . . ",
". . . . . . . . . ; > , ' ) ! ~ { ] ^ / ( _ . . . . . . . . . . ",
". . . . . . . . ; : < [ } ] | 1 2 3 4 5 6 7 8 . . . . . . . . . ",
". + _ 9 0 a b - c d e f 2 g h i $ > j k ' l m n - n + + + + . . ",
"+ @ o p 4 q r s t u v w x y ; - - z _ b A B C D E F G 5 3 , + . ",
"H I J K u L ! ! M N K O P ; n n n Q ; 8 g R S F T d U V ^ 2 W . ",
"X Y Z `  ...N N +.T @.#.$.0 = _ - %.P &., F ^ *.=.K -.-.;.E l >.",
",.'.N v ` ).+.U s *.!.~.7 {.].^./.(._.:.3 S <.B ' K u [.d }.E y ",
"a !.f e |.).d ;.1.w d 2.@.t F B B 1.3.q | ' S 4.3 d 5.6.{ 7.| P ",
"8.s 9. ...[.r q Z { -.K K T E 0.a.=.d =.U K +.!.5 @.! }.}.b.3 ; ",
"c.G ! L |.T < [ { -.K N d.e.F f.S [ T =.e.d.d.T g.k ) t V F h.. ",
">.Y q K ! 1.C T ) e.} N +.e.3 i.l T [ [ ~ u } ) j.k.!.1.' l.Y . ",
". z m.1.r n.o.7.{ ) } +.e.T p.h m.d d T ~ ! ~ | q.r.s.t.p 6 . . ",
". . z u.| v.7 E Z U =.Z w.}.x.y.z.V U d e.K 2.A.i B.J l.1 - . . ",
". . . C.D.V E.j.F.C h.G./ A.H.I.J.( A G.K.t.L.y.0 M.N.O.P.+ . . ",
". . . Q Q.!.o.R.S.T.L.$.a b U.V.i.h W.c X.& c * Y.m :.Z.H . . . ",
". . . n `.s *.!.] |  +^ G o.C 2 R J .+g.p h.2 D ++@+F.#+. . . . ",
". . . . * q e.~ b.o.t w.!.< C $+F.%+2 D S %+A m l.&+t.Q . . . . ",
". . . . b *+|.u 3 3 =+~ T T d U d 7.*+2.V 4 -+J.6 u.m.>.. . . . ",
". . . . ;+*+5.{ 6 w | ( Y.0.>+0.,+x.'+)+7 m.&.b W , n.. . . . . ",
". . . . 8 w L 2.W F r ~.<.R l <.4 '.1.| < o.!+~+x.&+7 . . . . . ",
". . . . y S d.=.7 <.7.=.d d =.7.w.r *.@.*.&+W.I.W {+>+. . . . . ",
". . . . #+++-.d.{.6 4 ]+^+/+o ^+T./+o (+^+g # % u.,+>+. . . . . ",
". . . . _ N.}.! R.k.< [ 7.r @.< ^ w @.v.7 ( # _+%+&+>+. . . . . ",
". . . . + ,+1.e.3 :+s.@.=.}.] 7.2.V 3.3 {+<+0 q.g.M.f.. . . . . ",
". . . . . k.%+e.) %+0.]+[+{+{+)+A {+^+}+|+i 9 1+W (+2+. . . . . ",
". . . . . 3+@+'.} 7.o.{.&+-+|+: h 4+5+4+,.a j _.S.( . . . . . . ",
". . . . . . 8 k F { r  +3 p.u.h.A J.g o o x.W 6+0.. . . . . . . ",
". . . . . . + = k  +;.r q }.p 2.'+c.g :+T.A.g j.. . . . . . . . ",
". . . . . . . + @ [+E.p 3 *.F.J.`.;+7+O.g 8+f.. . . . . . . . . ",
". . . . . . . . . 3+/+{+R.$+:.9+7+0+(+_.I ( . . . . . . . . . . ",
". . . . . . . . . . . . . . . >.. . . . . . . . . . . . . . . . "};
