/* XPM */
static char * armor_window_xpm[] = {
"32 32 204 2",
"  	c None",
". 	c #000000",
"+ 	c #010101",
"@ 	c #0D0D0D",
"# 	c #161616",
"$ 	c #292929",
"% 	c #383838",
"& 	c #2D2D2D",
"* 	c #1E1E1E",
"= 	c #0F0F0F",
"- 	c #070707",
"; 	c #050505",
"> 	c #2C2C2C",
", 	c #8B8B8B",
"' 	c #B6B6B6",
") 	c #DADADA",
"! 	c #E2E2E2",
"~ 	c #DEDEDE",
"{ 	c #D9D9D9",
"] 	c #D0D0D0",
"^ 	c #BFBFBF",
"/ 	c #979797",
"( 	c #666666",
"_ 	c #0A0A0A",
": 	c #454545",
"< 	c #BCBCBC",
"[ 	c #D7D7D7",
"} 	c #E1E1E1",
"| 	c #C1C1C1",
"1 	c #A5A5A5",
"2 	c #A3A3A3",
"3 	c #B1B1B1",
"4 	c #B7B7B7",
"5 	c #B4B4B4",
"6 	c #9A9A9A",
"7 	c #858585",
"8 	c #0E0E0E",
"9 	c #171717",
"0 	c #181818",
"a 	c #242424",
"b 	c #212121",
"c 	c #202020",
"d 	c #D6D6D6",
"e 	c #F6F6F6",
"f 	c #EFEFEF",
"g 	c #585858",
"h 	c #363636",
"i 	c #222222",
"j 	c #515151",
"k 	c #898989",
"l 	c #A9A9A9",
"m 	c #909090",
"n 	c #040404",
"o 	c #6B6B6B",
"p 	c #9D9D9D",
"q 	c #C8C8C8",
"r 	c #CDCDCD",
"s 	c #C2C2C2",
"t 	c #C9C9C9",
"u 	c #EAEAEA",
"v 	c #F4F4F4",
"w 	c #BEBEBE",
"x 	c #373737",
"y 	c #0C0C0C",
"z 	c #060606",
"A 	c #848484",
"B 	c #AEAEAE",
"C 	c #A8A8A8",
"D 	c #AAAAAA",
"E 	c #C0C0C0",
"F 	c #BDBDBD",
"G 	c #B3B3B3",
"H 	c #090909",
"I 	c #696969",
"J 	c #9B9B9B",
"K 	c #DDDDDD",
"L 	c #ECECEC",
"M 	c #E0E0E0",
"N 	c #E5E5E5",
"O 	c #757575",
"P 	c #131313",
"Q 	c #080808",
"R 	c #ABABAB",
"S 	c #B2B2B2",
"T 	c #D8D8D8",
"U 	c #D5D5D5",
"V 	c #CBCBCB",
"W 	c #7E7E7E",
"X 	c #1B1B1B",
"Y 	c #929292",
"Z 	c #D1D1D1",
"` 	c #F2F2F2",
" .	c #F5F5F5",
"..	c #EDEDED",
"+.	c #DFDFDF",
"@.	c #C5C5C5",
"#.	c #787878",
"$.	c #323232",
"%.	c #121212",
"&.	c #303030",
"*.	c #C3C3C3",
"=.	c #D4D4D4",
"-.	c #DCDCDC",
";.	c #CACACA",
">.	c #020202",
",.	c #2F2F2F",
"'.	c #BABABA",
").	c #E4E4E4",
"!.	c #C6C6C6",
"~.	c #ADADAD",
"{.	c #838383",
"].	c #636363",
"^.	c #4A4A4A",
"/.	c #424242",
"(.	c #565656",
"_.	c #6D6D6D",
":.	c #999999",
"<.	c #AFAFAF",
"[.	c #E7E7E7",
"}.	c #CCCCCC",
"|.	c #EBEBEB",
"1.	c #B8B8B8",
"2.	c #CECECE",
"3.	c #C4C4C4",
"4.	c #9E9E9E",
"5.	c #E6E6E6",
"6.	c #D3D3D3",
"7.	c #141414",
"8.	c #EEEEEE",
"9.	c #A7A7A7",
"0.	c #B0B0B0",
"a.	c #C7C7C7",
"b.	c #0B0B0B",
"c.	c #535353",
"d.	c #4D4D4D",
"e.	c #1D1D1D",
"f.	c #545454",
"g.	c #6F6F6F",
"h.	c #7F7F7F",
"i.	c #8A8A8A",
"j.	c #919191",
"k.	c #A6A6A6",
"l.	c #989898",
"m.	c #2A2A2A",
"n.	c #434343",
"o.	c #959595",
"p.	c #A2A2A2",
"q.	c #949494",
"r.	c #888888",
"s.	c #8F8F8F",
"t.	c #B5B5B5",
"u.	c #8C8C8C",
"v.	c #101010",
"w.	c #525252",
"x.	c #111111",
"y.	c #656565",
"z.	c #2B2B2B",
"A.	c #393939",
"B.	c #3D3D3D",
"C.	c #030303",
"D.	c #353535",
"E.	c #252525",
"F.	c #484848",
"G.	c #939393",
"H.	c #A1A1A1",
"I.	c #313131",
"J.	c #2E2E2E",
"K.	c #3F3F3F",
"L.	c #DBDBDB",
"M.	c #555555",
"N.	c #7A7A7A",
"O.	c #606060",
"P.	c #A0A0A0",
"Q.	c #262626",
"R.	c #7C7C7C",
"S.	c #6C6C6C",
"T.	c #969696",
"U.	c #737373",
"V.	c #646464",
"W.	c #9F9F9F",
"X.	c #6E6E6E",
"Y.	c #444444",
"Z.	c #878787",
"`.	c #404040",
" +	c #494949",
".+	c #717171",
"++	c #747474",
"@+	c #B9B9B9",
"#+	c #767676",
"$+	c #6A6A6A",
"%+	c #7B7B7B",
"&+	c #686868",
"*+	c #191919",
"=+	c #5F5F5F",
"-+	c #818181",
";+	c #727272",
">+	c #777777",
",+	c #3A3A3A",
"'+	c #232323",
")+	c #4F4F4F",
"!+	c #808080",
"~+	c #8E8E8E",
"{+	c #828282",
"]+	c #5C5C5C",
". . . . . . . . . . + @ # $ % % & * = - + . . . . . . . . . . . ",
". . . . . . . . . ; > , ' ) ! ~ { ] ^ / ( _ . . . . . . . . . . ",
". . . . . . . . ; : < [ } ] | 1 2 3 4 5 6 7 8 . . . . . . . . . ",
". + _ 9 0 a b - c d e f 2 g h i $ > j k ' l m n - n + + + + . . ",
"+ @ o p 4 q r s t u v w x y ; - - z _ b A B C D E F G 5 3 , + . ",
"H I J K u L ! ! M N K O P ; n n n Q ; 8 g R S F T d U V ^ 2 W . ",
"X Y Z `  ...N N +.T @.#.$.0 = _ - %.P &., F ^ *.=.K -.-.;.E l >.",
",.'.N v ` ).+.U s *.!.~.7 {.].^./.(._.:.3 S <.B ' K u [.d }.E y ",
"a !.f e |.).d ;.1.w d 2.@.@.'.B B 1.3.q | ' S 4.3 d f 5.{ 6.| P ",
"7.s 8. ...[.r q Z { -.] 3.1.9.I 0.=.d =.U K +.!.5 @.! 2.}.a.3 ; ",
"b.G ! L |.T < [ [ ' O ].].c.d.e.f.].g.h.i.2.} T p j.-.t V F k.. ",
">.Y q K ! 1.C T l.m.; . . . . . . n n _ Q %.n.o.p J }.1.' p.Y . ",
". z j.1.r q.B ~.%.. . . . . . . . . . . . . Q x r.q.k.s.p 6 . . ",
". . z i.| t.Y g + . . . . . . . . + . . . . . > u.6 D 2 1 - . . ",
". . . v.w.V :.h . . . . + . . . . . . . . . . x.W 2 2 y.z.+ . . ",
". . . Q A.a.D B.. . . . . . . . . . . C.. . . . ( l :.D.H . . . ",
". . . n E.3.R A.+ + . . . . + . . . + . C.. . . F.F G.x.. . . . ",
". . . . $.@.H.a . . . . z ; >.+ . . . . . . . . I.s s.Q . . . . ",
". . . . d.| 2 E.. + + + >.. . . . . . . . . z . $.3.j.>.. . . . ",
". . . . : E 0.J.- ; C.n n . . . . . . . . . z . K.a.q.. . . . . ",
". . . . # w ] A.z z - z C.. . . >.. . . . . . . #.*.7 . . . . . ",
". . . . y S L.M.C.z z ; . . . . + >.+ z >.. . ; g.^ N.. . . . . ",
". . . . x.0.-.y.>.n n + . . . . . . . . . . . >.O.1 N.. . . . . ",
". . . . _ P.}.| = C.C.. . . . . . . . . . . . Q.m A N.. . . . . ",
". . . . + R.1.) S.>.>.. . . . . . . . . . . >.K.T.U.O.. . . . . ",
". . . . . V.W.L.] z.n H . . . . . . . . . ; b ( W X.Y.. . . . . ",
". . . . . C.Z.'.} ' `.K.A.Q.9 n . P c i m. +o .+++( . . . . . . ",
". . . . . . 8 k F [ @+W _.#+$+%+o w.M.&+#.q.Z.g.#+. . . . . . . ",
". . . . . . + = k @+;.r q }.J r R.*+=+-+;+_.g ;+. . . . . . . . ",
". . . . . . . + @ >+r.p 3 *.G.,+'+*+)+y.g M.O.. . . . . . . . . ",
". . . . . . . . . C.$+!+~+u.:.{+)+]+X._.I ( . . . . . . . . . . ",
". . . . . . . . . . . . . . . >.. . . . . . . . . . . . . . . . "};
