/* XPM */
static char * death_window_xpm[] = {
"32 32 275 2",
"  	c None",
". 	c #000000",
"+ 	c #0D0D0D",
"@ 	c #202020",
"# 	c #1A1A1A",
"$ 	c #111111",
"% 	c #010101",
"& 	c #2F2E2E",
"* 	c #8B8B8B",
"= 	c #989898",
"- 	c #959595",
"; 	c #949494",
"> 	c #434242",
", 	c #151515",
"' 	c #545353",
") 	c #999999",
"! 	c #9C9B9B",
"~ 	c #919191",
"{ 	c #636363",
"] 	c #ADACAC",
"^ 	c #C0C0C0",
"/ 	c #A9A9A9",
"( 	c #5F5F5F",
"_ 	c #121212",
": 	c #454545",
"< 	c #B1B1B1",
"[ 	c #D5D5D5",
"} 	c #DCDCDC",
"| 	c #CACACA",
"1 	c #787878",
"2 	c #3B3B3B",
"3 	c #A0A0A0",
"4 	c #BABABA",
"5 	c #D7D7D7",
"6 	c #AEAEAE",
"7 	c #656565",
"8 	c #191919",
"9 	c #7B7A7A",
"0 	c #C7C7C7",
"a 	c #E1E1E1",
"b 	c #E4E4E4",
"c 	c #D2D1D1",
"d 	c #898989",
"e 	c #262525",
"f 	c #050505",
"g 	c #0E0E0E",
"h 	c #363535",
"i 	c #797979",
"j 	c #9E9D9D",
"k 	c #C6C6C6",
"l 	c #CECECE",
"m 	c #A4A4A4",
"n 	c #585757",
"o 	c #1F1E1E",
"p 	c #767575",
"q 	c #C8C8C8",
"r 	c #DEDEDE",
"s 	c #DDDDDD",
"t 	c #A8A7A7",
"u 	c #414141",
"v 	c #515050",
"w 	c #969696",
"x 	c #B6B6B6",
"y 	c #B8B8B8",
"z 	c #C5C5C5",
"A 	c #D6D6D6",
"B 	c #C2C2C2",
"C 	c #908F8F",
"D 	c #4A4949",
"E 	c #040404",
"F 	c #070707",
"G 	c #060606",
"H 	c #333232",
"I 	c #8E8E8E",
"J 	c #CDCDCD",
"K 	c #D3D3D3",
"L 	c #B4B4B4",
"M 	c #797878",
"N 	c #565656",
"O 	c #3B3A3A",
"P 	c #1E1D1D",
"Q 	c #1F1F1F",
"R 	c #7E7E7E",
"S 	c #CFCFCF",
"T 	c #D0D0D0",
"U 	c #E0E0E0",
"V 	c #8C8B8B",
"W 	c #4E4D4D",
"X 	c #303030",
"Y 	c #464646",
"Z 	c #6C6C6C",
"` 	c #727272",
" .	c #6D6C6C",
"..	c #515151",
"+.	c #2A2A2A",
"@.	c #302F2F",
"#.	c #D1D1D1",
"$.	c #E3E3E3",
"%.	c #CCCCCC",
"&.	c #ABABAB",
"*.	c #555454",
"=.	c #2F2F2F",
"-.	c #949393",
";.	c #C4C4C4",
">.	c #D8D8D8",
",.	c #D4D4D4",
"'.	c #B7B7B7",
").	c #939393",
"!.	c #979797",
"~.	c #7C7B7B",
"{.	c #616161",
"].	c #5A5A5A",
"^.	c #5E5D5D",
"/.	c #7F7F7F",
"(.	c #9F9F9F",
"_.	c #E2E2E2",
":.	c #C9C9C9",
"<.	c #9E9E9E",
"[.	c #292929",
"}.	c #BFBEBE",
"|.	c #ABAAAA",
"1.	c #ADADAD",
"2.	c #BDBDBD",
"3.	c #CDCCCC",
"4.	c #252525",
"5.	c #0A0909",
"6.	c #262626",
"7.	c #313131",
"8.	c #686868",
"9.	c #9C9C9C",
"0.	c #CBCBCB",
"a.	c #D2D2D2",
"b.	c #696868",
"c.	c #A7A7A7",
"d.	c #AAAAAA",
"e.	c #525151",
"f.	c #4B4B4B",
"g.	c #929292",
"h.	c #B0B0B0",
"i.	c #B2B2B2",
"j.	c #7C7C7C",
"k.	c #090909",
"l.	c #2B2B2B",
"m.	c #A09F9F",
"n.	c #BAB9B9",
"o.	c #868686",
"p.	c #403F3F",
"q.	c #3E3E3E",
"r.	c #181818",
"s.	c #777676",
"t.	c #9D9C9C",
"u.	c #737272",
"v.	c #1B1B1B",
"w.	c #0A0A0A",
"x.	c #484848",
"y.	c #9B9A9A",
"z.	c #7B7B7B",
"A.	c #505050",
"B.	c #212121",
"C.	c #808080",
"D.	c #353535",
"E.	c #161616",
"F.	c #575757",
"G.	c #6B6A6A",
"H.	c #5C5C5C",
"I.	c #464545",
"J.	c #A6A5A5",
"K.	c #737373",
"L.	c #373636",
"M.	c #6D6D6D",
"N.	c #676666",
"O.	c #4D4D4D",
"P.	c #A8A8A8",
"Q.	c #2E2D2D",
"R.	c #717070",
"S.	c #6E6E6E",
"T.	c #201F1F",
"U.	c #6F6E6E",
"V.	c #706F6F",
"W.	c #1E1E1E",
"X.	c #757474",
"Y.	c #8C8C8C",
"Z.	c #6E6D6D",
"`.	c #767676",
" +	c #666666",
".+	c #828282",
"++	c #151414",
"@+	c #171717",
"#+	c #222222",
"$+	c #656464",
"%+	c #292828",
"&+	c #909090",
"*+	c #5F5E5E",
"=+	c #595858",
"-+	c #141313",
";+	c #686767",
">+	c #818080",
",+	c #383838",
"'+	c #080808",
")+	c #161515",
"!+	c #919090",
"~+	c #878686",
"{+	c #858585",
"]+	c #242323",
"^+	c #040303",
"/+	c #8A8989",
"(+	c #5B5A5A",
"_+	c #0B0B0B",
":+	c #141414",
"<+	c #4C4C4C",
"[+	c #7D7C7C",
"}+	c #242424",
"|+	c #404040",
"1+	c #7D7D7D",
"2+	c #535353",
"3+	c #0F0F0F",
"4+	c #A2A1A1",
"5+	c #606060",
"6+	c #434343",
"7+	c #232323",
"8+	c #605F5F",
"9+	c #858484",
"0+	c #9D9D9D",
"a+	c #282828",
"b+	c #717171",
"c+	c #3A3A3A",
"d+	c #B0AFAF",
"e+	c #B3B3B3",
"f+	c #8F8E8E",
"g+	c #848484",
"h+	c #3C3C3C",
"i+	c #3E3D3D",
"j+	c #999898",
"k+	c #979696",
"l+	c #ACACAC",
"m+	c #BCBCBC",
"n+	c #5D5C5C",
"o+	c #575656",
"p+	c #DADADA",
"q+	c #C1C1C1",
"r+	c #8F8F8F",
"s+	c #666565",
"t+	c #9A9999",
"u+	c #9F9E9E",
"v+	c #A1A0A0",
"w+	c #9A9A9A",
"x+	c #828181",
"y+	c #BCBBBB",
"z+	c #DBDBDB",
"A+	c #1C1C1C",
"B+	c #A2A2A2",
"C+	c #DFDFDF",
"D+	c #E6E6E6",
"E+	c #4E4E4E",
"F+	c #343434",
"G+	c #3A3939",
"H+	c #B7B6B6",
"I+	c #E7E7E7",
"J+	c #E9E9E9",
"K+	c #030303",
"L+	c #D9D9D9",
"M+	c #B5B5B5",
"N+	c #E5E5E5",
"O+	c #101010",
"P+	c #636262",
"Q+	c #AFAFAF",
"R+	c #B9B9B9",
"S+	c #BBBBBB",
"T+	c #A1A1A1",
"U+	c #333333",
"V+	c #8D8C8C",
"W+	c #6F6F6F",
"X+	c #272626",
"Y+	c #3C3B3B",
"Z+	c #626262",
". . . . . . . + @ # $ % . . . . . . . . . . . . . . . . . . . . ",
". . . . . . & * = - ; > . . . . . . . . . , ' ) ! ~ . . . . . . ",
". . . . . . { ] ^ ^ / ( . . . . . . . . _ : < [ } | 1 . . . . . ",
". . . . + 2 3 4 } 5 6 7 . . . . . . . . 8 9 0 a b c d e . . . . ",
". f g h i j < k } l m n . . . . . . . . o p q r s | t u . . . . ",
"+ v w x y y z [ A B C D . . E F F G . . . H I J } K L M N O P . ",
"Q R 0 S A T K U s k V W X Y Z ` p M  ...+.@.3 #.U $.T %.B &.*.. ",
"=.-.;.l >.T 0 ,.s [ '.).* !.~.{.].^./.(.(.d y ,._.$.r $.U :.<.. ",
"[.- x }.| |.1.2.3.J z 6 { 4.+ 5.g 6.7.u 8.9.0._.$.[ 5 a _.a.9.. ",
"E b.c.d.<.e.f.g.h.i.j.X G . . . . . . k.F l.m.K K 2.n.T 5 0 o.. ",
". . p.].q.g r.s.t.u.v.E . . . . . . . . . w.x.y.m.R j.9.x z.A.. ",
". . . E . . B.C.1.D.G . . . . . . . . . . . E.F.G.H.e.I.: [.. . ",
". . . . . . l.J.K.$ . . . . . . . . . . . . 5.L.M.N.@ . . . . . ",
". . . . . . O.P.Q.. . . . . . . . . . . . . . +.~.R.E.. . . . . ",
". . . . . . S.w T.. . . . . . . . . . . . . . r.U.V.W.. . . . . ",
". . . . . . X.Y.8 . . . . . . . . . . . . . . E.Z.`.T.. . . . . ",
". . . . . .  +.+++. . . . . . . . . . . . . . @+9 R.#+. . . . . ",
". . . . . . $+~.%+. . . . . . . . . . . . . . 4.&+*+@+. . . . . ",
". . . . . . W d =+-+. . . . . . . . . . . . k.;+>+,+'+. . . . . ",
". . . . . . )+!+~+7.F . . . . . . . . . . . Y {+( ]+^+. . . . . ",
". . . E G . . {./+(+l._+. . . . . G k.$ :+<+d [+n }++ % % . . . ",
". , |+1+2+3+8 `.4+) (.5+6+r.8 W.@ Q W.7+8+9+~ 0+*+Q a+b+>+$++ . ",
"k.c+; A 0.d+^ %.#.J e+f+g+`...q.h+i+;+j+|.k+l+0 m+n+3 T k &.o+G ",
"7+z.S U p+5 a b } q+r+s+>+Y.!+w t+u+v+w+x+g.y+z+} [ a U p+%.m $ ",
"A+B+5 C+C+a D+U %.w *.6.2 E+|+F+,+a+W.O.G+~ H+z+D+I+J+D+} 0.c.8 ",
"K+&+S L+L+p+p+S M+$+D . . . K+G . . . . . F B p+N+a _.b >.B (.O+",
". P+!+Q+L A } a.B -.$+. . . . . . . . . '+,+A U s S R+2.S+T+O+. ",
". _+F+u 6+^ z+S q e+1 . . . . . . . . . U+i.C+$.s 0.C.].. . . . ",
". . . g r.).K S :.&.8+. . . . . . . . . V+k U _.r J W+. . . . . ",
". . . . . s.| q R+I X+. . . . . . . . . b+0.s L+K q+Y+. . . . . ",
". . . . . H Z+x+P+X+. . . . . . . . . . %+5+/ B i.8.e . . . . . ",
". . . . . . . . . . . . . . . . . . . . . . . . . . . . . . . . "};
