/* XPM */
static char * explosion_xpm[] = {
"32 32 922 2",
"  	c None",
". 	c #000000",
"+ 	c #040300",
"@ 	c #0B0700",
"# 	c #120C02",
"$ 	c #170F02",
"% 	c #181002",
"& 	c #191102",
"* 	c #251A03",
"= 	c #2A1E03",
"- 	c #1E1603",
"; 	c #170F00",
"> 	c #100B00",
", 	c #090600",
"' 	c #080500",
") 	c #0D0800",
"! 	c #100A00",
"~ 	c #160E00",
"{ 	c #0C0800",
"] 	c #060400",
"^ 	c #020100",
"/ 	c #070400",
"( 	c #150D00",
"_ 	c #1B1102",
": 	c #322104",
"< 	c #4A3107",
"[ 	c #50360B",
"} 	c #48340A",
"| 	c #55440C",
"1 	c #52440C",
"2 	c #372D07",
"3 	c #282005",
"4 	c #241902",
"5 	c #241700",
"6 	c #312000",
"7 	c #241600",
"8 	c #231600",
"9 	c #1E1300",
"0 	c #180F00",
"a 	c #281900",
"b 	c #1D1200",
"c 	c #050300",
"d 	c #030200",
"e 	c #010100",
"f 	c #221500",
"g 	c #312002",
"h 	c #261902",
"i 	c #2F1F05",
"j 	c #463008",
"k 	c #604413",
"l 	c #755923",
"m 	c #795D17",
"n 	c #7E6A16",
"o 	c #7F6A15",
"p 	c #6B5910",
"q 	c #4E3E0A",
"r 	c #3C2C05",
"s 	c #452C00",
"t 	c #4E3200",
"u 	c #4C3000",
"v 	c #3E2700",
"w 	c #432A02",
"x 	c #4D3205",
"y 	c #472F06",
"z 	c #362509",
"A 	c #261904",
"B 	c #120B00",
"C 	c #130E01",
"D 	c #161102",
"E 	c #070500",
"F 	c #412900",
"G 	c #462D02",
"H 	c #3E2805",
"I 	c #5B3F0F",
"J 	c #836123",
"K 	c #947531",
"L 	c #877026",
"M 	c #827522",
"N 	c #7F6F1A",
"O 	c #7B6716",
"P 	c #56440D",
"Q 	c #483206",
"R 	c #5A3A02",
"S 	c #5C3C02",
"T 	c #543603",
"U 	c #583904",
"V 	c #5D3D07",
"W 	c #6D4C14",
"X 	c #76531A",
"Y 	c #715017",
"Z 	c #6C4E18",
"` 	c #5E3F0B",
" .	c #523602",
"..	c #352502",
"+.	c #2C2204",
"@.	c #2B2304",
"#.	c #110C01",
"$.	c #191000",
"%.	c #493002",
"&.	c #4F3303",
"*.	c #593B07",
"=.	c #67470E",
"-.	c #8C631A",
";.	c #A37932",
">.	c #92753D",
",.	c #7A6E3D",
"'.	c #796E34",
").	c #877326",
"!.	c #7D6920",
"~.	c #605018",
"{.	c #4C370C",
"].	c #513608",
"^.	c #3D2A07",
"/.	c #362407",
"(.	c #553807",
"_.	c #6C490A",
":.	c #775315",
"<.	c #7C6131",
"[.	c #826535",
"}.	c #836228",
"|.	c #835C19",
"1.	c #6E4909",
"2.	c #5D3D04",
"3.	c #413205",
"4.	c #2B2506",
"5.	c #211A03",
"6.	c #130C01",
"7.	c #2C1C00",
"8.	c #492E00",
"9.	c #583902",
"0.	c #654103",
"a.	c #734F0A",
"b.	c #956814",
"c.	c #A57828",
"d.	c #A47E3D",
"e.	c #877145",
"f.	c #827349",
"g.	c #887741",
"h.	c #867433",
"i.	c #7B6B30",
"j.	c #6F5F2D",
"k.	c #5C491A",
"l.	c #513F15",
"m.	c #463612",
"n.	c #4D3813",
"o.	c #6B4B12",
"p.	c #6B4A13",
"q.	c #644F28",
"r.	c #776647",
"s.	c #7C5E2E",
"t.	c #7B5616",
"u.	c #7B5513",
"v.	c #6E4B09",
"w.	c #5C3F07",
"x.	c #3E2E07",
"y.	c #1D1704",
"z.	c #321F00",
"A.	c #4A2E00",
"B.	c #664103",
"C.	c #875906",
"D.	c #92660C",
"E.	c #AB7C1E",
"F.	c #AA8135",
"G.	c #937642",
"H.	c #8E784E",
"I.	c #A18C58",
"J.	c #A7905A",
"K.	c #948451",
"L.	c #8B7E4C",
"M.	c #837440",
"N.	c #6D5C2B",
"O.	c #6D5B2C",
"P.	c #725D27",
"Q.	c #7F6227",
"R.	c #826026",
"S.	c #705628",
"T.	c #706046",
"U.	c #8B7754",
"V.	c #87672E",
"W.	c #86601B",
"X.	c #7B5A19",
"Y.	c #6D4F14",
"Z.	c #614814",
"`.	c #503C12",
" +	c #322309",
".+	c #201603",
"++	c #523400",
"@+	c #794D03",
"#+	c #815406",
"$+	c #926611",
"%+	c #AA7B1E",
"&+	c #A6843E",
"*+	c #9A8255",
"=+	c #A38A5F",
"-+	c #AE9769",
";+	c #B5A274",
">+	c #9E946E",
",+	c #8D845F",
"'+	c #8A7D4F",
")+	c #7A6C41",
"!+	c #7D6D40",
"~+	c #84703C",
"{+	c #876F40",
"]+	c #886F41",
"^+	c #826E4B",
"/+	c #907F61",
"(+	c #A78F65",
"_+	c #997A40",
":+	c #94742F",
"<+	c #876C31",
"[+	c #6D5826",
"}+	c #614F26",
"|+	c #614A20",
"1+	c #4D3711",
"2+	c #271C07",
"3+	c #0A0703",
"4+	c #010101",
"5+	c #261900",
"6+	c #644000",
"7+	c #7F5102",
"8+	c #6C4709",
"9+	c #966811",
"0+	c #B28120",
"a+	c #A78641",
"b+	c #A79164",
"c+	c #AC976F",
"d+	c #B6A688",
"e+	c #C0B397",
"f+	c #ADA385",
"g+	c #A0956F",
"h+	c #A39564",
"i+	c #A09262",
"j+	c #9D8E62",
"k+	c #988960",
"l+	c #9A8A63",
"m+	c #908161",
"n+	c #93866C",
"o+	c #A89C85",
"p+	c #AA9D80",
"q+	c #97865D",
"r+	c #8D7643",
"s+	c #816B40",
"t+	c #615132",
"u+	c #5C4D30",
"v+	c #624E29",
"w+	c #59431A",
"x+	c #291E0B",
"y+	c #0A0805",
"z+	c #020202",
"A+	c #372300",
"B+	c #533400",
"C+	c #5B3D09",
"D+	c #9E6E14",
"E+	c #A97D26",
"F+	c #9E8044",
"G+	c #A99161",
"H+	c #AC9872",
"I+	c #C1B59E",
"J+	c #CCC1AB",
"K+	c #BEB59A",
"L+	c #B9B091",
"M+	c #C5BC98",
"N+	c #CBC4A7",
"O+	c #C6C0A4",
"P+	c #B7B290",
"Q+	c #B2AB8E",
"R+	c #AAA28A",
"S+	c #ADA696",
"T+	c #BBB6AA",
"U+	c #ABA693",
"V+	c #92886C",
"W+	c #847657",
"X+	c #78694E",
"Y+	c #69593D",
"Z+	c #6A5839",
"`+	c #645231",
" @	c #57451F",
".@	c #30230D",
"+@	c #120E06",
"@@	c #030303",
"#@	c #372200",
"$@	c #3E2903",
"%@	c #6D490B",
"&@	c #966817",
"*@	c #906C2A",
"=@	c #927A48",
"-@	c #A79260",
";@	c #B6A87F",
">@	c #C9C1AA",
",@	c #C8C2AE",
"'@	c #C4BFA5",
")@	c #CDC8AB",
"!@	c #E4DFCA",
"~@	c #E9E6D6",
"{@	c #E5E2CE",
"]@	c #D8D5B7",
"^@	c #C7C4AB",
"/@	c #C1BCAA",
"(@	c #CCC7B2",
"_@	c #C5BFB0",
":@	c #A7A395",
"<@	c #8C8573",
"[@	c #897D69",
"}@	c #7D7059",
"|@	c #826E4A",
"1@	c #81693B",
"2@	c #76633D",
"3@	c #685323",
"4@	c #41330F",
"5@	c #201808",
"6@	c #0B0905",
"7@	c #2D1D00",
"8@	c #342101",
"9@	c #5B3C05",
"0@	c #79510B",
"a@	c #755217",
"b@	c #7D5F2B",
"c@	c #88703D",
"d@	c #9C8B5B",
"e@	c #BDB38E",
"f@	c #D3CCB3",
"g@	c #D2CFB9",
"h@	c #DAD8BF",
"i@	c #E4E2CC",
"j@	c #EFEEE0",
"k@	c #F3F2E5",
"l@	c #F1F0DD",
"m@	c #EDEBD2",
"n@	c #DCDBC6",
"o@	c #CECCBE",
"p@	c #CFCDB9",
"q@	c #C1BFAD",
"r@	c #9D9B93",
"s@	c #9A9488",
"t@	c #A0937A",
"u@	c #988A6A",
"v@	c #9B8250",
"w@	c #95793E",
"x@	c #77653D",
"y@	c #5E4C24",
"z@	c #382B10",
"A@	c #221909",
"B@	c #140F07",
"C@	c #271900",
"D@	c #392402",
"E@	c #6B4607",
"F@	c #7C560F",
"G@	c #70501A",
"H@	c #7E602D",
"I@	c #857141",
"J@	c #988E64",
"K@	c #BFB89B",
"L@	c #D0CAB1",
"M@	c #DFDCC7",
"N@	c #E9E7D1",
"O@	c #EEEDDE",
"P@	c #F3F2E8",
"Q@	c #F4F3E6",
"R@	c #F5F4E4",
"S@	c #F2F1DD",
"T@	c #E9E8D2",
"U@	c #DDDCCE",
"V@	c #D8D6C2",
"W@	c #CAC8AF",
"X@	c #AFAB98",
"Y@	c #A8A392",
"Z@	c #ACA082",
"`@	c #A5956D",
" #	c #998250",
".#	c #90733D",
"+#	c #6D5734",
"@#	c #513F1F",
"##	c #342711",
"$#	c #271C0A",
"%#	c #1B1407",
"&#	c #261800",
"*#	c #3E2904",
"=#	c #734D07",
"-#	c #876114",
";#	c #8B6621",
">#	c #806431",
",#	c #7C6E45",
"'#	c #8C886D",
")#	c #B7B59C",
"!#	c #CFCAB2",
"~#	c #E1DEC9",
"{#	c #EDEAD9",
"]#	c #F0EEE3",
"^#	c #F4F4EC",
"/#	c #F4F2E5",
"(#	c #F2F1E2",
"_#	c #F3F2E3",
":#	c #F0EFDD",
"<#	c #E9E8DB",
"[#	c #DEDDCB",
"}#	c #CFCBAF",
"|#	c #BEB99F",
"1#	c #A7A28E",
"2#	c #A8A086",
"3#	c #96886A",
"4#	c #84714C",
"5#	c #7F663A",
"6#	c #735C34",
"7#	c #5A4520",
"8#	c #412F11",
"9#	c #32240B",
"0#	c #1F1707",
"a#	c #1B1201",
"b#	c #452D04",
"c#	c #77520B",
"d#	c #9A7018",
"e#	c #936F27",
"f#	c #725E36",
"g#	c #736D4F",
"h#	c #85846C",
"i#	c #B3B198",
"j#	c #D3D0B9",
"k#	c #E4E1CD",
"l#	c #EDEADB",
"m#	c #F2F1E6",
"n#	c #F3F2E6",
"o#	c #F1F1E4",
"p#	c #F5F4E8",
"q#	c #F5F4E6",
"r#	c #F0EFE2",
"s#	c #E2E0CF",
"t#	c #CDCAB4",
"u#	c #B6B3A1",
"v#	c #9C9B8F",
"w#	c #8F897D",
"x#	c #867A63",
"y#	c #7B6A4D",
"z#	c #7C653B",
"A#	c #816638",
"B#	c #674F25",
"C#	c #453214",
"D#	c #30230C",
"E#	c #1C1506",
"F#	c #1D1302",
"G#	c #4F3406",
"H#	c #73510F",
"I#	c #926E1B",
"J#	c #92732B",
"K#	c #796D4E",
"L#	c #848263",
"M#	c #979473",
"N#	c #B5B397",
"O#	c #D7D5C3",
"P#	c #E6E3D2",
"Q#	c #EEEBDA",
"R#	c #EEECDC",
"S#	c #F0EFE1",
"T#	c #F2F1E7",
"U#	c #F4F4E7",
"V#	c #F6F5E9",
"W#	c #F1F1E3",
"X#	c #E7E5D8",
"Y#	c #D4D0C1",
"Z#	c #B4B3A9",
"`#	c #9E9D97",
" $	c #938E84",
".$	c #8B7E68",
"+$	c #7F6B4B",
"@$	c #81673C",
"#$	c #917137",
"$$	c #7E5E28",
"%$	c #453415",
"&$	c #39290C",
"*$	c #271B05",
"=$	c #211603",
"-$	c #493108",
";$	c #644810",
">$	c #7C601E",
",$	c #866E36",
"'$	c #7E7558",
")$	c #928F6B",
"!$	c #A19E76",
"~$	c #B6B497",
"{$	c #D7D6C5",
"]$	c #E4E3D2",
"^$	c #ECEAD8",
"/$	c #ECEBDB",
"($	c #EDECDF",
"_$	c #EEEDE2",
":$	c #F4F4E9",
"<$	c #E8E7DB",
"[$	c #D9D5CA",
"}$	c #B7B5AF",
"|$	c #A5A49E",
"1$	c #A59C8D",
"2$	c #988B73",
"3$	c #83704F",
"4$	c #80663A",
"5$	c #906D31",
"6$	c #816027",
"7$	c #503A16",
"8$	c #47300B",
"9$	c #332207",
"0$	c #191104",
"a$	c #342308",
"b$	c #473610",
"c$	c #675221",
"d$	c #7E6B38",
"e$	c #887D5B",
"f$	c #8F8A6C",
"g$	c #918E6F",
"h$	c #A19E88",
"i$	c #C8C6B0",
"j$	c #DBDAC3",
"k$	c #E9E7D5",
"l$	c #EAE9D9",
"m$	c #EAE9DD",
"n$	c #EFEEE1",
"o$	c #F7F6EA",
"p$	c #F4F3E7",
"q$	c #EFEEDE",
"r$	c #ECEBD8",
"s$	c #E6E4D6",
"t$	c #D5D2C8",
"u$	c #B6B5AF",
"v$	c #A3A09A",
"w$	c #ABA190",
"x$	c #9E9078",
"y$	c #85755A",
"z$	c #806944",
"A$	c #8B6B34",
"B$	c #735523",
"C$	c #3F2E12",
"D$	c #4C3309",
"E$	c #342205",
"F$	c #120D04",
"G$	c #251A09",
"H$	c #403013",
"I$	c #5F4A20",
"J$	c #7D6735",
"K$	c #938259",
"L$	c #918667",
"M$	c #8C866E",
"N$	c #94917B",
"O$	c #A9A68E",
"P$	c #C2C0A6",
"Q$	c #DBD9C2",
"R$	c #E6E5D4",
"S$	c #F0EEDA",
"T$	c #F1F0E2",
"U$	c #EDEBDA",
"V$	c #EEECD9",
"W$	c #E2E1D3",
"X$	c #D2CEC3",
"Y$	c #B0ADA6",
"Z$	c #9E9990",
"`$	c #A19580",
" %	c #928570",
".%	c #867860",
"+%	c #8B7551",
"@%	c #624A1E",
"#%	c #362710",
"$%	c #48310A",
"%%	c #332205",
"&%	c #161005",
"*%	c #261C0B",
"=%	c #3D2D13",
"-%	c #554321",
";%	c #755E31",
">%	c #8E7A4C",
",%	c #928764",
"'%	c #8D866E",
")%	c #9E987B",
"!%	c #A7A384",
"~%	c #AEAD92",
"{%	c #C8C7B8",
"]%	c #DCDBCD",
"^%	c #DDDCC9",
"/%	c #E4E2CF",
"(%	c #EDECDC",
"_%	c #ECEBE0",
":%	c #E7E5D1",
"<%	c #E4E3CB",
"[%	c #D5D3C4",
"}%	c #C4C1B7",
"|%	c #AAA79E",
"1%	c #999285",
"2%	c #988D7A",
"3%	c #807769",
"4%	c #807054",
"5%	c #74613D",
"6%	c #6D5629",
"7%	c #57421A",
"8%	c #30240E",
"9%	c #3A2808",
"0%	c #2E1F05",
"a%	c #1A1204",
"b%	c #291D09",
"c%	c #3F3016",
"d%	c #4D3D22",
"e%	c #786130",
"f%	c #917B45",
"g%	c #95895E",
"h%	c #8A8263",
"i%	c #A19871",
"j%	c #B3A97E",
"k%	c #B7B08F",
"l%	c #C5C4B8",
"m%	c #D7D6CE",
"n%	c #CDCDC1",
"o%	c #D0CFC3",
"p%	c #DEDDD2",
"q%	c #E3E2D9",
"r%	c #DFDDCA",
"s%	c #D6D4B9",
"t%	c #BFBEB3",
"u%	c #ADACA8",
"v%	c #989691",
"w%	c #958F7E",
"x%	c #968A73",
"y%	c #7F745E",
"z%	c #887751",
"A%	c #756337",
"B%	c #756026",
"C%	c #564418",
"D%	c #2E2310",
"E%	c #241908",
"F%	c #231804",
"G%	c #1D1404",
"H%	c #2A1F0C",
"I%	c #3D2E14",
"J%	c #51401F",
"K%	c #7D642E",
"L%	c #957B41",
"M%	c #958552",
"N%	c #867C57",
"O%	c #958C62",
"P%	c #B1A478",
"Q%	c #B6AA7E",
"R%	c #CCC4AA",
"S%	c #DAD7C6",
"T%	c #CECCC0",
"U%	c #CBCAC1",
"V%	c #CCCBC2",
"W%	c #D1D0C7",
"X%	c #D0CFBE",
"Y%	c #C9C6AD",
"Z%	c #B1B1A7",
"`%	c #989792",
" &	c #928F80",
".&	c #9E987A",
"+&	c #9F936E",
"@&	c #928664",
"#&	c #9C895A",
"$&	c #8A7639",
"%&	c #886C23",
"&&	c #5E4B17",
"*&	c #261C0A",
"=&	c #151007",
"-&	c #1D1303",
";&	c #281B04",
">&	c #31230C",
",&	c #443312",
"'&	c #5C4721",
")&	c #7E662C",
"!&	c #8B753C",
"~&	c #887B4C",
"{&	c #8D8356",
"]&	c #9E9461",
"^&	c #A79969",
"/&	c #AD9D6E",
"(&	c #CEBE94",
"_&	c #E1D3AF",
":&	c #D3CCB8",
"<&	c #C4C0B4",
"[&	c #B6B4AA",
"}&	c #B9B9B3",
"|&	c #C1C0B2",
"1&	c #C4C2A8",
"2&	c #ABA999",
"3&	c #959482",
"4&	c #858367",
"5&	c #8D865F",
"6&	c #9D8C5A",
"7&	c #9C8B5C",
"8&	c #A18B4F",
"9&	c #9F8732",
"0&	c #90731F",
"a&	c #614C14",
"b&	c #251D0A",
"c&	c #241702",
"d&	c #2E1F04",
"e&	c #38270A",
"f&	c #4A3613",
"g&	c #4E3F1D",
"h&	c #6A5B2C",
"i&	c #706434",
"j&	c #696141",
"k&	c #7B704E",
"l&	c #978A59",
"m&	c #9E905C",
"n&	c #9A8B5D",
"o&	c #C4B182",
"p&	c #D8C69B",
"q&	c #C7B99B",
"r&	c #B3A78F",
"s&	c #A39E8F",
"t&	c #AFAEAA",
"u&	c #B5B5AD",
"v&	c #B4B19A",
"w&	c #9D9A84",
"x&	c #949278",
"y&	c #878164",
"z&	c #8C7B4D",
"A&	c #9F8241",
"B&	c #9F8547",
"C&	c #98833C",
"D&	c #957E26",
"E&	c #8B6F19",
"F&	c #5A470F",
"G&	c #1E1907",
"H&	c #130D02",
"I&	c #221602",
"J&	c #291A02",
"K&	c #422F0A",
"L&	c #4F3F13",
"M&	c #4E431F",
"N&	c #5D5329",
"O&	c #695E30",
"P&	c #5E5539",
"Q&	c #5F5541",
"R&	c #736748",
"S&	c #7A6F4D",
"T&	c #85764F",
"U&	c #B19B67",
"V&	c #C9B484",
"W&	c #B7A685",
"X&	c #9E9074",
"Y&	c #998F7C",
"Z&	c #A7A49C",
"`&	c #B0AFA9",
" *	c #A29D84",
".*	c #958E6C",
"+*	c #938965",
"@*	c #948255",
"#*	c #A5843F",
"$*	c #AD8737",
"%*	c #937730",
"&*	c #856C25",
"**	c #7F6419",
"=*	c #765F14",
"-*	c #4D3E0C",
";*	c #1A1305",
">*	c #1E1402",
",*	c #171104",
"'*	c #443209",
")*	c #6D5514",
"!*	c #60521B",
"~*	c #594E24",
"{*	c #62552D",
"]*	c #514730",
"^*	c #4C4230",
"/*	c #544730",
"(*	c #594C35",
"_*	c #776741",
":*	c #AF9256",
"<*	c #C1A368",
"[*	c #A79064",
"}*	c #927F5A",
"|*	c #918366",
"1*	c #999180",
"2*	c #A19B8E",
"3*	c #958767",
"4*	c #998454",
"5*	c #9C8248",
"6*	c #9A7D42",
"7*	c #A6853D",
"8*	c #A47F2D",
"9*	c #8A681E",
"0*	c #805E14",
"a*	c #684D0E",
"b*	c #54410C",
"c*	c #2D2308",
"d*	c #1C1302",
"e*	c #090804",
"f*	c #2B2308",
"g*	c #6C5612",
"h*	c #725C19",
"i*	c #61501F",
"j*	c #625123",
"k*	c #574625",
"l*	c #554426",
"m*	c #584525",
"n*	c #5E4A29",
"o*	c #866D3C",
"p*	c #AE8E4E",
"q*	c #AB8C4E",
"r*	c #92753F",
"s*	c #896E39",
"t*	c #8B7347",
"u*	c #8A7A5D",
"v*	c #8D8067",
"w*	c #988054",
"x*	c #997A42",
"y*	c #9C7837",
"z*	c #8D6D31",
"A*	c #8F6E2B",
"B*	c #956D21",
"C*	c #775612",
"D*	c #60440D",
"E*	c #443109",
"F*	c #3A2806",
"G*	c #2D1E04",
"H*	c #251700",
"I*	c #1A1000",
"J*	c #121006",
"K*	c #44390F",
"L*	c #645217",
"M*	c #614E1A",
"N*	c #624F1E",
"O*	c #5F4B21",
"P*	c #5D4620",
"Q*	c #62491F",
"R*	c #6E5325",
"S*	c #8A6C39",
"T*	c #937743",
"U*	c #7D6336",
"V*	c #735725",
"W*	c #856223",
"X*	c #8E6C30",
"Y*	c #83693C",
"Z*	c #866D41",
"`*	c #8C6D37",
" =	c #82612C",
".=	c #825F24",
"+=	c #7A5A22",
"@=	c #956C25",
"#=	c #6E4D13",
"$=	c #402B06",
"%=	c #332304",
"&=	c #1C1200",
"*=	c #080704",
"==	c #26230C",
"-=	c #473E11",
";=	c #493E14",
">=	c #504119",
",=	c #52421B",
"'=	c #4C3919",
")=	c #56421D",
"!=	c #6C552D",
"~=	c #69552F",
"{=	c #59421D",
"]=	c #654614",
"^=	c #7A581F",
"/=	c #85632A",
"(=	c #80622D",
"_=	c #775824",
":=	c #735016",
"<=	c #6D4A0F",
"[=	c #69470F",
"}=	c #604210",
"|=	c #6A4D19",
"1=	c #71521D",
"2=	c #4D330A",
"3=	c #312103",
"4=	c #301F02",
"5=	c #281A01",
"6=	c #0B0B05",
"7=	c #22200B",
"8=	c #2D280D",
"9=	c #2A220D",
"0=	c #2F260F",
"a=	c #2E240F",
"b=	c #2C220F",
"c=	c #2D2310",
"d=	c #3B2D17",
"e=	c #312816",
"f=	c #2F220C",
"g=	c #39280E",
"h=	c #493718",
"i=	c #53401F",
"j=	c #534121",
"k=	c #433011",
"l=	c #3F2B08",
"m=	c #3B2707",
"n=	c #362406",
"o=	c #332204",
"p=	c #382607",
"q=	c #3D2A09",
"r=	c #332102",
"s=	c #2B1C01",
"t=	c #241701",
"u=	c #130C00",
"v=	c #040403",
"w=	c #070604",
"x=	c #121007",
"y=	c #0D0B07",
"z=	c #131009",
"A=	c #1A1409",
"B=	c #1D1609",
"C=	c #1C1609",
"D=	c #1A150A",
"E=	c #1B1507",
"F=	c #1D1506",
"G=	c #251C0B",
"H=	c #241B09",
"I=	c #1A1203",
"J=	c #2A1B02",
"K=	c #291A01",
"L=	c #251801",
"M=	c #150E01",
"N=	c #030302",
"O=	c #050504",
"P=	c #050403",
"Q=	c #0E0B05",
"R=	c #130E05",
"S=	c #150F04",
"T=	c #171004",
"U=	c #181003",
"V=	c #150E02",
"W=	c #1B1202",
"X=	c #1B1101",
"Y=	c #231702",
"Z=	c #1E1301",
"`=	c #1C1201",
" -	c #0E0901",
".-	c #0A0701",
". . . + @ # $ % & % * = - ; > , @ + ' ) ! ~ { ] ^ . . . . . . . ",
". . / ( % _ : < [ } | 1 2 3 4 5 6 7 8 9 0 5 a b ! c d ^ + d e . ",
". ' f g h i j k l m n o p q r s t t u s v w x y z A b B C D E . ",
"] f F G H j I J K L M N O P Q R S T U U V W X Y Z `  ...+.@.#.e ",
"$.v %.&.*.=.-.;.>.,.'.).!.~.{.].^./.(._.:.<.[.}.|.1.2.3.4.5.6.+ ",
"7.8.9.0.a.b.c.d.e.f.g.h.i.j.k.l.m.n.o.p.q.r.s.t.u.v.w.x.y.% { e ",
"z.A.B.C.D.E.F.G.H.I.J.K.L.M.N.O.P.Q.R.S.T.U.V.W.X.Y.Z.`. +.+, . ",
"0 ++@+#+$+%+&+*+=+-+;+>+,+'+)+!+~+{+]+^+/+(+_+:+<+[+}+|+1+2+3+4+",
"5+6+7+8+9+0+a+b+c+d+e+f+g+h+i+j+k+l+m+n+o+p+q+r+s+t+u+v+w+x+y+z+",
"A+B+&.C+D+E+F+G+H+I+J+K+L+M+N+O+P+Q+R+S+T+U+V+W+X+Y+Z+`+ @.@+@@@",
"#@#@$@%@&@*@=@-@;@>@,@'@)@!@~@{@]@^@/@(@_@:@<@[@}@|@1@2@3@4@5@6@",
"7@8@9@0@a@b@c@d@e@f@g@h@i@j@k@l@m@n@o@p@q@r@s@t@u@v@w@x@y@z@A@B@",
"C@D@E@F@G@H@I@J@K@L@M@N@O@P@Q@R@S@T@U@V@W@X@Y@Z@`@ #.#+#@###$#%#",
"&#*#=#-#;#>#,#'#)#!#~#{#]#^#/#(#_#:#<#[#}#|#1#2#3#4#5#6#7#8#9#0#",
"a#b#c#d#e#f#g#h#i#j#k#l#m#n#k@o#p#q#r#s#t#u#v#w#x#y#z#A#B#C#D#E#",
"F#G#H#I#J#K#L#M#N#O#P#Q#R#S#T#P@U#V#W#X#Y#Z#`# $.$+$@$#$$$%$&$*$",
"=$-$;$>$,$'$)$!$~${$]$^$/$($_$:$Q@n#j@<$[$}$|$1$2$3$4$5$6$7$8$9$",
"0$a$b$c$d$e$f$g$h$i$j$k$l$m$n$o$p$q$r$s$t$u$v$w$x$y$z$A$B$C$D$E$",
"F$G$H$I$J$K$L$M$N$O$P$Q$R$k$S$R@T$U$V$W$X$Y$Z$`$ %.%+%A#@%#%$%%%",
"&%*%=%-%;%>%,%'%)%!%~%{%]%^%/%(%_%:%<%[%}%|%1%2%3%4%5%6%7%8%9%0%",
"a%b%c%d%e%f%g%h%i%j%k%l%m%n%o%p%q%r%s%t%u%v%w%x%y%z%A%B%C%D%E%F%",
"G%H%I%J%K%L%M%N%O%P%Q%R%S%T%U%V%W%X%Y%Z%`% &.&+&@&#&$&%&&&*&=&-&",
";&>&,&'&)&!&~&{&]&^&/&(&_&:&<&[&}&|&1&2&3&4&5&6&7&8&9&0&a&b&F$c&",
"d&e&f&g&h&i&j&k&l&m&n&o&p&q&r&s&t&u&v&w&x&y&z&A&B&C&D&E&F&G&H&I&",
"J&K&L&M&N&O&P&Q&R&S&T&U&V&W&X&Y&Z&`& *.*+*@*#*$*%*&***=*-*;*>*b ",
",*'*)*!*~*{*]*^*/*(*_*:*<*[*}*|*1*2*3*4*5*6*7*8*9*0*a*b*c*d*9 B ",
"e*f*g*h*i*j*k*l*m*n*o*p*q*r*s*t*u*v*w*x*y*z*A*B*C*D*E*F*G*H*I*' ",
"@@J*K*L*M*N*O*P*Q*R*S*T*U*V*W*X*Y*Z*`* =.=+=}.@=#=$=%=g a &=@ e ",
"4+*===-=;=>=,='='=)=!=~={=]=^=/=(=_=:=<=[=}=|=1=2=3=4=5=I*, e . ",
"4+@@6=7=8=9=0=a=b=c=d=e=f=g=h=i=j=k=l=m=n=o=p=q=r=s=t=u=] . . . ",
"4+4+v=w=x=y=z=A=B=C=C=D=E=F=A@G=H=a%-&I=& =$J=K=L=M=, ^ . . . . ",
". 4+4+z+N=O=P=w=Q=R=S=a%T=U=I=V=& W=X=Y=Z=Z=`= -.-^ . . . . . . "};
