/* XPM */
static char * health_window_xpm[] = {
"32 32 149 2",
"  	c None",
". 	c #000000",
"+ 	c #010000",
"@ 	c #070000",
"# 	c #100000",
"$ 	c #1E0000",
"% 	c #2C0000",
"& 	c #330000",
"* 	c #370000",
"= 	c #200000",
"- 	c #0E0000",
"; 	c #040000",
"> 	c #020000",
", 	c #030000",
"' 	c #0D0000",
") 	c #230000",
"! 	c #3E0000",
"~ 	c #3F0000",
"{ 	c #3B0000",
"] 	c #2B0000",
"^ 	c #190000",
"/ 	c #0C0000",
"( 	c #0B0000",
"_ 	c #270000",
": 	c #380000",
"< 	c #480000",
"[ 	c #450000",
"} 	c #3D0000",
"| 	c #2D0000",
"1 	c #050000",
"2 	c #1F0000",
"3 	c #320000",
"4 	c #410000",
"5 	c #4D0000",
"6 	c #520000",
"7 	c #2F0000",
"8 	c #1C0000",
"9 	c #060000",
"0 	c #1B0000",
"a 	c #500000",
"b 	c #5B0000",
"c 	c #580000",
"d 	c #5D0000",
"e 	c #630000",
"f 	c #650000",
"g 	c #660000",
"h 	c #390000",
"i 	c #130000",
"j 	c #420000",
"k 	c #610000",
"l 	c #6C0000",
"m 	c #820000",
"n 	c #8F0000",
"o 	c #850000",
"p 	c #800000",
"q 	c #5C0000",
"r 	c #3A0000",
"s 	c #170000",
"t 	c #5E0000",
"u 	c #530000",
"v 	c #570000",
"w 	c #670000",
"x 	c #4F0000",
"y 	c #120000",
"z 	c #300000",
"A 	c #560000",
"B 	c #6D0000",
"C 	c #840000",
"D 	c #9D0000",
"E 	c #A20000",
"F 	c #990000",
"G 	c #8B0000",
"H 	c #7A0000",
"I 	c #360000",
"J 	c #080000",
"K 	c #250000",
"L 	c #550000",
"M 	c #600000",
"N 	c #680000",
"O 	c #6A0000",
"P 	c #4A0000",
"Q 	c #430000",
"R 	c #620000",
"S 	c #7C0000",
"T 	c #950000",
"U 	c #9F0000",
"V 	c #9C0000",
"W 	c #920000",
"X 	c #690000",
"Y 	c #160000",
"Z 	c #760000",
"` 	c #7E0000",
" .	c #7B0000",
"..	c #700000",
"+.	c #640000",
"@.	c #150000",
"#.	c #6B0000",
"$.	c #830000",
"%.	c #960000",
"&.	c #9B0000",
"*.	c #970000",
"=.	c #880000",
"-.	c #790000",
";.	c #6E0000",
">.	c #350000",
",.	c #5F0000",
"'.	c #750000",
").	c #770000",
"!.	c #730000",
"~.	c #870000",
"{.	c #860000",
"].	c #9A0000",
"^.	c #8E0000",
"/.	c #720000",
"(.	c #4E0000",
"_.	c #710000",
":.	c #3C0000",
"<.	c #260000",
"[.	c #590000",
"}.	c #780000",
"|.	c #460000",
"1.	c #8D0000",
"2.	c #810000",
"3.	c #7F0000",
"4.	c #6F0000",
"5.	c #340000",
"6.	c #2E0000",
"7.	c #310000",
"8.	c #400000",
"9.	c #740000",
"0.	c #090000",
"a.	c #0A0000",
"b.	c #210000",
"c.	c #510000",
"d.	c #5A0000",
"e.	c #540000",
"f.	c #0F0000",
"g.	c #110000",
"h.	c #290000",
"i.	c #280000",
"j.	c #490000",
"k.	c #140000",
"l.	c #470000",
"m.	c #220000",
"n.	c #240000",
"o.	c #4C0000",
"p.	c #440000",
"q.	c #1D0000",
"r.	c #900000",
". . + @ # $ % & * % = - ; . . . . . > , ' ) & ! ~ { ] ^ / , . . ",
". > ( ^ _ : < [ [ } | ^ ( > . . . . 1 - 2 3 4 5 6 6 [ 7 8 / ; + ",
"+ 9 0 ] a b c d e f g h i ; . . . + 1 ^ j k l m n o p q r ) i > ",
", s _ 5 t c u v d t w x * 8 . . . + y z A B C D E F G H 6 I ] 9 ",
"J K [ t L 6 A c M N O N P Q . + . > h v R S T U U V W m X L % 9 ",
"Y _ A d A t l Z S ` p  ...+.Q @.i { b t #.$.F %.T &.*.=.-.;.>.; ",
"i h k ,.e '.p C o  .p =.p  .).q c B N #.!.~.{.).Z ~.].^.S /.q + ",
"/ (.O g _.Z k v :.) <.& [.'.}./.X +.f f A |.* & { c m 1.2.Z 3.. ",
"/ N _.4.O a ] y , + + . 1 $ 5.5.6.7.K i 1 > ; @ J ^ 8.g 9...}.. ",
"/ /.'.!.L <.( + . . . . . + ; , , ; + + . . . ; ( 0./ : M w f . ",
"( ;.!.g 3 a.0.> . . . . . + + . . + . . . . . . 1 / ; b.c.M d.. ",
"J ;.g e.$ ; f.J . . . . . . . . . . . . . + . . ; a.1 s Q v R . ",
"J l k a Y > , + . . . . . . . . . . , , + . . + , + + a.& a O . ",
"9 d.w x g.+ . . . + . + 0., . . . . + > . + + , + . . ; h.(.w . ",
"; [ N 5 - . . . + > + ; ; > . . . . . . . + + ; > + + ; i.a < . ",
"> <.w (.@.. . . + > > > + + . . . . . + , + + , + . . 9 % x 0 . ",
". 1 h.e.) > . . + + . . > > . . . + ; / ; + . + . . . ( & j.9 . ",
". > k.M ~ ( . . . . . . ; 9 9 , @ , . > > . . + . . + s 4 6.. . ",
". . - j.c K , . . . . . , , > , ; . . . > , . . . . 9 z j.f.. . ",
". . ( - u l.f.. . . . . + + + + . + + > 0.> . . . ; m.[ 7.. . . ",
". . . . n.c | 1 . . . + + + + + . + 1 # > . . . + $ 8.P ^ . . . ",
". . . . . [ (.8 > . + ; > . . . + 1 a.; . . . + k.~ < 0 . . . . ",
". . . . . . q |.s > . + + . + . . . . + . . > ^ ! o.J . . . . . ",
". . . . . . 9 v 8.Y > . + > + . . . . . + > 0 < x Y . . . . . . ",
". . . . . . . + e.j.m.a.; + . . . . . , ' <.l.A p.. . . . . . . ",
". . . . . . . . . ,.(.: <./ . . . . , = l.M R _ . . . . . . . . ",
". . . . . . . . . i.t x L ~ Y 9 @ g.% x e R , . . . . . . . . . ",
". . . . . . . . . . q.} g O #.O ;.;.;.#.a + . . . . . . . . . . ",
". . . . . . . . . . . ' 5 ).=.r.*.G S L J + . . . . . . . . . . ",
". . . . . . . . . . . . . 4 {.V m ;.Q ) ; . . . . . . . . . . . ",
". . . . . . . . . . . . . ^ d.^.w v I @.+ . . . . . . . . . . . ",
". . . . . . . . . . . . . . @ ) o.h q.@ . . . . . . . . . . . . "};
