/* XPM */
static char * health_xpm[] = {
"32 32 231 2",
"  	c None",
". 	c #000000",
"+ 	c #010000",
"@ 	c #070000",
"# 	c #100000",
"$ 	c #1E0000",
"% 	c #2C0000",
"& 	c #330000",
"* 	c #370000",
"= 	c #200000",
"- 	c #0E0000",
"; 	c #040000",
"> 	c #020000",
", 	c #030000",
"' 	c #0D0000",
") 	c #230000",
"! 	c #3E0000",
"~ 	c #3F0000",
"{ 	c #3B0000",
"] 	c #2B0000",
"^ 	c #190000",
"/ 	c #0C0000",
"( 	c #0B0000",
"_ 	c #270000",
": 	c #380000",
"< 	c #480000",
"[ 	c #450000",
"} 	c #3D0000",
"| 	c #2D0000",
"1 	c #050000",
"2 	c #1F0000",
"3 	c #320000",
"4 	c #410000",
"5 	c #4D0000",
"6 	c #520000",
"7 	c #2F0000",
"8 	c #1C0000",
"9 	c #060000",
"0 	c #1B0000",
"a 	c #500000",
"b 	c #5B0000",
"c 	c #580000",
"d 	c #5D0000",
"e 	c #630000",
"f 	c #650000",
"g 	c #660000",
"h 	c #390000",
"i 	c #130000",
"j 	c #420000",
"k 	c #610000",
"l 	c #6C0000",
"m 	c #820000",
"n 	c #8F0000",
"o 	c #850000",
"p 	c #800000",
"q 	c #5C0000",
"r 	c #3A0000",
"s 	c #170000",
"t 	c #5E0000",
"u 	c #530000",
"v 	c #570000",
"w 	c #670000",
"x 	c #4F0000",
"y 	c #120000",
"z 	c #300000",
"A 	c #560000",
"B 	c #6D0000",
"C 	c #840000",
"D 	c #9D0000",
"E 	c #A20000",
"F 	c #990000",
"G 	c #8B0000",
"H 	c #7A0000",
"I 	c #360000",
"J 	c #080000",
"K 	c #250000",
"L 	c #550000",
"M 	c #5F0000",
"N 	c #690000",
"O 	c #600000",
"P 	c #7B0000",
"Q 	c #950000",
"R 	c #A10000",
"S 	c #9C0000",
"T 	c #920000",
"U 	c #160000",
"V 	c #6A0000",
"W 	c #740000",
"X 	c #790000",
"Y 	c #7E0000",
"Z 	c #770000",
"` 	c #310000",
" .	c #590000",
"..	c #640000",
"+.	c #7F0000",
"@.	c #A70000",
"#.	c #AE0000",
"$.	c #A40000",
"%.	c #970000",
"&.	c #880000",
"*.	c #6E0000",
"=.	c #350000",
"-.	c #8E0000",
";.	c #940000",
">.	c #900000",
",.	c #6F0000",
"'.	c #240000",
").	c #710000",
"!.	c #A80000",
"~.	c #B60000",
"{.	c #BC0000",
"].	c #B50000",
"^.	c #A50000",
"/.	c #7C0000",
"(.	c #720000",
"_.	c #4E0000",
":.	c #860000",
"<.	c #910000",
"[.	c #9F0000",
"}.	c #9B0000",
"|.	c #980000",
"1.	c #700000",
"2.	c #830000",
"3.	c #B00000",
"4.	c #C50000",
"5.	c #CA0000",
"6.	c #C70000",
"7.	c #AF0000",
"8.	c #810000",
"9.	c #760000",
"0.	c #680000",
"a.	c #8C0000",
"b.	c #A00000",
"c.	c #AC0000",
"d.	c #B30000",
"e.	c #AA0000",
"f.	c #A90000",
"g.	c #930000",
"h.	c #8D0000",
"i.	c #BA0000",
"j.	c #C10000",
"k.	c #D30000",
"l.	c #E00000",
"m.	c #DA0000",
"n.	c #CD0000",
"o.	c #BF0000",
"p.	c #B10000",
"q.	c #780000",
"r.	c #750000",
"s.	c #BB0000",
"t.	c #B80000",
"u.	c #BE0000",
"v.	c #BD0000",
"w.	c #AB0000",
"x.	c #C20000",
"y.	c #DC0000",
"z.	c #E50000",
"A.	c #F00000",
"B.	c #F10000",
"C.	c #DD0000",
"D.	c #CB0000",
"E.	c #730000",
"F.	c #AD0000",
"G.	c #B90000",
"H.	c #C80000",
"I.	c #C90000",
"J.	c #D00000",
"K.	c #D80000",
"L.	c #EA0000",
"M.	c #F30000",
"N.	c #F80000",
"O.	c #EE0000",
"P.	c #870000",
"Q.	c #620000",
"R.	c #5A0000",
"S.	c #B70000",
"T.	c #C30000",
"U.	c #D70000",
"V.	c #D60000",
"W.	c #E70000",
"X.	c #F70000",
"Y.	c #EB0000",
"Z.	c #C40000",
"`.	c #D10000",
" +	c #D90000",
".+	c #DE0000",
"++	c #E40000",
"@+	c #CC0000",
"#+	c #6B0000",
"$+	c #DB0000",
"%+	c #D40000",
"&+	c #F60000",
"*+	c #CE0000",
"=+	c #DF0000",
"-+	c #D50000",
";+	c #EF0000",
">+	c #9E0000",
",+	c #260000",
"'+	c #E20000",
")+	c #E30000",
"!+	c #E10000",
"~+	c #960000",
"{+	c #470000",
"]+	c #290000",
"^+	c #9A0000",
"/+	c #B20000",
"(+	c #ED0000",
"_+	c #F20000",
":+	c #490000",
"<+	c #440000",
"[+	c #4A0000",
"}+	c #140000",
"|+	c #CF0000",
"1+	c #2E0000",
"2+	c #C00000",
"3+	c #E90000",
"4+	c #E60000",
"5+	c #0F0000",
"6+	c #4C0000",
"7+	c #E80000",
"8+	c #460000",
"9+	c #A60000",
"0+	c #7D0000",
"a+	c #540000",
"b+	c #A30000",
"c+	c #D20000",
"d+	c #510000",
"e+	c #280000",
"f+	c #1D0000",
"g+	c #430000",
"h+	c #150000",
". . + @ # $ % & * % = - ; . . . . . > , ' ) & ! ~ { ] ^ / , . . ",
". > ( ^ _ : < [ [ } | ^ ( > . . . . 1 - 2 3 4 5 6 6 [ 7 8 / ; + ",
"+ 9 0 ] a b c d e f g h i ; . . . + 1 ^ j k l m n o p q r ) i > ",
", s _ 5 t c u v d t w x * 8 . . . + y z A B C D E F G H 6 I ] 9 ",
"J K [ t L 6 L v M w N w < j . . . + h A O P Q R R S T m N L % 9 ",
"U _ A d A d V W X Y Y Z l M I . + ` A  ...+.S @.#.$.%.&.X *.=.; ",
"i h k M e W C -.;.T T >.p ,. .'.] c v O ).>.!.~.{.].^.-./.(.q + ",
"/ _.V g ).:.<.R $.[.}.}.|.&.1.k t O ,.2.|.3.4.5.6.{.7.;.8.9.+.. ",
"/ 0.).,.Z a.b.c.d.7.e.f.#.@.g.2.m h.@.i.j.k.l.m.n.o.p.g.X 1.q.. ",
"/ (.r.Z p F f.~.s.{.t.t.u.v.].w.#.x.k.y.z.A.B.C.D.o.#.>.1.w f . ",
"( *.E.r.C S F.p.G.o.4.H.I.J.H.4.5.K.z.L.M.N.O.C.D.u.#.P.N Q.R.. ",
"J *.N ,.P.D @.e.S.T.D.J.K.K.U.V.V.y.W.A.X.N.Y.V.Z.G.f.m ..b Q.. ",
"J l ..).o |.$.c.t.4.`. +y.C..+K.k.y.z.A.X.X.++@+t.F.S 9.d v #+. ",
"9 R.l 1.P h.R p.{.6.V.$+C..+ +%+k. +++A.&+A..+Z.7.^.<.0.6 v 0.. ",
"; [ l l Z 2.}.7.u.*+U.=+l..+-+`.k.m.z.A.M.;+%+{.!.>+2.O _.A < . ",
"> ,+0.Q.B H G R s.I.m.'+)+!+V.J.k. +W.B.B.z.*+].E ~+B A {+6 0 . ",
". 1 ]+M f ,.8.^+/+6.K.!+z.l. +%+V.=+(+_+(+y.x.f.F o ..:+<+[+9 . ",
". > }+..Q.l q.n w.{.|+$+'+!+$+V.m.z.(+O.'+`.S.[.a.).q j < 1+. . ",
". . - :+f N ).o >+#.2+*+=+C.m. +.+3+Y.4+U.T.f.%.8.#+u {+[+5+. . ",
". . ( - L 0.l P n b./+Z.`..+m.m.l.3+3+.+n.d.E >.).M 6+[+` . . . ",
". . . . '.Q.e ,./.-.[.p.6.*+%+K.'+7+'+`.v.@.;./.w a [+[+^ . . . ",
". . . . . 8+O d *.Y n E ~.4.H.`.y..+k.v.9+Q 0+B a+_.< 0 . . . . ",
". . . . . . M t k (.p n b+S.v.4.J.c+x.!.;.o 1.k d+5 J . . . . . ",
". . . . . . 9 R.d ..,.Y Q !.~.t.Z.x.7.%.C Z N  .a U . . . . . . ",
". . . . . . . + v Q.g B m F !.3.G./+}.m 1.*.Q.c <+. . . . . . . ",
". . . . . . . . . k d M l p |.E ^.D m 1.0.l f _ . . . . . . . . ",
". . . . . . . . . e+t u Q.).a.S D G 9.0.g Q., . . . . . . . . . ",
". . . . . . . . . . f+} g ,.2.%.S G P *.a + . . . . . . . . . . ",
". . . . . . . . . . . ' 5 Z &.>.%.G /.L J + . . . . . . . . . . ",
". . . . . . . . . . . . . 4 :.S m *.g+) ; . . . . . . . . . . . ",
". . . . . . . . . . . . . ^ R.-.w v I h++ . . . . . . . . . . . ",
". . . . . . . . . . . . . . @ ) 6+h f+@ . . . . . . . . . . . . "};
