/* XPM */
static char * iron_wall_xpm[] = {
"32 32 183 2",
"  	c None",
". 	c #FBFBFB",
"+ 	c #F8F8F8",
"@ 	c #EFEFEF",
"# 	c #E8E8E8",
"$ 	c #EBEBEB",
"% 	c #F0F0F0",
"& 	c #E7E7E7",
"* 	c #CFCFCF",
"= 	c #898989",
"- 	c #7F7F7F",
"; 	c #D9D9D9",
"> 	c #E1E1E1",
", 	c #E6E6E6",
"' 	c #E2E2E2",
") 	c #DCDCDC",
"! 	c #D0D0D0",
"~ 	c #D1D1D1",
"{ 	c #616161",
"] 	c #4C4C4C",
"^ 	c #D3D3D3",
"/ 	c #EAEAEA",
"( 	c #F4F4F4",
"_ 	c #F2F2F2",
": 	c #E5E5E5",
"< 	c #F6F6F6",
"[ 	c #FFFFFF",
"} 	c #F7F7F7",
"| 	c #F3F3F3",
"1 	c #F1F1F1",
"2 	c #E9E9E9",
"3 	c #C2C2C2",
"4 	c #666666",
"5 	c #6A6A6A",
"6 	c #BBBBBB",
"7 	c #C9C9C9",
"8 	c #EDEDED",
"9 	c #DADADA",
"0 	c #C1C1C1",
"a 	c #C5C5C5",
"b 	c #424242",
"c 	c #282828",
"d 	c #C6C6C6",
"e 	c #E4E4E4",
"f 	c #F5F5F5",
"g 	c #F9F9F9",
"h 	c #FCFCFC",
"i 	c #FAFAFA",
"j 	c #EEEEEE",
"k 	c #5C5C5C",
"l 	c #5E5E5E",
"m 	c #B4B4B4",
"n 	c #CCCCCC",
"o 	c #FDFDFD",
"p 	c #D6D6D6",
"q 	c #414141",
"r 	c #191919",
"s 	c #BFBFBF",
"t 	c #606060",
"u 	c #595959",
"v 	c #B6B6B6",
"w 	c #D2D2D2",
"x 	c #D5D5D5",
"y 	c #303030",
"z 	c #131313",
"A 	c #BEBEBE",
"B 	c #E3E3E3",
"C 	c #C8C8C8",
"D 	c #565656",
"E 	c #BCBCBC",
"F 	c #CECECE",
"G 	c #ECECEC",
"H 	c #2B2B2B",
"I 	c #161616",
"J 	c #B8B8B8",
"K 	c #DDDDDD",
"L 	c #C3C3C3",
"M 	c #5A5A5A",
"N 	c #D7D7D7",
"O 	c #DBDBDB",
"P 	c #343434",
"Q 	c #B2B2B2",
"R 	c #5D5D5D",
"S 	c #737373",
"T 	c #D4D4D4",
"U 	c #4A4A4A",
"V 	c #212121",
"W 	c #B1B1B1",
"X 	c #5F5F5F",
"Y 	c #787878",
"Z 	c #BABABA",
"` 	c #CDCDCD",
" .	c #CBCBCB",
"..	c #BDBDBD",
"+.	c #999999",
"@.	c #626262",
"#.	c #3E3E3E",
"$.	c #818181",
"%.	c #9C9C9C",
"&.	c #CACACA",
"*.	c #D8D8D8",
"=.	c #696969",
"-.	c #6C6C6C",
";.	c #777777",
">.	c #8B8B8B",
",.	c #474747",
"'.	c #636363",
").	c #848484",
"!.	c #8E8E8E",
"~.	c #949494",
"{.	c #858585",
"].	c #828282",
"^.	c #808080",
"/.	c #707070",
"(.	c #505050",
"_.	c #3C3C3C",
":.	c #363636",
"<.	c #535353",
"[.	c #686868",
"}.	c #656565",
"|.	c #676767",
"1.	c #767676",
"2.	c #797979",
"3.	c #727272",
"4.	c #7A7A7A",
"5.	c #575757",
"6.	c #555555",
"7.	c #6B6B6B",
"8.	c #5B5B5B",
"9.	c #525252",
"0.	c #6D6D6D",
"a.	c #7E7E7E",
"b.	c #C7C7C7",
"c.	c #AFAFAF",
"d.	c #9E9E9E",
"e.	c #9D9D9D",
"f.	c #838383",
"g.	c #757575",
"h.	c #868686",
"i.	c #FEFEFE",
"j.	c #DEDEDE",
"k.	c #717171",
"l.	c #DFDFDF",
"m.	c #7D7D7D",
"n.	c #959595",
"o.	c #A3A3A3",
"p.	c #7C7C7C",
"q.	c #929292",
"r.	c #8A8A8A",
"s.	c #8F8F8F",
"t.	c #9F9F9F",
"u.	c #A6A6A6",
"v.	c #ADADAD",
"w.	c #A9A9A9",
"x.	c #888888",
"y.	c #939393",
"z.	c #979797",
"A.	c #A7A7A7",
"B.	c #B3B3B3",
"C.	c #515151",
"D.	c #6E6E6E",
"E.	c #B5B5B5",
"F.	c #A0A0A0",
"G.	c #919191",
"H.	c #ABABAB",
"I.	c #A5A5A5",
"J.	c #A1A1A1",
"K.	c #B7B7B7",
"L.	c #A4A4A4",
"M.	c #B9B9B9",
"N.	c #646464",
"O.	c #A2A2A2",
"P.	c #909090",
"Q.	c #444444",
"R.	c #4B4B4B",
"S.	c #ACACAC",
"T.	c #4F4F4F",
"U.	c #4E4E4E",
"V.	c #464646",
"W.	c #484848",
"X.	c #E0E0E0",
"Y.	c #8D8D8D",
"Z.	c #AAAAAA",
". + @ # $ % & * = - ; > , ' # , ) ! ~ { ] ^ / ( _ # : < [ [ [ [ ",
"+ } | % 1 % 2 3 4 5 6 7 : 8 _ % 9 0 a b c d e 8 f < g [ [ [ [ [ ",
"h i + f | j $ d k l m n f o o o | p ~ q r s ' % [ [ [ [ [ [ [ [ ",
"[ [ h < 1 j / a t u v w + [ [ [ g # x y z A # % f } [ [ [ [ [ [ ",
"[ h < 1 8 $ B C l D E F G . [ h _ : * H I J e G @ o [ [ [ [ [ [ ",
"o ( 8 / / / K L M { a N O @ g } @ # ~ P I Q O j i [ [ [ [ [ [ [ ",
"o } | f } f & A R S * , K : G j ( / T U V W p ( ( [ [ [ [ [ [ [ ",
"n n T K > ' ) a X Y Z `  .C  .3 ..J +.@.#.$.%.7 ` n &.*./ | h [ ",
"Y =.-.Y ;.Y >.S ,.'.).!.~.{.].^./.'.(._.:.<.R [.}.|.1.2.3.X '.4.",
">.2.4.2.=.5.u R 6.l }.}.l ,.k 4.7.6.(.5.8.{ }.[.|.u -.}.{ 9.u 1.",
"N ; p p T *  .7 a L C 7 J 0.a.A ` b...3 7 &. .n &.c.;.=.Q d.e.Z ",
"h g < | @ 2 G j 1 % _ ( e f.).' 1 j 8 1 f } + g o *.a.g.G + } g ",
". + i i < | _ _ 1 8 G @ 2 {.h.K 8 @ _ g h i < | } ; a.g.@ [ [ [ ",
"i.o i.o . + + ( _ % $ $ # g.$.O G ( h [ [ o } _ < K 2.;.1 [ [ [ ",
"[ [ [ i.. i } _ 1 _ @ 8 e 6.S T 1 i [ [ [ o + + + ) 5 ;.. [ [ [ ",
"[ [ i.. < < j G 1 _ @ 8 j.R k.~ | . i.[ [ [ o . f j.0.Y i [ [ [ ",
"[ i.i f @ 8 : & @ 8 # / p 7./.^ @ } o [ [ [ h < 1 l.S = ( [ [ [ ",
"h } % / B e & % 1 / # $ T $.h.O % | g o i.o + _ _ j.m.n.+ [ [ [ ",
"} 1 e e & j _ } ( % j _ N f.o.8 < f f g i g ( 1 1 ! p.q.@ [ [ [ ",
"* s w e & $ G 8 8 # *.: &.{.n.~ : ' ' e , / ' w * s - ).F *.& 2 ",
"r.a.^.s.t.u.v.w.w.f.4 x.].5 7.m.].h.r.s.~.y.z.A.B.o.Y Y z.;.g.].",
"C.'.S 0.X R t a.x.M k a.p.D.t M 5.5.8.5.D 8.t |.=.-.|.-.k.8.C.M ",
"e.w.v E.F.G.= %.%.X 3.o.H.H.I.o.F.n.r.y.R 2.d.t.J.W K.J Q L.L.M.",
"o o o [ g % G j b.N.O.j , j < ( f 1 2 x '.>.# 8 / G j ( 1 j | g ",
"[ [ [ [ . _ G 8 L ] P., > e 1 1 | 8 l.6 M ;.e % G @ } g + + . i.",
"[ [ [ [ [ f @ 2 0 Q./.& G f g + < f 2 W 5.{ / 1 | g h . h i.[ [ ",
"[ [ [ [ [ | 8 $ M.b /.# } o [ [ [ i.% L.R.5./ ( < . . h i.[ [ [ ",
"[ [ [ [ . _ g / S.T.k., + [ [ [ [ i.O !.q u : ( g h . i.[ [ [ [ ",
"i.i.[ [ [ o < j.A.U.p.& ( g [ [ [ } 9 r.V.X : _ i . h i.i.i.i.i.",
"_ g i.i.. ( ' > o.U - e , 1 i o < j w f.W.=.: @ | < < } g i i i ",
"_ 1 h } % , % o y.V.f.# X.j.& % & 2 N !.9.^.: @ $ 8 @ % | < } } ",
"[ ( 1 + [ i } g J.9.Y.j + % : % G / 2 Z.t d.$ _ % @ 1 | | f } < "};
