/* XPM */
static char * main_tank_down_xpm[] = {
"32 32 425 2",
"  	c None",
". 	c #474545",
"+ 	c #565454",
"@ 	c #716F6F",
"# 	c #838080",
"$ 	c #848282",
"% 	c #8E8D8D",
"& 	c #727272",
"* 	c #636262",
"= 	c #000000",
"- 	c #545252",
"; 	c #7A7878",
"> 	c #888686",
", 	c #828080",
"' 	c #5E5D5D",
") 	c #484747",
"! 	c #3B3A3A",
"~ 	c #676767",
"{ 	c #807D7D",
"] 	c #989797",
"^ 	c #AFAFAF",
"/ 	c #7B7B7B",
"( 	c #585757",
"_ 	c #0E0E0E",
": 	c #030303",
"< 	c #010101",
"[ 	c #383737",
"} 	c #4C4C4C",
"| 	c #767373",
"1 	c #908E8E",
"2 	c #9D9B9B",
"3 	c #929191",
"4 	c #6B6A6A",
"5 	c #4F4E4E",
"6 	c #6E6D6D",
"7 	c #918F8F",
"8 	c #AFAEAE",
"9 	c #B8B7B7",
"0 	c #BEBDBD",
"a 	c #999898",
"b 	c #848383",
"c 	c #070707",
"d 	c #4F4D4D",
"e 	c #6B6868",
"f 	c #A5A3A3",
"g 	c #C0BFBF",
"h 	c #CECDCD",
"i 	c #A7A5A5",
"j 	c #626060",
"k 	c #504F4F",
"l 	c #8A8989",
"m 	c #A5A4A4",
"n 	c #B4B3B3",
"o 	c #C7C7C7",
"p 	c #C8C8C8",
"q 	c #BFBFBF",
"r 	c #A0A0A0",
"s 	c #A4A3A3",
"t 	c #737373",
"u 	c #666666",
"v 	c #646363",
"w 	c #696868",
"x 	c #686767",
"y 	c #636363",
"z 	c #707070",
"A 	c #777676",
"B 	c #747373",
"C 	c #7A7A7A",
"D 	c #7E7D7D",
"E 	c #5C5C5C",
"F 	c #3F3E3E",
"G 	c #6C6B6B",
"H 	c #8B8A8A",
"I 	c #BDBBBB",
"J 	c #DADADA",
"K 	c #DCDCDC",
"L 	c #BBBBBB",
"M 	c #7E7C7C",
"N 	c #706E6E",
"O 	c #8B8989",
"P 	c #B0AFAF",
"Q 	c #BFBEBE",
"R 	c #E5E5E5",
"S 	c #E4E4E4",
"T 	c #C9C9C9",
"U 	c #9E9E9E",
"V 	c #898787",
"W 	c #5A5A5A",
"X 	c #555555",
"Y 	c #3F3F3F",
"Z 	c #343434",
"` 	c #3C3C3C",
" .	c #454444",
"..	c #515151",
"+.	c #545454",
"@.	c #6D6C6C",
"#.	c #797878",
"$.	c #7B7878",
"%.	c #DFDFDF",
"&.	c #E2E2E2",
"*.	c #D7D6D6",
"=.	c #8E8E8E",
"-.	c #7F7D7D",
";.	c #7A7979",
">.	c #A3A1A1",
",.	c #C2C1C1",
"'.	c #E6E5E5",
").	c #E7E7E7",
"!.	c #8A8A8A",
"~.	c #787575",
"{.	c #565555",
"].	c #575757",
"^.	c #5E5E5E",
"/.	c #464545",
"(.	c #2D2D2D",
"_.	c #5F5E5E",
":.	c #7F7F7F",
"<.	c #767575",
"[.	c #848484",
"}.	c #818181",
"|.	c #4E4E4E",
"1.	c #807F7F",
"2.	c #A7A4A4",
"3.	c #C9C7C7",
"4.	c #E1DFDF",
"5.	c #E9E9E9",
"6.	c #E2E1E1",
"7.	c #9A9898",
"8.	c #848181",
"9.	c #7A7777",
"0.	c #939191",
"a.	c #BBBABA",
"b.	c #EFEFEF",
"c.	c #D2D2D2",
"d.	c #888787",
"e.	c #7D7B7B",
"f.	c #656464",
"g.	c #6D6D6D",
"h.	c #292929",
"i.	c #303030",
"j.	c #ABABAB",
"k.	c #B3B2B2",
"l.	c #B1B1B1",
"m.	c #808080",
"n.	c #AEADAD",
"o.	c #9C9B9B",
"p.	c #494848",
"q.	c #A09E9E",
"r.	c #C7C6C6",
"s.	c #E8E8E8",
"t.	c #EEEEEE",
"u.	c #DDDDDD",
"v.	c #959494",
"w.	c #999797",
"x.	c #C4C3C3",
"y.	c #EDECEC",
"z.	c #F0F0F0",
"A.	c #CFCECE",
"B.	c #838282",
"C.	c #373636",
"D.	c #9A9A9A",
"E.	c #A1A0A0",
"F.	c #B0B0B0",
"G.	c #9C9C9C",
"H.	c #717171",
"I.	c #9F9F9F",
"J.	c #919090",
"K.	c #797979",
"L.	c #434242",
"M.	c #9C9A9A",
"N.	c #ECEBEB",
"O.	c #EDEDED",
"P.	c #858383",
"Q.	c #7C7979",
"R.	c #CCCBCB",
"S.	c #F2F2F2",
"T.	c #F1F1F1",
"U.	c #414141",
"V.	c #404040",
"W.	c #414040",
"X.	c #717070",
"Y.	c #7E7E7E",
"Z.	c #858585",
"`.	c #979797",
" +	c #909090",
".+	c #686868",
"++	c #3A3A3A",
"@+	c #CFCFCF",
"#+	c #939090",
"$+	c #8D8B8B",
"%+	c #CDCCCC",
"&+	c #F3F3F3",
"*+	c #ECECEC",
"=+	c #C6C6C6",
"-+	c #959292",
";+	c #2A2A2A",
">+	c #2C2B2B",
",+	c #272727",
"'+	c #242424",
")+	c #232222",
"!+	c #222222",
"~+	c #323232",
"{+	c #3D3C3C",
"]+	c #323131",
"^+	c #313131",
"/+	c #353535",
"(+	c #F4F4F4",
"_+	c #EBEBEB",
":+	c #DAD9D9",
"<+	c #777474",
"[+	c #D0CECE",
"}+	c #EAEAEA",
"|+	c #939292",
"1+	c #959393",
"2+	c #191919",
"3+	c #1D1D1D",
"4+	c #1B1B1B",
"5+	c #161616",
"6+	c #262626",
"7+	c #333333",
"8+	c #2E2E2E",
"9+	c #2B2B2B",
"0+	c #212121",
"a+	c #373737",
"b+	c #2F2F2F",
"c+	c #DDDCDC",
"d+	c #A6A5A5",
"e+	c #BCBCBC",
"f+	c #949494",
"g+	c #8E8B8B",
"h+	c #171717",
"i+	c #202020",
"j+	c #1F1F1F",
"k+	c #1C1C1C",
"l+	c #3E3E3E",
"m+	c #525252",
"n+	c #585858",
"o+	c #DFDEDE",
"p+	c #A3A2A2",
"q+	c #8F8D8D",
"r+	c #D4D3D3",
"s+	c #BCBBBB",
"t+	c #969696",
"u+	c #161515",
"v+	c #232323",
"w+	c #121212",
"x+	c #0F0F0F",
"y+	c #454545",
"z+	c #464646",
"A+	c #4B4B4B",
"B+	c #6C6C6C",
"C+	c #A6A6A6",
"D+	c #EEEDED",
"E+	c #A3A3A3",
"F+	c #D8D7D7",
"G+	c #919191",
"H+	c #8C8A8A",
"I+	c #131313",
"J+	c #363636",
"K+	c #616161",
"L+	c #B2B2B2",
"M+	c #B2B1B1",
"N+	c #D3D2D2",
"O+	c #9A9999",
"P+	c #7C7A7A",
"Q+	c #969595",
"R+	c #D8D8D8",
"S+	c #F1F0F0",
"T+	c #888585",
"U+	c #2C2C2C",
"V+	c #252525",
"W+	c #646464",
"X+	c #9B9B9B",
"Y+	c #CDCDCD",
"Z+	c #E6E6E6",
"`+	c #F2F1F1",
" @	c #D0CFCF",
".@	c #949393",
"+@	c #7B7979",
"@@	c #9D9C9C",
"#@	c #DBDADA",
"$@	c #CAC9C9",
"%@	c #181818",
"&@	c #3D3D3D",
"*@	c #757575",
"=@	c #606060",
"-@	c #6F6F6F",
";@	c #D9D9D9",
">@	c #E0E0E0",
",@	c #B3B3B3",
"'@	c #F5F5F5",
")@	c #D5D3D3",
"!@	c #999999",
"~@	c #E0DFDF",
"{@	c #C8C7C7",
"]@	c #817F7F",
"^@	c #111111",
"/@	c #1A1919",
"(@	c #A9A9A9",
"_@	c #AAAAAA",
":@	c #E3E3E3",
"<@	c #F6F6F6",
"[@	c #D6D5D5",
"}@	c #797676",
"|@	c #908D8D",
"1@	c #F6F5F5",
"2@	c #141414",
"3@	c #B7B7B7",
"4@	c #A8A8A8",
"5@	c #ADADAD",
"6@	c #D5D5D5",
"7@	c #979595",
"8@	c #787676",
"9@	c #929090",
"0@	c #C3C2C2",
"a@	c #767676",
"b@	c #A5A5A5",
"c@	c #8D8D8D",
"d@	c #D3D3D3",
"e@	c #CECECE",
"f@	c #D5D4D4",
"g@	c #969494",
"h@	c #D1D0D0",
"i@	c #DEDEDE",
"j@	c #151414",
"k@	c #505050",
"l@	c #7D7D7D",
"m@	c #9D9D9D",
"n@	c #888888",
"o@	c #D1CFCF",
"p@	c #0D0D0D",
"q@	c #101010",
"r@	c #383838",
"s@	c #474747",
"t@	c #4F4F4F",
"u@	c #929292",
"v@	c #A4A4A4",
"w@	c #D6D6D6",
"x@	c #1B1A1A",
"y@	c #CECCCC",
"z@	c #928F8F",
"A@	c #0A0A0A",
"B@	c #1E1E1E",
"C@	c #3B3B3B",
"D@	c #565656",
"E@	c #7C7C7C",
"F@	c #D7D7D7",
"G@	c #E1E0E0",
"H@	c #D4D4D4",
"I@	c #7D7A7A",
"J@	c #434343",
"K@	c #838383",
"L@	c #6F6E6E",
"M@	c #E4E3E3",
"N@	c #D2D0D0",
"O@	c #8E8C8C",
"P@	c #767474",
"Q@	c #E8E7E7",
"R@	c #807E7E",
"S@	c #201F1F",
"T@	c #6E6E6E",
"U@	c #E7E6E6",
"V@	c #7D7C7C",
"W@	c #E9E8E8",
"X@	c #D7D5D5",
"Y@	c #8F8E8E",
"Z@	c #817E7E",
"`@	c #1A1A1A",
" #	c #747474",
".#	c #484848",
"+#	c #5D5D5D",
"@#	c #595959",
"##	c #939393",
"$#	c #5F5F5F",
"%#	c #6A6A6A",
"&#	c #A2A1A1",
"*#	c #A8A7A7",
"=#	c #EAE9E9",
"-#	c #6E6C6C",
";#	c #4D4D4D",
">#	c #9B9A9A",
",#	c #828282",
"'#	c #CCCACA",
")#	c #D9D8D8",
"!#	c #747171",
"~#	c #908F8F",
"{#	c #CCCCCC",
"]#	c #DBDBDB",
"^#	c #666363",
"/#	c #535353",
"(#	c #7C7B7B",
"_#	c #C5C3C3",
":#	c #DCDBDB",
"<#	c #AAA8A8",
"[#	c #696666",
"}#	c #615F5F",
"|#	c #959595",
"1#	c #878686",
"2#	c #696767",
"3#	c #515050",
"4#	c #747272",
"5#	c #858484",
"6#	c #BEBCBC",
"7#	c #ACABAB",
"8#	c #6D6B6B",
"9#	c #555454",
"0#	c #C9C8C8",
"a#	c #C5C4C4",
"b#	c #BDBCBC",
"c#	c #787777",
"d#	c #818080",
"e#	c #B2B0B0",
"f#	c #B8B6B6",
"g#	c #B9B8B8",
"h#	c #616060",
"i#	c #7B7A7A",
"j#	c #4A4A4A",
"k#	c #C4C4C4",
"l#	c #050505",
"m#	c #666464",
"n#	c #878484",
"o#	c #8C8C8C",
"p#	c #B9B9B9",
"q#	c #757373",
"r#	c #676565",
". + @ # $ % & * = = = = = = = = = = = = = = = = . - ; # > , ' ) ",
"! ~ { % ] ^ / ( = _ : = = = = < = = = = = = = = [ } | 1 2 3 4 5 ",
"6 7 8 9 0 8 a b = < = = = = = = = = = = = = = c d e f g h i j k ",
"l m n o p q r s t 4 u v w x y z A B C D B z E F G H I J K L M N ",
"O P Q R S T U V W k } X Y Z `  ...+.@./ #.v y  .$.1 9 %.&.*.=.-.",
";.>.,.'.).T !.~.{.].^./.(.Z _.:.=.<.4 A [.}.6 |.1.2.3.4.5.6.7.8.",
"9.0.a.5.b.c.d.e.f.g.6 h.i.!.j.k.l.P m.g.n.o.!.p., q.r.s.t.u.v., ",
"$.w.x.y.z.A.B., u v ..C.Z D.j.E.o.F.G.H.I.J.K.L.8.M.x.N.O.c.J.P.",
"Q.G.R.S.T.o b O L.U.V.W.L.X.Y.1.Z.`. +.+4 4 _.++Q.G.R.T.t.@+#+O ",
"| $+%+&+*+=+=.-+;+>+,+'+)+!+'+!+h.~+{+]+'+^+Y /+| $+%+(+_+:+E.-+",
"<+J.[+O.}+g |+1+2+3+4+5+2+6+7+8+^+^+9+6+0+U.a+b+<+J.[+*+s.c+d+1+",
"6 0.h t._+e+f+g+h+6+i+j+h+k+i+'+9+b+l+m+& :.n+,+6 0.h t._+o+p+g+",
"| q+r+t.y.s+t+1 u+v+k+w+x+w+3+++y+z+A+B+C+Q H )+| q+r+D+y.c+E+1 ",
"9.J.F+D+b.T G+H+I+'+k+_ 5+J++.E K+z C Y.L+K M+h.9.J.F+y.b.N+O+H+",
"P+Q+R+_+S+@+% T+w+,+'+I+Z U+V+` l+Z W+X+Y+Z+a.i.P+Q+R+}+`+ @.@T+",
"+@@@#@y.S.$@f+$ 5+!+'+%@y+4+&@*@m.=@-@C+;@>@,@b++@@@#@y.'@)@!@$ ",
"+@G.~@b.(+{@O+]@^@/@0+4+&@v+H.(@L+=.[._@;@:@L+6++@G.~@b.<@[@a ]@",
"}@|@:+b.1@Q @@-.2@i+i+k+a+b+[.3@=+4@[.5@6@:@p '+}@|@:+b.1@[@7@-.",
"8@9@F+z._+0@2 }@I+'+i+3+` U.a@b@L+X+c@5@d@%.e@v+8@9@F+z.z.f@g@}@",
"+@v.h@D+i@r.1+<+j@0+i+5+U.k@=@l@m@n@*@j.%.S l.v++@v.h@D+*+o@#+<+",
"<+.@h@5.F+{@-+<+p@%@q@2@r@s@U.t@B+[.u@v@w@s.I.x@<+.@h s.y.y@z@<+",
"<..@r+R e@r+1+8@A@q@B@h+y+_ I+v+C@D@t@E@l.F@H.I+<..@h@R _+A.9@8@",
"X.7@F+G@H@*.7 I@A@p@_ 3+'+: ` J@=@l@8+K@G+L@b+2+X.7@*.M@'.N@O@I@",
"P@7.K Q@R *.9@R@h+S@^@2+%@4+Z J@E T@=@t } r@C@^+P@7.#@U@R N+q+R@",
"V@m@i@W@s.X@Y@Z@8+l+i.`@/@3+Z k@K. #z+A+.#m++#U.V@m@K Q@R o@O@Z@",
"B.d+%.5.*+R+#+{ z+W k@W.;+v+V.@#Y@##$#%#/ l@& A+B.&#:+R R  @#+{ ",
"P+*#*.i@=#K 9@-#r@;#@#C@!+V+l+n+G+>#f.,#3 1.X.} P+7.'#)#G@d@9@-#",
"!#~#{#@+]#h@R@^#J+s@/#.#v+;+L.+# +m ^.V@(#g.@.( <+O@_#]#:#o+<#[#",
"}#|#d@>@&.d@1#2#= = = = = = ` 3#V@D.= = = = = = 4#5#6#F+]#>@7#8#",
"9#&#T 0#a#b#c#_.= = = = = = Y ].d#b@= < = = = = 8@P.i e#f#g#1#h#",
".#u@% M.d+i#3#} = = = = ` ++j#].K@l.k#J = = = l#@#.+M q+=.Y.L@n+",
"j#.+m#T+n#N ;#} = = = = J@U.;#@#o#l.p#c.= = = < .#r@}#e.q#r#..} "};
