/* XPM */
static char * main_tank_left_xpm[] = {
"32 32 425 2",
"  	c None",
". 	c #4A4A4A",
"+ 	c #484848",
"@ 	c #555454",
"# 	c #615F5F",
"$ 	c #747171",
"% 	c #7C7A7A",
"& 	c #838282",
"* 	c #7D7C7C",
"= 	c #767474",
"- 	c #717070",
"; 	c #767575",
"> 	c #777474",
", 	c #7B7979",
"' 	c #787676",
") 	c #797676",
"! 	c #7A7777",
"~ 	c #767373",
"{ 	c #6E6D6D",
"] 	c #7C7979",
"^ 	c #7B7878",
"/ 	c #7A7979",
"( 	c #8B8989",
"_ 	c #8A8989",
": 	c #3B3A3A",
"< 	c #474545",
"[ 	c #686868",
"} 	c #929292",
"| 	c #A2A1A1",
"1 	c #959595",
"2 	c #908F8F",
"3 	c #A8A7A7",
"4 	c #A6A5A5",
"5 	c #9D9D9D",
"6 	c #9A9898",
"7 	c #979595",
"8 	c #949393",
"9 	c #959494",
"0 	c #929090",
"a 	c #908D8D",
"b 	c #9C9C9C",
"c 	c #9D9C9C",
"d 	c #969595",
"e 	c #919090",
"f 	c #8F8D8D",
"g 	c #939191",
"h 	c #8D8B8B",
"i 	c #999797",
"j 	c #A3A1A1",
"k 	c #B0AFAF",
"l 	c #A5A4A4",
"m 	c #918F8F",
"n 	c #676767",
"o 	c #565454",
"p 	c #666464",
"q 	c #8E8D8D",
"r 	c #C9C9C9",
"s 	c #D3D3D3",
"t 	c #CCCCCC",
"u 	c #D7D6D6",
"v 	c #DFDFDF",
"w 	c #DEDEDE",
"x 	c #DCDCDC",
"y 	c #D8D7D7",
"z 	c #D4D3D3",
"A 	c #D1D0D0",
"B 	c #DAD9D9",
"C 	c #E0DFDF",
"D 	c #DBDADA",
"E 	c #D8D8D8",
"F 	c #CECDCD",
"G 	c #D0CECE",
"H 	c #CDCCCC",
"I 	c #CCCBCB",
"J 	c #C4C3C3",
"K 	c #BBBABA",
"L 	c #C2C1C1",
"M 	c #BFBEBE",
"N 	c #B4B3B3",
"O 	c #AFAEAE",
"P 	c #807D7D",
"Q 	c #716F6F",
"R 	c #888585",
"S 	c #9C9A9A",
"T 	c #C9C8C8",
"U 	c #E0E0E0",
"V 	c #CFCFCF",
"W 	c #E9E9E9",
"X 	c #E9E8E8",
"Y 	c #E8E7E7",
"Z 	c #E1E0E0",
"` 	c #E5E5E5",
" .	c #EEEDED",
"..	c #F0F0F0",
"+.	c #EFEFEF",
"@.	c #EDECEC",
"#.	c #EBEBEB",
"$.	c #EEEEEE",
"%.	c #EDEDED",
"&.	c #F3F3F3",
"*.	c #F2F2F2",
"=.	c #E6E5E5",
"-.	c #C7C7C7",
";.	c #B8B7B7",
">.	c #838080",
",.	c #878484",
"'.	c #C5C4C4",
").	c #E2E2E2",
"!.	c #DBDBDB",
"~.	c #EAE9E9",
"{.	c #ECECEC",
"].	c #E8E8E8",
"^.	c #D4D4D4",
"/.	c #CECECE",
"(.	c #F6F5F5",
"_.	c #F4F4F4",
":.	c #F1F0F0",
"<.	c #EAEAEA",
"[.	c #F1F1F1",
"}.	c #E7E7E7",
"|.	c #E4E4E4",
"1.	c #C8C8C8",
"2.	c #BEBDBD",
"3.	c #989797",
"4.	c #848282",
"5.	c #706E6E",
"6.	c #7B7A7A",
"7.	c #BDBCBC",
"8.	c #D7D5D5",
"9.	c #C8C7C7",
"0.	c #C7C6C6",
"a.	c #C3C2C2",
"b.	c #CAC9C9",
"c.	c #BCBBBB",
"d.	c #BCBCBC",
"e.	c #C0BFBF",
"f.	c #C6C6C6",
"g.	c #CFCECE",
"h.	c #D2D2D2",
"i.	c #BFBFBF",
"j.	c #AFAFAF",
"k.	c #4D4D4D",
"l.	c #515050",
"m.	c #787777",
"n.	c #878686",
"o.	c #807E7E",
"p.	c #939090",
"q.	c #8F8E8E",
"r.	c #959393",
"s.	c #959292",
"t.	c #9D9B9B",
"u.	c #9A9999",
"v.	c #949494",
"w.	c #919191",
"x.	c #969696",
"y.	c #939292",
"z.	c #8E8E8E",
"A.	c #848383",
"B.	c #888787",
"C.	c #8A8A8A",
"D.	c #9E9E9E",
"E.	c #A0A0A0",
"F.	c #999898",
"G.	c #7B7B7B",
"H.	c #727272",
"I.	c #4C4C4C",
"J.	c #5F5E5E",
"K.	c #696767",
"L.	c #666363",
"M.	c #6E6C6C",
"N.	c #817E7E",
"O.	c #7D7A7A",
"P.	c #7F7D7D",
"Q.	c #817F7F",
"R.	c #8C8A8A",
"S.	c #908E8E",
"T.	c #8E8B8B",
"U.	c #828080",
"V.	c #7D7B7B",
"W.	c #787575",
"X.	c #898787",
"Y.	c #A4A3A3",
"Z.	c #585757",
"`.	c #636262",
" +	c #000000",
".+	c #363636",
"++	c #383838",
"@+	c #464646",
"#+	c #2E2E2E",
"$+	c #171717",
"%+	c #0A0A0A",
"&+	c #0D0D0D",
"*+	c #151414",
"=+	c #131313",
"-+	c #141414",
";+	c #111111",
">+	c #161616",
",+	c #121212",
"'+	c #161515",
")+	c #191919",
"!+	c #2A2A2A",
"~+	c #434242",
"{+	c #666666",
"]+	c #656464",
"^+	c #565555",
"/+	c #5A5A5A",
"(+	c #737373",
"_+	c #474747",
":+	c #3E3E3E",
"<+	c #201F1F",
"[+	c #101010",
"}+	c #181818",
"|+	c #212121",
"1+	c #242424",
"2+	c #202020",
"3+	c #1A1919",
"4+	c #222222",
"5+	c #272727",
"6+	c #232323",
"7+	c #262626",
"8+	c #1D1D1D",
"9+	c #2C2B2B",
"0+	c #414141",
"a+	c #646363",
"b+	c #6D6D6D",
"c+	c #575757",
"d+	c #504F4F",
"e+	c #6B6A6A",
"f+	c #010101",
"g+	c #0E0E0E",
"h+	c #535353",
"i+	c #595959",
"j+	c #505050",
"k+	c #303030",
"l+	c #1E1E1E",
"m+	c #1C1C1C",
"n+	c #1B1B1B",
"o+	c #404040",
"p+	c #515151",
"q+	c #5E5E5E",
"r+	c #030303",
"s+	c #3B3B3B",
"t+	c #414040",
"u+	c #1A1A1A",
"v+	c #1F1F1F",
"w+	c #373636",
"x+	c #292929",
"y+	c #464545",
"z+	c #555555",
"A+	c #434343",
"B+	c #3C3C3C",
"C+	c #454545",
"D+	c #373737",
"E+	c #3D3D3D",
"F+	c #343434",
"G+	c #0F0F0F",
"H+	c #232222",
"I+	c #2D2D2D",
"J+	c #3F3F3F",
"K+	c #696868",
"L+	c #3A3A3A",
"M+	c #252525",
"N+	c #2F2F2F",
"O+	c #2C2C2C",
"P+	c #9A9A9A",
"Q+	c #686767",
"R+	c #606060",
"S+	c #767676",
"T+	c #848484",
"U+	c #717171",
"V+	c #545454",
"W+	c #333333",
"X+	c #7E7E7E",
"Y+	c #ABABAB",
"Z+	c #636363",
"`+	c #5D5D5D",
" @	c #585858",
".@	c #4F4F4F",
"+@	c #7D7D7D",
"@@	c #A5A5A5",
"#@	c #B7B7B7",
"$@	c #A9A9A9",
"%@	c #757575",
"&@	c #5C5C5C",
"*@	c #807F7F",
"=@	c #A1A0A0",
"-@	c #B3B2B2",
";@	c #7F7F7F",
">@	c #454444",
",@	c #707070",
"'@	c #8C8C8C",
")@	c #838383",
"!@	c #818080",
"~@	c #909090",
"{@	c #797979",
"]@	c #6C6C6C",
"^@	c #B2B2B2",
"/@	c #808080",
"(@	c #616161",
"_@	c #2B2B2B",
":@	c #313131",
"<@	c #858585",
"[@	c #9C9B9B",
"}@	c #B1B1B1",
"|@	c #777676",
"1@	c #9B9A9A",
"2@	c #939393",
"3@	c #747474",
"4@	c #6E6E6E",
"5@	c #565656",
"6@	c #888888",
"7@	c #9B9B9B",
"8@	c #A8A8A8",
"9@	c #323232",
"0@	c #979797",
"a@	c #B0B0B0",
"b@	c #747373",
"c@	c #B9B9B9",
"d@	c #C4C4C4",
"e@	c #5F5F5F",
"f@	c #8D8D8D",
"g@	c #6F6F6F",
"h@	c #646464",
"i@	c #7A7A7A",
"j@	c #4B4B4B",
"k@	c #3D3C3C",
"l@	c #6D6C6C",
"m@	c #DADADA",
"n@	c #828282",
"o@	c #6A6A6A",
"p@	c #7C7C7C",
"q@	c #A4A4A4",
"r@	c #ADADAD",
"s@	c #AAAAAA",
"t@	c #A6A6A6",
"u@	c #525252",
"v@	c #323131",
"w@	c #7E7D7D",
"x@	c #7C7B7B",
"y@	c #929191",
"z@	c #D6D6D6",
"A@	c #D5D5D5",
"B@	c #D9D9D9",
"C@	c #CDCDCD",
"D@	c #9F9F9F",
"E@	c #AEADAD",
"F@	c #797878",
"G@	c #6F6E6E",
"H@	c #D7D7D7",
"I@	c #E3E3E3",
"J@	c #E6E6E6",
"K@	c #818181",
"L@	c #B3B3B3",
"M@	c #B2B1B1",
"N@	c #8B8A8A",
"O@	c #050505",
"P@	c #1B1A1A",
"Q@	c #353535",
"R@	c #494848",
"S@	c #4E4E4E",
"T@	c #3F3E3E",
"U@	c #070707",
"V@	c #747272",
"W@	c #848181",
"X@	c #6C6B6B",
"Y@	c #4F4D4D",
"Z@	c #383737",
"`@	c #858383",
" #	c #858484",
".#	c #8E8C8C",
"+#	c #A09E9E",
"@#	c #A7A4A4",
"##	c #6B6868",
"$#	c #545252",
"%#	c #7E7C7C",
"&#	c #A7A5A5",
"*#	c #BEBCBC",
"=#	c #C5C3C3",
"-#	c #CCCACA",
";#	c #C9C7C7",
">#	c #BDBBBB",
",#	c #A5A3A3",
"'#	c #7A7878",
")#	c #B2B0B0",
"!#	c #D9D8D8",
"~#	c #E7E6E6",
"{#	c #E4E3E3",
"]#	c #ECEBEB",
"^#	c #E1DFDF",
"/#	c #757373",
"(#	c #B8B6B6",
"_#	c #DCDBDB",
":#	c #F6F6F6",
"<#	c #F5F5F5",
"[#	c #F2F1F1",
"}#	c #888686",
"|#	c #676565",
"1#	c #B9B8B8",
"2#	c #DFDEDE",
"3#	c #D0CFCF",
"4#	c #D1CFCF",
"5#	c #D3D2D2",
"6#	c #D2D0D0",
"7#	c #CECCCC",
"8#	c #D5D4D4",
"9#	c #D6D5D5",
"0#	c #D5D3D3",
"a#	c #DDDCDC",
"b#	c #DDDDDD",
"c#	c #E2E1E1",
"d#	c #BBBBBB",
"e#	c #ACABAB",
"f#	c #AAA8A8",
"g#	c #928F8F",
"h#	c #969494",
"i#	c #999999",
"j#	c #A3A3A3",
"k#	c #A3A2A2",
"l#	c #626060",
"m#	c #5E5D5D",
"n#	c #616060",
"o#	c #6D6B6B",
"p#	c #696666",
"q#	c #4F4E4E",
"r#	c #484747",
". + @ # $ % & * = - ; > , ' ) , , % ! ~ { > ~ ] ^ ! / ( _ { : < ",
"[ } | 1 2 3 4 5 6 7 8 8 9 0 a b c d e f g e h b i g j k l m n o ",
"p q r s t u v w x y z A A y B C D E y z F G H I J K L M N O P Q ",
"R S T U V w W X Y Z ` W  ...+.+.@.#. .$.$.%.&.*.@.W =.` -.;.q >.",
",.4 '.).!.~.{.].` ^./.y w #.(._.*.:.+.@.#.<.{.[...+.}.|.1.2.3.4.",
"5.6.7.s A x E 8.u u z 9.0.a.M 9.b.V r c.d.e.f.-.g.h.r r i.O j.q ",
"k.l.m.n.o.0 p.q.0 m r.s.r.t.c u.v.q w.x.v.y.z.A.& B.C.D.E.F.G.H.",
"I.I.J.K.L.M.P N.o.O.' > > ) P.Q.4.R R.S.T.r.s.( U.V.W.X.Y.A.Z.`.",
" + + + +.+++@+#+$+%+%+&+*+=+-+;+>+,+=+'+$+)+!+~+{+]+^+/+(+ + + +",
" + + + +_+k./+:+<+&+[+}+|+1+2+3+4+5+1+6+7+8+9+0+a+b+c+d+e+f+g+ +",
" + + + +h+i+j+k+;+g+l+[+2+2+2+|+1+1+m+m+2+n+5+o+p+{ q+I.{+ +r+ +",
" + + + ++ s+t+u+)+8+$+-+>+8+m+n+}+=+g+,+v+>+1+t+w+x+y+z+a+ + + +",
"A+B+ + +6+4+!+3+}+1+C+++0+B+D+E+C+F+>+G+$+)+H+~+F+k+I+J+K+ + + +",
"0+L+ + +!+M+6+8+n+r+g+_+j+0+N+6+n+O+.+,+m+7+4+- P+C.F+F+Q+ + + +",
"k.. J+B+~+:+o+F+F+B+=+0+R+S+T+U+E+M+V+8+2+W+1+X+Y+Y+J.B+Z+ + + +",
"i+c+c+l.`+ @i+j+A+A+6+.@+@@@#@$@%@B+&@L+1+#+4+*@=@-@;@>@,@ +f+ +",
"'@)@!@* ~@w.q.{@&@R+s+]@5 ^@f.^@/@:+(@C+_@:@x+<@[@}@z.p+|@ + + +",
"}@}@@@P+l 1@2@3@4@+@5@T+6@7@8@z.R+F+,@@+N+:@9@0@a@k ; V+b@ + + +",
"c@d@ + +q+]+e@@+R+#+.@} %@f@T+T+g@h@i@j@:+_@k@~@b /@e+l@i@ + + +",
"h.m@f+ +* n@o@j@(+)@p@q@Y+r@r@s@t@7@X+]@u@7+v@[ U+b+|@G.w@ + + +",
" + + + +x@y@G.+ I.w.}@z@v s A@B@B@C@^@t@H.|+1+e+D@E@T+F@b@ + + +",
" + + + +b+*@+@u@++G@H@].|.v I@I@U J@x M ;@0+:@e+e [@K@a+,@ + + +",
" + + + +l@- H.`+s+N+U+D@}@/.1.^@L@K M@N@ @D+J+J.{@C.{ Z+&@ + + +",
"f+O@ + +Z.I.j@0+:@)+=+P@6+6+1+7+N+k+x+H+5+N+Q@L+~+R@S@>@T@U@ + +",
"+ i+' V@> % & * = - ; > , ' ) , , % ! ~ { > ~ ] W@U.*@^ X@Y@Z@< ",
"++[ `@ #.#6 | 5 6 7 8 8 9 0 a b c d e f g e h b S +#@#S.N@##I.$#",
"# %#&#*#=#-#B x D u A F A y B C D E y z F G H I J 0.;#;.>#,#~ '#",
"V.f )#y !.!#` Y ~#{#` ]. ...+.+.@.<.@. .$.{._.[.]#].^#v m@e.S.>.",
"/#z.(#!._#Z ` ` ` =.#.@.{...(.:#<#[#+.@.#.].#.$.%.$.W ).x F t.}#",
"|#X+1#U 2#s 3#4#5#6#g.7#4#8#9#9#0#3#5#a#2#a#B V h.b#c#u d#&#y@U.",
"p+G@n.e#f#0 p..#f .#0 g#p.h#7 F.i#8 u.j#k#4 =@p.e 9 6 z.%#l#e+m#",
"I. @n#o#p#M.P N.o.O.' > > ) P.Q.4.R R.S.T.r.s.( `@U.W@P.5.d+q#r#"};
