/* XPM */
static char * main_tank_xpm[] = {
"32 32 425 2",
"  	c None",
". 	c #4C4C4C",
"+ 	c #515151",
"@ 	c #676565",
"# 	c #757373",
"$ 	c #7D7B7B",
"% 	c #615F5F",
"& 	c #383838",
"* 	c #484848",
"= 	c #010101",
"- 	c #000000",
"; 	c #D2D2D2",
"> 	c #B9B9B9",
", 	c #B1B1B1",
"' 	c #8C8C8C",
") 	c #595959",
"! 	c #4D4D4D",
"~ 	c #414141",
"{ 	c #434343",
"] 	c #706E6E",
"^ 	c #878484",
"/ 	c #888585",
"( 	c #666464",
"_ 	c #686868",
": 	c #4A4A4A",
"< 	c #585858",
"[ 	c #6F6E6E",
"} 	c #7E7E7E",
"| 	c #8E8E8E",
"1 	c #8F8D8D",
"2 	c #7E7C7C",
"3 	c #050505",
"4 	c #DADADA",
"5 	c #C4C4C4",
"6 	c #838383",
"7 	c #575757",
"8 	c #3A3A3A",
"9 	c #3C3C3C",
"0 	c #515050",
"a 	c #7B7A7A",
"b 	c #A6A5A5",
"c 	c #9C9A9A",
"d 	c #8E8D8D",
"e 	c #929292",
"f 	c #616060",
"g 	c #878686",
"h 	c #B9B8B8",
"i 	c #B8B6B6",
"j 	c #B2B0B0",
"k 	c #A7A5A5",
"l 	c #858383",
"m 	c #787676",
"n 	c #A5A5A5",
"o 	c #818080",
"p 	c #3F3F3F",
"q 	c #5F5E5E",
"r 	c #787777",
"s 	c #BDBCBC",
"t 	c #C5C4C4",
"u 	c #C9C8C8",
"v 	c #C9C9C9",
"w 	c #A2A1A1",
"x 	c #555454",
"y 	c #6D6B6B",
"z 	c #ACABAB",
"A 	c #E0E0E0",
"B 	c #DBDBDB",
"C 	c #D8D7D7",
"D 	c #BEBCBC",
"E 	c #858484",
"F 	c #747272",
"G 	c #9A9A9A",
"H 	c #7D7C7C",
"I 	c #696767",
"J 	c #D3D3D3",
"K 	c #E2E2E2",
"L 	c #959595",
"M 	c #696666",
"N 	c #AAA8A8",
"O 	c #DFDEDE",
"P 	c #DCDBDB",
"Q 	c #C5C3C3",
"R 	c #8E8C8C",
"S 	c #777474",
"T 	c #585757",
"U 	c #6D6C6C",
"V 	c #6D6D6D",
"W 	c #7C7B7B",
"X 	c #5E5E5E",
"Y 	c #A5A4A4",
"Z 	c #909090",
"` 	c #5D5D5D",
" .	c #434242",
"..	c #2A2A2A",
"+.	c #232323",
"@.	c #535353",
"#.	c #474747",
"$.	c #363636",
"%.	c #666363",
"&.	c #807E7E",
"*.	c #D1D0D0",
"=.	c #CFCFCF",
"-.	c #CCCCCC",
";.	c #908F8F",
">.	c #747171",
",.	c #6E6C6C",
"'.	c #929090",
").	c #E1E0E0",
"!.	c #D9D8D8",
"~.	c #CCCACA",
"{.	c #9A9898",
"].	c #7C7A7A",
"^.	c #717070",
"/.	c #807F7F",
"(.	c #929191",
"_.	c #828282",
":.	c #656464",
"<.	c #9B9A9A",
"[.	c #919191",
"}.	c #3E3E3E",
"|.	c #252525",
"1.	c #222222",
"2.	c #3B3B3B",
"3.	c #DCDCDC",
"4.	c #EAE9E9",
"5.	c #DEDEDE",
"6.	c #D7D6D6",
"7.	c #A8A7A7",
"8.	c #807D7D",
"9.	c #939090",
"0.	c #D0CFCF",
"a.	c #E5E5E5",
"b.	c #DAD9D9",
"c.	c #838282",
"d.	c #4B4B4B",
"e.	c #727272",
"f.	c #7D7D7D",
"g.	c #7B7B7B",
"h.	c #6A6A6A",
"i.	c #5F5F5F",
"j.	c #939393",
"k.	c #8F8E8E",
"l.	c #404040",
"m.	c #414040",
"n.	c #505050",
"o.	c #5A5A5A",
"p.	c #464646",
"q.	c #D8D8D8",
"r.	c #ECECEC",
"s.	c #E9E9E9",
"t.	c #DFDFDF",
"u.	c #817E7E",
"v.	c #D1CFCF",
"w.	c #E8E7E7",
"x.	c #9D9D9D",
"y.	c #525252",
"z.	c #747474",
"A.	c #797979",
"B.	c #343434",
"C.	c #1D1D1D",
"D.	c #1A1919",
"E.	c #1A1A1A",
"F.	c #303030",
"G.	c #2E2E2E",
"H.	c #D7D5D5",
"I.	c #E8E8E8",
"J.	c #E9E8E8",
"K.	c #D3D2D2",
"L.	c #E7E6E6",
"M.	c #DBDADA",
"N.	c #767474",
"O.	c #313131",
"P.	c #737373",
"Q.	c #606060",
"R.	c #6E6E6E",
"S.	c #5C5C5C",
"T.	c #1B1B1B",
"U.	c #181818",
"V.	c #191919",
"W.	c #111111",
"X.	c #201F1F",
"Y.	c #171717",
"Z.	c #7D7A7A",
"`.	c #D2D0D0",
" +	c #E6E5E5",
".+	c #E4E3E3",
"++	c #979595",
"@+	c #2F2F2F",
"#+	c #030303",
"$+	c #242424",
"%+	c #0E0E0E",
"&+	c #0D0D0D",
"*+	c #0A0A0A",
"=+	c #918F8F",
"-+	c #D4D4D4",
";+	c #CFCECE",
">+	c #EBEBEB",
",+	c #949393",
"'+	c #767575",
")+	c #131313",
"!+	c #717171",
"~+	c #D7D7D7",
"{+	c #7C7C7C",
"]+	c #4F4F4F",
"^+	c #565656",
"/+	c #454545",
"(+	c #1E1E1E",
"_+	c #101010",
":+	c #959393",
"<+	c #D4D3D3",
"[+	c #CECECE",
"}+	c #928F8F",
"|+	c #CECCCC",
"1+	c #EDECEC",
"2+	c #CECDCD",
"3+	c #1B1A1A",
"4+	c #9F9F9F",
"5+	c #D6D6D6",
"6+	c #A4A4A4",
"7+	c #848484",
"8+	c #6C6C6C",
"9+	c #141414",
"0+	c #959292",
"a+	c #C8C7C7",
"b+	c #EEEDED",
"c+	c #959494",
"d+	c #7B7979",
"e+	c #E4E4E4",
"f+	c #ABABAB",
"g+	c #757575",
"h+	c #888888",
"i+	c #161616",
"j+	c #202020",
"k+	c #212121",
"l+	c #151414",
"m+	c #C7C6C6",
"n+	c #797676",
"o+	c #969494",
"p+	c #D5D4D4",
"q+	c #F0F0F0",
"r+	c #ADADAD",
"s+	c #8D8D8D",
"t+	c #9B9B9B",
"u+	c #B2B2B2",
"v+	c #767676",
"w+	c #9D9B9B",
"x+	c #C3C2C2",
"y+	c #7F7D7D",
"z+	c #D6D5D5",
"A+	c #F6F5F5",
"B+	c #EFEFEF",
"C+	c #908D8D",
"D+	c #C8C8C8",
"E+	c #E3E3E3",
"F+	c #D5D5D5",
"G+	c #A8A8A8",
"H+	c #C6C6C6",
"I+	c #B7B7B7",
"J+	c #373737",
"K+	c #1C1C1C",
"L+	c #9D9C9C",
"M+	c #BFBEBE",
"N+	c #817F7F",
"O+	c #999898",
"P+	c #F6F6F6",
"Q+	c #E0DFDF",
"R+	c #9C9C9C",
"S+	c #262626",
"T+	c #D9D9D9",
"U+	c #AAAAAA",
"V+	c #A9A9A9",
"W+	c #3D3D3D",
"X+	c #9A9999",
"Y+	c #F4F4F4",
"Z+	c #848282",
"`+	c #999999",
" @	c #D5D3D3",
".@	c #F5F5F5",
"+@	c #B3B3B3",
"@@	c #A6A6A6",
"#@	c #6F6F6F",
"$@	c #808080",
"%@	c #949494",
"&@	c #CAC9C9",
"*@	c #F2F2F2",
"=@	c #F2F1F1",
"-@	c #EAEAEA",
";@	c #969595",
">@	c #BBBABA",
",@	c #E6E6E6",
"'@	c #CDCDCD",
")@	c #646464",
"!@	c #2C2C2C",
"~@	c #272727",
"{@	c #121212",
"]@	c #F1F0F0",
"^@	c #8C8A8A",
"/@	c #919090",
"(@	c #7A7777",
"_@	c #292929",
":@	c #B2B1B1",
"<@	c #7A7A7A",
"[@	c #707070",
"}@	c #616161",
"|@	c #545454",
"1@	c #908E8E",
"2@	c #A3A3A3",
"3@	c #DDDCDC",
"4@	c #767373",
"5@	c #232222",
"6@	c #8B8A8A",
"7@	c #0F0F0F",
"8@	c #161515",
"9@	c #969696",
"0@	c #BCBBBB",
"a@	c #EEEEEE",
"b@	c #8E8B8B",
"c@	c #A3A2A2",
"d@	c #939191",
"e@	c #6E6D6D",
"f@	c #7F7F7F",
"g@	c #2B2B2B",
"h@	c #1F1F1F",
"i@	c #BCBCBC",
"j@	c #D0CECE",
"k@	c #333333",
"l@	c #939292",
"m@	c #C0BFBF",
"n@	c #EDEDED",
"o@	c #A1A0A0",
"p@	c #CDCCCC",
"q@	c #8D8B8B",
"r@	c #353535",
"s@	c #323131",
"t@	c #3D3C3C",
"u@	c #323232",
"v@	c #2C2B2B",
"w@	c #F3F3F3",
"x@	c #8B8989",
"y@	c #F1F1F1",
"z@	c #CCCBCB",
"A@	c #7C7979",
"B@	c #6B6A6A",
"C@	c #979797",
"D@	c #858585",
"E@	c #848383",
"F@	c #C7C7C7",
"G@	c #ECEBEB",
"H@	c #C4C3C3",
"I@	c #848181",
"J@	c #B0B0B0",
"K@	c #9C9B9B",
"L@	c #373636",
"M@	c #646363",
"N@	c #666666",
"O@	c #828080",
"P@	c #999797",
"Q@	c #7B7878",
"R@	c #DDDDDD",
"S@	c #A09E9E",
"T@	c #494848",
"U@	c #8A8A8A",
"V@	c #AEADAD",
"W@	c #B0AFAF",
"X@	c #B3B2B2",
"Y@	c #888787",
"Z@	c #E2E1E1",
"`@	c #E1DFDF",
" #	c #C9C7C7",
".#	c #A7A4A4",
"+#	c #4E4E4E",
"@#	c #818181",
"##	c #777676",
"$#	c #2D2D2D",
"%#	c #464545",
"&#	c #565555",
"*#	c #787575",
"=#	c #E7E7E7",
"-#	c #C2C1C1",
";#	c #A3A1A1",
">#	c #7A7979",
",#	c #B8B7B7",
"'#	c #454444",
")#	c #636363",
"!#	c #797878",
"~#	c #555555",
"{#	c #504F4F",
"]#	c #898787",
"^#	c #9E9E9E",
"/#	c #BBBBBB",
"(#	c #BDBBBB",
"_#	c #6C6B6B",
":#	c #3F3E3E",
"<#	c #747373",
"[#	c #7E7D7D",
"}#	c #686767",
"|#	c #696868",
"1#	c #A4A3A3",
"2#	c #A0A0A0",
"3#	c #BFBFBF",
"4#	c #B4B3B3",
"5#	c #8A8989",
"6#	c #626060",
"7#	c #A5A3A3",
"8#	c #6B6868",
"9#	c #4F4D4D",
"0#	c #070707",
"a#	c #AFAEAE",
"b#	c #BEBDBD",
"c#	c #4F4E4E",
"d#	c #383737",
"e#	c #AFAFAF",
"f#	c #989797",
"g#	c #676767",
"h#	c #3B3A3A",
"i#	c #484747",
"j#	c #5E5D5D",
"k#	c #888686",
"l#	c #838080",
"m#	c #7A7878",
"n#	c #545252",
"o#	c #474545",
"p#	c #636262",
"q#	c #716F6F",
"r#	c #565454",
". + @ # $ % & * = - - - ; > , ' ) ! ~ { - - - - . ! ] ^ / ( _ : ",
"< [ } | 1 2 _ ) 3 - - - 4 5 , 6 7 : 8 9 - - - - . 0 a b c d e * ",
"f g h i j k l m - - - - = - n o 7 p - - - - - - q r s t u v w x ",
"y z A B C D E F - - - - - - G H 0 9 - - - - - - I g J K A J L % ",
"M N O P B Q R S T U V W H X Y Z `  ...+.* @.#.$.%.&.*.B =.-.;.>.",
",.'.J ).!.~.{.].. ^./.(._.:.<.[.< }.|.1.2.) ! & ,.'.3.4.5.6.7.].",
"8.9.0.a.a.b.w c.d.e.f.g.h.i.j.k.) l.+...m.n.o.p.8.9.q.r.s.t.b c.",
"u.R v.a.w.3.x.H ~ ` y.* d.p.z.A.n.B.C.D.E.F.}.G.u.k.H.I.J.5.x.H ",
"&.1 K.a.L.M.{.N.O.2.& . P.Q.R.S.{ B.T.U.V.W.X.Y.&.'.6.a.w.3.{.N.",
"Z.R `. +.+6.++^.V.@+[ [.6 G.f.Q.{ 9 #+$+C.%+&+*+Z.=+6.-+).C ++^.",
"m '.;+>+a.*.,+'+)+!+~+, {+]+^+2.+.)+%+/+Y.(+_+*+m :+<+[+a.<+,+'+",
"S }+|+1+I.2+,+S 3+4+I.5+6+e 7+8+]+~ #.& 9+_+U.&+S 0+a+C s.*.,+S ",
"S 9.v.r.b+*.c+d++., e+t.f+g+h+x.f.Q.n.~ i+j+k+l+S :+m+5.b+*.c+d+",
"n+o+p+q+q+C '.m +.[+t.J r+s+t+u+n v+~ 9 C.j+$+)+n+w+x+>+q+C '.m ",
"y+++z+A+B+b.C+n+$+D+E+F+r+7+G+H+I+7+@+J+K+j+j+9+y+L+M+A+B+b.C+n+",
"N+O+z+P+B+Q+R+d+S+u+E+T+U+7+| u+V+!++.W+T.k+D.W.N+X+a+Y+B+Q+R+d+",
"Z+`+ @.@1+M.L+d+@++@A T+@@#@Q.$@g+W+T./+U.$+1.i+Z+%@&@*@1+M.L+d+",
"/ ,+0.=@-@q.;@].F.>@,@'@t+)@B.}.9 |.!@B.)+$+~@{@/ d =.]@>+q.;@].",
"^@X+K.B+1+C /@(@_@:@3.u+} <@[@}@S.|@$.i+%+K+$+)+^@[.v B+b+C /@(@",
"1@2@3@1+b+<+1 4@5@6@M+@@8+d.p./+8 C.{@7@{@K++.8@1@9@0@1+a@<+1 4@",
"b@c@O >+a@2+d@e@~@< f@e.y.}.@+g@$+j+K+Y.h@j+S+Y.b@%@i@>+a@2+d@e@",
":+b 3@I.r.j@/@S @+J+~ k+S+g@O.O.G.k@S+V.i+T.C.V.:+l@m@-@n@j@/@S ",
"0+o@b.>+Y+p@q@4@r@p O.$+s@t@u@_@1.$+1.5@$+~@v@..0+| H+r.w@p@q@4@",
"x@9.=.a@y@z@R+A@8 q B@B@_ Z C@D@/.} ^. .m.l.~  .x@E@F@y@*@z@R+A@",
"l /@; n@G@H@c I@ .A./@4+!+R+J@K@o@f+G B.L@+ M@N@O@c.;+q+1+H@P@Q@",
"O@c+R@a@I.m+S@O@T@U@K@V@V $@W@, X@f+U@F._@e@V :.$ Y@; B+s.>@d@(@",
"I@{.Z@s.`@ #.#/.+#e@@#7+##B@'+| f@q B.$#%#X 7 &#*#U@v =# +-#;#>#",
"y+| 6.K t.,#1@Q@'#)#M@!#g.U |@+ '#9 B.p ~#. {#o.]#^#v e+a.M+W@x@",
"] 2 /#3.4 (#6@_#:#S.[@<#[#<@<###[@)#}#|#M@N@B@P.1#2#3#D+F@4#Y 5#",
"{#6#k 2+m@7#8#9#0#- - - - - - - - - - - - - = - E@O+a#b#,#a#=+e@",
"c#B@(.w+1@4@. d#- - - - - - - - = - - - - #+%+- T g.e#f#d 8.g#h#",
"i#j#O@k#l#m#n#o#- - - - - - - - - - - - - - - - p#e.d Z+l#q#r#o#"};
