/* XPM */
static char * main_tank_right_xpm[] = {
"32 32 425 2",
"  	c None",
". 	c #484747",
"+ 	c #4F4E4E",
"@ 	c #504F4F",
"# 	c #706E6E",
"$ 	c #7F7D7D",
"% 	c #848181",
"& 	c #828080",
"* 	c #858383",
"= 	c #8B8989",
"- 	c #959292",
"; 	c #959393",
"> 	c #8E8B8B",
", 	c #908E8E",
"' 	c #8C8A8A",
") 	c #888585",
"! 	c #848282",
"~ 	c #817F7F",
"{ 	c #797676",
"] 	c #777474",
"^ 	c #787676",
"/ 	c #7D7A7A",
"( 	c #807E7E",
"_ 	c #817E7E",
": 	c #807D7D",
"< 	c #6E6C6C",
"[ 	c #696666",
"} 	c #6D6B6B",
"| 	c #616060",
"1 	c #585858",
"2 	c #4C4C4C",
"3 	c #5E5D5D",
"4 	c #6B6A6A",
"5 	c #626060",
"6 	c #7E7C7C",
"7 	c #8E8E8E",
"8 	c #9A9898",
"9 	c #959494",
"0 	c #919090",
"a 	c #939090",
"b 	c #A1A0A0",
"c 	c #A6A5A5",
"d 	c #A3A2A2",
"e 	c #A3A3A3",
"f 	c #9A9999",
"g 	c #949393",
"h 	c #999999",
"i 	c #999898",
"j 	c #979595",
"k 	c #969494",
"l 	c #928F8F",
"m 	c #929090",
"n 	c #8E8C8C",
"o 	c #8F8D8D",
"p 	c #AAA8A8",
"q 	c #ACABAB",
"r 	c #878686",
"s 	c #6F6E6E",
"t 	c #515151",
"u 	c #929191",
"v 	c #A7A5A5",
"w 	c #BBBBBB",
"x 	c #D7D6D6",
"y 	c #E2E1E1",
"z 	c #DDDDDD",
"A 	c #D2D2D2",
"B 	c #CFCFCF",
"C 	c #DAD9D9",
"D 	c #DDDCDC",
"E 	c #DFDEDE",
"F 	c #D3D2D2",
"G 	c #D0CFCF",
"H 	c #D5D3D3",
"I 	c #D6D5D5",
"J 	c #D5D4D4",
"K 	c #D1CFCF",
"L 	c #CECCCC",
"M 	c #CFCECE",
"N 	c #D2D0D0",
"O 	c #D3D3D3",
"P 	c #E0E0E0",
"Q 	c #B9B8B8",
"R 	c #7E7E7E",
"S 	c #676565",
"T 	c #888686",
"U 	c #9D9B9B",
"V 	c #CECDCD",
"W 	c #DCDCDC",
"X 	c #E2E2E2",
"Y 	c #E9E9E9",
"Z 	c #EEEEEE",
"` 	c #EDEDED",
" .	c #EBEBEB",
"..	c #E8E8E8",
"+.	c #EDECEC",
"@.	c #EFEFEF",
"#.	c #F2F1F1",
"$.	c #F5F5F5",
"%.	c #F6F6F6",
"&.	c #F6F5F5",
"*.	c #F0F0F0",
"=.	c #ECECEC",
"-.	c #E6E5E5",
";.	c #E5E5E5",
">.	c #E1E0E0",
",.	c #DCDBDB",
"'.	c #DBDBDB",
").	c #B8B6B6",
"!.	c #757373",
"~.	c #838080",
"{.	c #C0BFBF",
"].	c #DADADA",
"^.	c #DFDFDF",
"/.	c #E1DFDF",
"(.	c #ECEBEB",
"_.	c #F1F1F1",
":.	c #F4F4F4",
"<.	c #EEEDED",
"[.	c #EAEAEA",
"}.	c #E4E3E3",
"|.	c #E7E6E6",
"1.	c #E8E7E7",
"2.	c #D9D8D8",
"3.	c #D8D7D7",
"4.	c #B2B0B0",
"5.	c #7D7B7B",
"6.	c #7A7878",
"7.	c #767373",
"8.	c #A5A3A3",
"9.	c #BDBBBB",
"0.	c #B8B7B7",
"a.	c #C9C7C7",
"b.	c #C7C6C6",
"c.	c #C4C3C3",
"d.	c #CCCBCB",
"e.	c #CDCCCC",
"f.	c #D0CECE",
"g.	c #D4D3D3",
"h.	c #D8D8D8",
"i.	c #DBDADA",
"j.	c #E0DFDF",
"k.	c #D1D0D0",
"l.	c #CCCACA",
"m.	c #C5C3C3",
"n.	c #BEBCBC",
"o.	c #615F5F",
"p.	c #545252",
"q.	c #6B6868",
"r.	c #8B8A8A",
"s.	c #A7A4A4",
"t.	c #A09E9E",
"u.	c #9C9A9A",
"v.	c #9C9C9C",
"w.	c #8D8B8B",
"x.	c #939191",
"y.	c #969595",
"z.	c #9D9C9C",
"A.	c #908D8D",
"B.	c #9D9D9D",
"C.	c #A2A1A1",
"D.	c #858484",
"E.	c #686868",
"F.	c #383838",
"G.	c #474545",
"H.	c #383737",
"I.	c #4F4D4D",
"J.	c #6C6B6B",
"K.	c #7B7878",
"L.	c #807F7F",
"M.	c #7C7979",
"N.	c #6E6D6D",
"O.	c #7A7777",
"P.	c #7C7A7A",
"Q.	c #7B7979",
"R.	c #767575",
"S.	c #717070",
"T.	c #767474",
"U.	c #7D7C7C",
"V.	c #838282",
"W.	c #747272",
"X.	c #595959",
"Y.	c #484848",
"Z.	c #000000",
"`.	c #070707",
" +	c #3F3E3E",
".+	c #454444",
"++	c #4E4E4E",
"@+	c #494848",
"#+	c #434242",
"$+	c #3A3A3A",
"%+	c #353535",
"&+	c #2F2F2F",
"*+	c #272727",
"=+	c #232222",
"-+	c #292929",
";+	c #303030",
">+	c #262626",
",+	c #242424",
"'+	c #232323",
")+	c #1B1A1A",
"!+	c #131313",
"~+	c #191919",
"{+	c #313131",
"]+	c #414141",
"^+	c #4B4B4B",
"/+	c #585757",
"(+	c #050505",
"_+	c #010101",
":+	c #5C5C5C",
"<+	c #636363",
"[+	c #8A8A8A",
"}+	c #797979",
"|+	c #5F5E5E",
"1+	c #3F3F3F",
"2+	c #373737",
"3+	c #B2B1B1",
"4+	c #BBBABA",
"5+	c #B3B3B3",
"6+	c #B2B2B2",
"7+	c #C8C8C8",
"8+	c #CECECE",
"9+	c #B1B1B1",
"0+	c #9F9F9F",
"a+	c #717171",
"b+	c #3B3B3B",
"c+	c #5D5D5D",
"d+	c #727272",
"e+	c #6D6C6C",
"f+	c #707070",
"g+	c #646363",
"h+	c #818181",
"i+	c #9C9B9B",
"j+	c #7F7F7F",
"k+	c #BFBEBE",
"l+	c #E6E6E6",
"m+	c #E3E3E3",
"n+	c #E4E4E4",
"o+	c #D7D7D7",
"p+	c #525252",
"q+	c #7D7D7D",
"r+	c #6D6D6D",
"s+	c #747373",
"t+	c #797878",
"u+	c #848484",
"v+	c #AEADAD",
"w+	c #212121",
"x+	c #A6A6A6",
"y+	c #CDCDCD",
"z+	c #D9D9D9",
"A+	c #D5D5D5",
"B+	c #D6D6D6",
"C+	c #919191",
"D+	c #7B7B7B",
"E+	c #7C7B7B",
"F+	c #7E7D7D",
"G+	c #777676",
"H+	c #323131",
"I+	c #6C6C6C",
"J+	c #9B9B9B",
"K+	c #AAAAAA",
"L+	c #ADADAD",
"M+	c #ABABAB",
"N+	c #A4A4A4",
"O+	c #7C7C7C",
"P+	c #838383",
"Q+	c #737373",
"R+	c #6A6A6A",
"S+	c #828282",
"T+	c #7A7A7A",
"U+	c #808080",
"V+	c #909090",
"W+	c #3D3C3C",
"X+	c #2B2B2B",
"Y+	c #3E3E3E",
"Z+	c #646464",
"`+	c #6F6F6F",
" @	c #8D8D8D",
".@	c #757575",
"+@	c #929292",
"@@	c #4F4F4F",
"#@	c #2E2E2E",
"$@	c #606060",
"%@	c #464646",
"&@	c #5F5F5F",
"*@	c #656464",
"=@	c #5E5E5E",
"-@	c #C4C4C4",
";@	c #B9B9B9",
">@	c #545454",
",@	c #B0AFAF",
"'@	c #B0B0B0",
")@	c #979797",
"!@	c #323232",
"~@	c #343434",
"{@	c #A8A8A8",
"]@	c #888888",
"^@	c #565656",
"/@	c #6E6E6E",
"(@	c #747474",
"_@	c #939393",
":@	c #9B9A9A",
"<@	c #A5A4A4",
"[@	c #9A9A9A",
"}@	c #A5A5A5",
"|@	c #858585",
"1@	c #454545",
"2@	c #616161",
"3@	c #C6C6C6",
"4@	c #8F8E8E",
"5@	c #818080",
"6@	c #8C8C8C",
"7@	c #B3B2B2",
"8@	c #222222",
"9@	c #3C3C3C",
"0@	c #A9A9A9",
"a@	c #B7B7B7",
"b@	c #434343",
"c@	c #505050",
"d@	c #515050",
"e@	c #575757",
"f@	c #333333",
"g@	c #202020",
"h@	c #1D1D1D",
"i@	c #252525",
"j@	c #3D3D3D",
"k@	c #767676",
"l@	c #404040",
"m@	c #4A4A4A",
"n@	c #4D4D4D",
"o@	c #686767",
"p@	c #1C1C1C",
"q@	c #121212",
"r@	c #363636",
"s@	c #2C2C2C",
"t@	c #1B1B1B",
"u@	c #474747",
"v@	c #0E0E0E",
"w@	c #030303",
"x@	c #2A2A2A",
"y@	c #696868",
"z@	c #2D2D2D",
"A@	c #171717",
"B@	c #0F0F0F",
"C@	c #161616",
"D@	c #181818",
"E@	c #1A1919",
"F@	c #555555",
"G@	c #464545",
"H@	c #373636",
"I@	c #414040",
"J@	c #1F1F1F",
"K@	c #141414",
"L@	c #1A1A1A",
"M@	c #666666",
"N@	c #101010",
"O@	c #1E1E1E",
"P@	c #111111",
"Q@	c #535353",
"R@	c #2C2B2B",
"S@	c #0D0D0D",
"T@	c #201F1F",
"U@	c #5A5A5A",
"V@	c #565555",
"W@	c #161515",
"X@	c #151414",
"Y@	c #0A0A0A",
"Z@	c #636262",
"`@	c #848383",
" #	c #A4A3A3",
".#	c #898787",
"+#	c #787575",
"@#	c #666363",
"##	c #696767",
"$#	c #A0A0A0",
"%#	c #9E9E9E",
"&#	c #888787",
"*#	c #939292",
"=#	c #949494",
"-#	c #969696",
";#	c #8E8D8D",
">#	c #918F8F",
",#	c #787777",
"'#	c #AFAFAF",
")#	c #AFAEAE",
"!#	c #BFBFBF",
"~#	c #C9C9C9",
"{#	c #C7C7C7",
"]#	c #BCBCBC",
"^#	c #BCBBBB",
"/#	c #CAC9C9",
"(#	c #C8C7C7",
"_#	c #C3C2C2",
":#	c #D7D5D5",
"<#	c #BDBCBC",
"[#	c #7B7A7A",
"}#	c #989797",
"|#	c #BEBDBD",
"1#	c #E7E7E7",
"2#	c #F1F0F0",
"3#	c #F2F2F2",
"4#	c #DEDEDE",
"5#	c #D4D4D4",
"6#	c #EAE9E9",
"7#	c #C5C4C4",
"8#	c #878484",
"9#	c #F3F3F3",
"0#	c #E9E8E8",
"a#	c #C9C8C8",
"b#	c #716F6F",
"c#	c #B4B3B3",
"d#	c #C2C1C1",
"e#	c #CCCCCC",
"f#	c #666464",
"g#	c #565454",
"h#	c #676767",
"i#	c #A3A1A1",
"j#	c #999797",
"k#	c #A8A7A7",
"l#	c #908F8F",
"m#	c #959595",
"n#	c #3B3A3A",
"o#	c #8A8989",
"p#	c #7A7979",
"q#	c #747171",
"r#	c #555454",
". + @ # $ % & * = - ; > , ' ) ! ~ $ { ] ] ^ / ( _ : < [ } | 1 2 ",
"3 4 5 6 7 8 9 0 a b c d e f g h i j k a l m n o n a m p q r s t ",
"& u v w x y z A B C D E D F G H I I J K L M N F K G O E P Q R S ",
"T U V W X Y Z ` Z  ... .+.@.#.$.%.&.*.=.+. .-.;.;.;.>.,.'.).7 !.",
"~., {.].^./...(._.:.=.Z <.+.[.+.@.@.*.<...;.}.|.1.;.2.'.3.4.o 5.",
"6.7.8.9.0.a.b.c.d.e.f.V g.3.h.i.j.C 3.k.V k.x i.W C l.m.n.v 6 o.",
"p.2 q.r., s.t.u.v.w.0 x.o 0 y.z.v.A.m 9 g g j 8 B.C.8 n D.* E.F.",
"G.H.I.J.K.L.& % M.7.] N.7.O.P.Q.Q.{ ^ Q.] R.S.T.U.V.P.] W.^ X.Y.",
"Z.Z.`. +.+++@+#+$+%+&+*+=+-+;+&+>+,+'+'+)+!+~+{+]+^+2 /+Z.Z.(+_+",
"Z.Z.Z.:+<+N.[+}+|+1+2+1 r.3+4+5+6+7+8+9+0+a+&+b+c+d+S.e+Z.Z.Z.Z.",
"Z.Z.Z.f+g+h+i+0 4 {+]+j+k+W l+P m+m+^.n+..o+s F.p+q+L.r+Z.Z.Z.Z.",
"Z.Z.Z.s+t+u+v+0+4 ,+w+d+x+6+y+z+z+A+O ^.B+9+C+2 Y.D+u E+Z.Z.Z.Z.",
"Z.Z.Z.F+D+G+r+a+E.H+>+p+I+R J+x+K+L+L+M+N+O+P+Q+^+R+S+U.Z._+].A ",
"Z.Z.Z.T+e+4 U+v.V+W+X+Y+^+T+Z+`+u+u+ @.@+@@@#@$@%@&@*@=@Z.Z.-@;@",
"Z.Z.Z.s+>@R.,@'@)@!@{+&+%@f+~@$@7 {@J+]@u+^@q+/@(@_@:@<@[@}@9+9+",
"Z.Z.Z.G+t 7 9+i+|@-+{+X+1@2@Y+U+6+3@6+B.I+b+$@:+}+4@C+V+U.5@P+6@",
"Z._+Z.f+.+j+7@b L.8@#@,+$+:+9@.@0@a@}@q+@@'+b@b@c@X.1 c+d@e@e@X.",
"Z.Z.Z.<+9@|+M+M+R ,+f@g@h@>@i@j@a+u+k@$@]+!+9@~@~@l@Y+#+9@1+m@n@",
"Z.Z.Z.o@~@~@[+[@S.8@>+p@q@r@s@t@'+&+]+c@u@v@w@t@h@'+i@x@Z.Z.$+]+",
"Z.Z.Z.y@1+z@;+~@#+=+~+A@B@C@~@1@j@2+9@]+F.1@,+D@E@x@8@'+Z.Z.9@b@",
"Z.Z.Z.g+F@G@-+H@I@,+C@J@q@v@!+D@t@p@h@C@K@A@h@~+L@I@b+Y.Z.Z.Z.Z.",
"Z.w@Z.M@2 =@N.t l@*+t@g@p@p@,+,+w+g@g@g@N@O@v@P@;+c@X.Q@Z.Z.Z.Z.",
"Z.v@_+4 @ e@r+g+]+R@h@>+'+,+*+8@E@g@,+w+D@N@S@T@Y+U@n@u@Z.Z.Z.Z.",
"Z.Z.Z.Q+U@V@*@M@#+x@~+A@W@!+q@C@P@K@!+X@S@Y@Y@A@#@%@F.r@Z.Z.Z.Z.",
"Z@/+`@ #.#+#5.& = - ; > , ' ) ! ~ $ { ] ] ^ / ( _ : < @###|+2 2 ",
"d+D+i $#%#[+&#V.`@7 *#=#-#C+;#=#f z.U ; - ; >#m 4@a m ( r ,#d@n@",
";#'#)#!#~#~#A M {#3@{.]#^#~#B /#(#k+_#b.(#g.x x :#h.W k.O <#[## ",
"! }#|#7+n+1#@.*._.=.[. .+.@.2#3#:.&. .4#3.8+5#;...=.6#'.X 7#c 8#",
"~.;#0.{#;.-.Y +.3#9#` Z Z <. .+.@.@.*.<.Y ;.>.1.0#Y 4#B P a#u.) ",
"b#: )#c#k+d#4+c.d.e.f.V g.3.h.i.j.C 3.k.k.g.3.W 4#^.x e#O ~#;#f#",
"g#h#>#<@,@i#x.j#v.w.0 x.o 0 y.z.v.A.m 9 g g j 8 B.c k#l#m#C.+@E.",
"G.n#N.o#= p#O.K.M.7.] N.7.O.P.Q.Q.{ ^ Q.] R.S.T.U.V.P.q#o.r#Y.m@"};
