/* XPM */
static char * smoke_xpm[] = {
"32 32 173 2",
"  	c None",
". 	c #000000",
"+ 	c #020202",
"@ 	c #111111",
"# 	c #1E1E1E",
"$ 	c #0D0D0D",
"% 	c #010101",
"& 	c #050505",
"* 	c #0C0C0C",
"= 	c #030303",
"- 	c #0E0E0E",
"; 	c #212121",
"> 	c #161616",
", 	c #060606",
"' 	c #090909",
") 	c #070707",
"! 	c #141414",
"~ 	c #131313",
"{ 	c #1B1B1B",
"] 	c #0A0A0A",
"^ 	c #0B0B0B",
"/ 	c #272727",
"( 	c #202020",
"_ 	c #080808",
": 	c #0F0F0F",
"< 	c #1F1F1F",
"[ 	c #252525",
"} 	c #191919",
"| 	c #232323",
"1 	c #2D2D2D",
"2 	c #181818",
"3 	c #171717",
"4 	c #242424",
"5 	c #323232",
"6 	c #1A1A1A",
"7 	c #313131",
"8 	c #515151",
"9 	c #4F4F4F",
"0 	c #3B3B3B",
"a 	c #343434",
"b 	c #393939",
"c 	c #434343",
"d 	c #333333",
"e 	c #464646",
"f 	c #474747",
"g 	c #3C3C3C",
"h 	c #353535",
"i 	c #1D1D1D",
"j 	c #292929",
"k 	c #2F2F2F",
"l 	c #3E3E3E",
"m 	c #585858",
"n 	c #7C7C7C",
"o 	c #7B7B7B",
"p 	c #6D6D6D",
"q 	c #6F6F6F",
"r 	c #696969",
"s 	c #6B6B6B",
"t 	c #616161",
"u 	c #606060",
"v 	c #636363",
"w 	c #5B5B5B",
"x 	c #535353",
"y 	c #4B4B4B",
"z 	c #454545",
"A 	c #484848",
"B 	c #4E4E4E",
"C 	c #545454",
"D 	c #404040",
"E 	c #565656",
"F 	c #686868",
"G 	c #858585",
"H 	c #818181",
"I 	c #888888",
"J 	c #787878",
"K 	c #5E5E5E",
"L 	c #626262",
"M 	c #656565",
"N 	c #767676",
"O 	c #737373",
"P 	c #717171",
"Q 	c #747474",
"R 	c #757575",
"S 	c #222222",
"T 	c #3A3A3A",
"U 	c #494949",
"V 	c #707070",
"W 	c #808080",
"X 	c #8A8A8A",
"Y 	c #525252",
"Z 	c #666666",
"` 	c #797979",
" .	c #777777",
"..	c #676767",
"+.	c #5C5C5C",
"@.	c #040404",
"#.	c #2E2E2E",
"$.	c #5A5A5A",
"%.	c #7F7F7F",
"&.	c #8E8E8E",
"*.	c #595959",
"=.	c #7D7D7D",
"-.	c #4C4C4C",
";.	c #383838",
">.	c #1C1C1C",
",.	c #989898",
"'.	c #9E9E9E",
").	c #929292",
"!.	c #555555",
"~.	c #505050",
"{.	c #4D4D4D",
"].	c #414141",
"^.	c #646464",
"/.	c #4A4A4A",
"(.	c #2A2A2A",
"_.	c #ABABAB",
":.	c #9D9D9D",
"<.	c #868686",
"[.	c #6A6A6A",
"}.	c #444444",
"|.	c #6E6E6E",
"1.	c #262626",
"2.	c #363636",
"3.	c #A5A5A5",
"4.	c #B1B1B1",
"5.	c #909090",
"6.	c #6C6C6C",
"7.	c #303030",
"8.	c #3D3D3D",
"9.	c #A7A7A7",
"0.	c #AFAFAF",
"a.	c #898989",
"b.	c #848484",
"c.	c #5F5F5F",
"d.	c #121212",
"e.	c #959595",
"f.	c #A1A1A1",
"g.	c #939393",
"h.	c #969696",
"i.	c #7A7A7A",
"j.	c #8C8C8C",
"k.	c #999999",
"l.	c #A8A8A8",
"m.	c #A6A6A6",
"n.	c #828282",
"o.	c #575757",
"p.	c #9F9F9F",
"q.	c #B4B4B4",
"r.	c #A9A9A9",
"s.	c #A4A4A4",
"t.	c #8B8B8B",
"u.	c #101010",
"v.	c #B3B3B3",
"w.	c #727272",
"x.	c #9B9B9B",
"y.	c #838383",
"z.	c #7E7E7E",
"A.	c #2B2B2B",
"B.	c #5D5D5D",
"C.	c #919191",
"D.	c #8D8D8D",
"E.	c #9C9C9C",
"F.	c #3F3F3F",
"G.	c #424242",
"H.	c #373737",
"I.	c #979797",
"J.	c #B7B7B7",
"K.	c #151515",
"L.	c #2C2C2C",
"M.	c #9A9A9A",
"N.	c #ACACAC",
"O.	c #B0B0B0",
"P.	c #A3A3A3",
". . . . + @ # $ + . . % % % & * & . . . = @ - + . . . . . . . . ",
". = & + . * ; > = . % , ' & ) ! ~ ) + + ) { ! = . % % . . . . . ",
"= ] ^ ' ' @ / ( _ = : < [ } @ | 1 { 2 3 < 1 ; ^ _ ^ : ] = % . . ",
"+ * : > { 4 5 | 2 6 7 8 9 0 a b c d e f g 7 ; > # [ h / $ % . . ",
". , : i j k 5 a l f m n o p q r s t u v w x y z A B C 1 ) . . . ",
". % ^ ; 5 a 0 D E w F G G H I J K L K M N O P Q R n K [ + . . . ",
"= . ) S a T U w V p v p n W X p Y u Z s ` `  .O ..+.e # * ^ + . ",
"* @.+ ~ #.T $.%.&.H v *...u m U Y L $.Q =.O J p -.k ;.7 1 1 $ + ",
"! * ^ >.d f P ,.'.).t E r !.~.A {.Y ].^.O P n P y g /.b 7 (._ . ",
"$ ~ 3 2 0 $.G _.:.<.w y Z [.m g 7 a / }.|.=.n ..y A A a 3 _ % . ",
"@.! 1.{ 2.R 3.4.5.o ..Y 6.o u #.{ (.7.U o G O K {.8.7.d # ^ + . ",
". ] ; 1.8.=.9.0.a.n r m s b.W c.f {.z }.N r -.f d j 5 ;.h 1.d.= ",
". & 3 d w %.e.f.N !.y {.N g.h.I o V x ].M C ~./.2.e ^.!.}.#.! = ",
"= - i 2...` i.j.|.}.~.|.k.l.m.h.n P z D v r n.o L ^.w g / @ + . ",
"= 2 ;.U ^.r u ^.6.o.o p.q.r.s.t.n ..A !.O a.X Q ^.{.(.# i _ % . ",
"% u.d *.[.+.y /.^.6.g.q.v.k.G W n o r J =.J u U ].1.2 4 # ) % . ",
". + 3 y w.M !.F %.=.x.9.y.6.n G G z.J I o v 2.1 k [ / h A.' % . ",
". . * D u K B.y.C.=.:.k.R D.E.z.R ..L =...u c F.G.b H.z 8.2 & . ",
". . * b 8 A !.I.5.|.W J G J.J.a.F L t F C Z *.z c 7 2.!.f ; ^ % ",
". % ^ j g }.t t.N F n N 6.J y.=.q P N V !.^.$.c g j #.A g K.& % ",
". % u.d z 8 q o s Q ` ..o.^.z.5.Q 8 B.6.u 6.F f ;.H.c e #.) . . ",
". % ~ ].u $.[.z.p |.N s r o z.J t y ~.w.V %.N m D -.o.m 2.* . . ",
". % @ F.m 8 B.y.t -.p J u E ~.*.^.m ~.B.V &.5.j.o F x y H.$ % . ",
". . ] L.z 2.z q U D G h.R 8 ;.z u !.5 0 Z M.N.O.x.q F.S K.= . . ",
". . + u.#.c Y E l U z.:.,.W Z G.b z a g E y.g.P.E.o G.u.% . . . ",
". . + * L.9 t ^.K L s W e.G 6.9 0 C 8 B.+.v M G e.z.D - + = % . ",
". . + @ d /.C ..q O n I x. .Y c e B.|.<.z...~.v Q Z 7.~ $ - ' , ",
". . . ! d #.L.g x ..J b.<.q ~.-./.B *.w.u T | (.#.1 < u.* d.~ ~ ",
". . ' # | 2 : : # 2.D l e *.w x ].1 k g (.2 * , & @ # K.) @.& ) ",
". = u.>.* @.+ . = ^ ^ ' ~ k d k { * ' * , = + . . _ 6 | 2 ' . % ",
". + ^ * + . . . . % . . = ] _ , = + . . . . . . . . ] # (.{ & . ",
". . + + . . . . . . . . . . . . . . . . . . . . . . . ' } >.) . "};
