/* XPM */
static char * tank_down_xpm[] = {
"32 32 882 2",
"  	c None",
". 	c #090E06",
"+ 	c #808A74",
"@ 	c #9CA393",
"# 	c #71776C",
"$ 	c #676C64",
"% 	c #848A80",
"& 	c #A2AF96",
"* 	c #9DB381",
"= 	c #121D03",
"- 	c #000000",
"; 	c #020201",
"> 	c #10140E",
", 	c #939491",
"' 	c #727D6B",
") 	c #58674F",
"! 	c #73776F",
"~ 	c #90948F",
"{ 	c #B5B9B3",
"] 	c #B6B8B5",
"^ 	c #121A0C",
"/ 	c #859374",
"( 	c #7F9369",
"_ 	c #526840",
": 	c #708759",
"< 	c #6B7E59",
"[ 	c #7F9B62",
"} 	c #86A85D",
"| 	c #0F1802",
"1 	c #181D16",
"2 	c #868C81",
"3 	c #5F6D57",
"4 	c #485A3E",
"5 	c #757E6F",
"6 	c #64705D",
"7 	c #929B8C",
"8 	c #A0A59C",
"9 	c #282E23",
"0 	c #6C775F",
"a 	c #6B7A5C",
"b 	c #596D47",
"c 	c #637651",
"d 	c #657657",
"e 	c #718C52",
"f 	c #7B9858",
"g 	c #0E1802",
"h 	c #010200",
"i 	c #141514",
"j 	c #646C5F",
"k 	c #53624A",
"l 	c #445839",
"m 	c #506047",
"n 	c #5F6A58",
"o 	c #747E6D",
"p 	c #747D6D",
"q 	c #4B4D47",
"r 	c #75875E",
"s 	c #80926B",
"t 	c #829077",
"u 	c #788868",
"v 	c #6D7F58",
"w 	c #8AA170",
"x 	c #9EA992",
"y 	c #13180C",
"z 	c #212917",
"A 	c #24281E",
"B 	c #1D1D1D",
"C 	c #232323",
"D 	c #212121",
"E 	c #1E201D",
"F 	c #1C1D1C",
"G 	c #181818",
"H 	c #161616",
"I 	c #141414",
"J 	c #0F0F0F",
"K 	c #313131",
"L 	c #797C77",
"M 	c #6A7563",
"N 	c #475C3C",
"O 	c #4F6144",
"P 	c #646E5E",
"Q 	c #828B7B",
"R 	c #65735C",
"S 	c #32332F",
"T 	c #687C4F",
"U 	c #788863",
"V 	c #757E6B",
"W 	c #7E906A",
"X 	c #74885C",
"Y 	c #94A087",
"Z 	c #A2A4A1",
"` 	c #6F6F6F",
" .	c #9D9E9A",
"..	c #8F9382",
"+.	c #849175",
"@.	c #848A7E",
"#.	c #80867A",
"$.	c #838B78",
"%.	c #868785",
"&.	c #828480",
"*.	c #7C7E7B",
"=.	c #6F7969",
"-.	c #7C8577",
";.	c #836D6A",
">.	c #88807F",
",.	c #717171",
"'.	c #4D4D4D",
").	c #696B68",
"!.	c #697163",
"~.	c #465A3C",
"{.	c #53644A",
"].	c #667060",
"^.	c #798472",
"/.	c #6A7663",
"(.	c #2F2F2F",
"_.	c #4B5B37",
":.	c #5A684A",
"<.	c #5F6D51",
"[.	c #899777",
"}.	c #7C8A6B",
"|.	c #9EA896",
"1.	c #A2A2A2",
"2.	c #636363",
"3.	c #C0453A",
"4.	c #D42E1F",
"5.	c #5F7A44",
"6.	c #70835C",
"7.	c #778469",
"8.	c #7B886C",
"9.	c #8D9684",
"0.	c #8E9689",
"a.	c #79876C",
"b.	c #647950",
"c.	c #777E72",
"d.	c #9E9486",
"e.	c #EB210E",
"f.	c #E1331E",
"g.	c #7F7E79",
"h.	c #474747",
"i.	c #474846",
"j.	c #50584A",
"k.	c #4E5B45",
"l.	c #56674D",
"m.	c #56664D",
"n.	c #67765F",
"o.	c #7B8376",
"p.	c #3E3E3E",
"q.	c #495737",
"r.	c #62714E",
"s.	c #5D6C4C",
"t.	c #849075",
"u.	c #6C795D",
"v.	c #98A090",
"w.	c #9D9E9D",
"x.	c #5F5F5F",
"y.	c #AE4536",
"z.	c #C73929",
"A.	c #778568",
"B.	c #6D706A",
"C.	c #6A7461",
"D.	c #6A755F",
"E.	c #808677",
"F.	c #859278",
"G.	c #849373",
"H.	c #7C7E6E",
"I.	c #BD482D",
"J.	c #B14D26",
"K.	c #72845B",
"L.	c #535353",
"M.	c #474845",
"N.	c #595F56",
"O.	c #4E5D46",
"P.	c #5F6C56",
"Q.	c #53614A",
"R.	c #75806E",
"S.	c #979995",
"T.	c #4B5144",
"U.	c #646A5C",
"V.	c #565F4C",
"W.	c #8A987A",
"X.	c #637353",
"Y.	c #828A7A",
"Z.	c #929391",
"`.	c #555555",
" +	c #555C50",
".+	c #868983",
"++	c #7B7C79",
"@+	c #656763",
"#+	c #4E514D",
"$+	c #494E45",
"%+	c #47503C",
"&+	c #434B3C",
"*+	c #383838",
"=+	c #545553",
"-+	c #6A7063",
";+	c #748360",
">+	c #656D5C",
",+	c #757A6F",
"'+	c #7C896D",
")+	c #575A54",
"!+	c #464D42",
"~+	c #586055",
"{+	c #505B49",
"]+	c #697561",
"^+	c #576451",
"/+	c #7C8178",
"(+	c #9B9C9A",
"_+	c #565656",
":+	c #4F5448",
"<+	c #53584E",
"[+	c #7D8873",
"}+	c #69735F",
"|+	c #7D8575",
"1+	c #8A8E88",
"2+	c #414141",
"3+	c #5D5D5D",
"4+	c #5E5E5E",
"5+	c #585957",
"6+	c #4E534B",
"7+	c #464C42",
"8+	c #4A5246",
"9+	c #43483F",
"0+	c #41443F",
"a+	c #3E413B",
"b+	c #393A38",
"c+	c #32382D",
"d+	c #3F443B",
"e+	c #535553",
"f+	c #5B5B5B",
"g+	c #696F62",
"h+	c #5C6355",
"i+	c #485043",
"j+	c #4A5147",
"k+	c #565B53",
"l+	c #616E59",
"m+	c #516049",
"n+	c #787D72",
"o+	c #A0A19E",
"p+	c #626262",
"q+	c #42453F",
"r+	c #515948",
"s+	c #60645D",
"t+	c #707F62",
"u+	c #677656",
"v+	c #88927F",
"w+	c #989A97",
"x+	c #4B4B4B",
"y+	c #575755",
"z+	c #42463E",
"A+	c #4B5047",
"B+	c #5B5E58",
"C+	c #525451",
"D+	c #4A4C4A",
"E+	c #5F605F",
"F+	c #6B6B6A",
"G+	c #6C6D6B",
"H+	c #585D55",
"I+	c #394032",
"J+	c #373D33",
"K+	c #5C5E5A",
"L+	c #6B7065",
"M+	c #6A6E66",
"N+	c #424540",
"O+	c #50514E",
"P+	c #5E655A",
"Q+	c #515F45",
"R+	c #6A7562",
"S+	c #9EA09E",
"T+	c #585858",
"U+	c #393B37",
"V+	c #505A44",
"W+	c #62665F",
"X+	c #657655",
"Y+	c #637252",
"Z+	c #828C7A",
"`+	c #9A9C99",
" @	c #5A5A5A",
".@	c #555554",
"+@	c #41473D",
"@@	c #585A56",
"#@	c #5C5D5A",
"$@	c #494B49",
"%@	c #61625F",
"&@	c #828380",
"*@	c #949592",
"=@	c #898B88",
"-@	c #656663",
";@	c #43493E",
">@	c #343A30",
",@	c #424441",
"'@	c #686867",
")@	c #434640",
"!@	c #50504E",
"~@	c #5A6353",
"{@	c #5B6651",
"]@	c #626541",
"^@	c #69745A",
"/@	c #888E85",
"(@	c #4E4E4E",
"_@	c #384136",
":@	c #586B3F",
"<@	c #5F6756",
"[@	c #5E6F4C",
"}@	c #5D7047",
"|@	c #949793",
"1@	c #434343",
"2@	c #393C37",
"3@	c #343B30",
"4@	c #484D44",
"5@	c #4B4C4A",
"6@	c #535451",
"7@	c #545653",
"8@	c #696A69",
"9@	c #969894",
"0@	c #A6A9A2",
"a@	c #A7A9A5",
"b@	c #8A8A8A",
"c@	c #6A6B68",
"d@	c #4D5448",
"e@	c #353B2F",
"f@	c #515550",
"g@	c #424A3D",
"h@	c #565755",
"i@	c #60645C",
"j@	c #62664C",
"k@	c #5E623C",
"l@	c #8A8A78",
"m@	c #464646",
"n@	c #364335",
"o@	c #4B5A40",
"p@	c #586251",
"q@	c #5D6A51",
"r@	c #5D6E4A",
"s@	c #7B896D",
"t@	c #969A94",
"u@	c #282828",
"v@	c #2D3329",
"w@	c #30372B",
"x@	c #4C4F4A",
"y@	c #434441",
"z@	c #4F4F4E",
"A@	c #252823",
"B@	c #353B31",
"C@	c #43493D",
"D@	c #41483C",
"E@	c #6E736A",
"F@	c #BCBEBA",
"G@	c #9FA19E",
"H@	c #868686",
"I@	c #686B66",
"J@	c #3E443A",
"K@	c #4D4F4B",
"L@	c #3A4835",
"M@	c #4A5348",
"N@	c #575D4E",
"O@	c #5D634B",
"P@	c #61634F",
"Q@	c #949489",
"R@	c #9D9F9B",
"S@	c #4F4F4F",
"T@	c #404840",
"U@	c #516549",
"V@	c #5E6E57",
"W@	c #616D57",
"X@	c #5E6D4D",
"Y@	c #8C9B7F",
"Z@	c #ACAFAA",
"`@	c #313231",
" #	c #2E3528",
".#	c #343930",
"+#	c #4F514E",
"@#	c #454743",
"##	c #494948",
"$#	c #2B3325",
"%#	c #62675F",
"&#	c #747770",
"*#	c #6E7668",
"=#	c #9BA096",
"-#	c #C2C5BE",
";#	c #A5A8A2",
">#	c #868783",
",#	c #3D4637",
"'#	c #424C3D",
")#	c #4F5E49",
"!#	c #5D6957",
"~#	c #6B6D5F",
"{#	c #62644F",
"]#	c #8D907C",
"^#	c #B9B9B7",
"/#	c #515151",
"(#	c #444444",
"_#	c #586D4F",
":#	c #5F7258",
"<#	c #627057",
"[#	c #5B6A4A",
"}#	c #909E83",
"|#	c #AEB4A8",
"1#	c #343533",
"2#	c #2B3227",
"3#	c #353733",
"4#	c #4E4E4D",
"5#	c #4B4D49",
"6#	c #363635",
"7#	c #262E20",
"8#	c #B4B7B1",
"9#	c #CDD0CA",
"0#	c #ACB3A5",
"a#	c #9CA596",
"b#	c #A3AA9D",
"c#	c #A3A69F",
"d#	c #999998",
"e#	c #8E928B",
"f#	c #38452F",
"g#	c #555754",
"h#	c #454941",
"i#	c #55634F",
"j#	c #64715D",
"k#	c #656B60",
"l#	c #595D50",
"m#	c #989B89",
"n#	c #A4A7A1",
"o#	c #58674E",
"p#	c #485A43",
"q#	c #576748",
"r#	c #5A654F",
"s#	c #98A48D",
"t#	c #ACAFA8",
"u#	c #353734",
"v#	c #293024",
"w#	c #30312F",
"x#	c #484847",
"y#	c #373836",
"z#	c #BFC3BC",
"A#	c #A0A898",
"B#	c #909989",
"C#	c #848E7B",
"D#	c #B2B7AC",
"E#	c #B8B9B7",
"F#	c #9E9E9E",
"G#	c #868A82",
"H#	c #303D27",
"I#	c #454644",
"J#	c #454A3F",
"K#	c #586152",
"L#	c #576550",
"M#	c #626656",
"N#	c #585C56",
"O#	c #A6A798",
"P#	c #BBBBBA",
"Q#	c #3C3C3C",
"R#	c #4A4B49",
"S#	c #424C37",
"T#	c #424E40",
"U#	c #526642",
"V#	c #5D6C4E",
"W#	c #9FA797",
"X#	c #A1A49F",
"Y#	c #3F403E",
"Z#	c #2C3227",
"`#	c #292928",
" $	c #3E3F3E",
".$	c #51524F",
"+$	c #4C4F48",
"@$	c #7B7F76",
"#$	c #808A78",
"$$	c #757E6D",
"%$	c #7F8677",
"&$	c #808977",
"*$	c #B5B9B1",
"=$	c #9A9D97",
"-$	c #979895",
";$	c #696D66",
">$	c #343C2E",
",$	c #3C3D3B",
"'$	c #4B4F47",
")$	c #4E5249",
"!$	c #555F4F",
"~$	c #57614F",
"{$	c #5C6450",
"]$	c #898F7C",
"^$	c #B4B4B1",
"/$	c #565951",
"($	c #343C2C",
"_$	c #3A4534",
":$	c #51693E",
"<$	c #5F6C54",
"[$	c #A5AAA3",
"}$	c #91948F",
"|$	c #515251",
"1$	c #31362D",
"2$	c #1F231A",
"3$	c #333630",
"4$	c #595C56",
"5$	c #676B63",
"6$	c #B2B5AE",
"7$	c #D4D6D2",
"8$	c #B8BBB3",
"9$	c #A9AEA4",
"0$	c #ACAFA7",
"a$	c #A1A59E",
"b$	c #A1A39D",
"c$	c #999B97",
"d$	c #4C5149",
"e$	c #3A4035",
"f$	c #53584D",
"g$	c #4F5548",
"h$	c #56604F",
"i$	c #566151",
"j$	c #66675A",
"k$	c #898D78",
"l$	c #96988C",
"m$	c #494949",
"n$	c #5C6255",
"o$	c #363E2F",
"p$	c #3A452F",
"q$	c #505F44",
"r$	c #565C53",
"s$	c #A7AAA5",
"t$	c #8D918A",
"u$	c #555655",
"v$	c #3C403A",
"w$	c #2F3928",
"x$	c #2B3127",
"y$	c #A6A9A3",
"z$	c #9BA095",
"A$	c #9A9F96",
"B$	c #9C9E9A",
"C$	c #A8ABA5",
"D$	c #666C5F",
"E$	c #4A5443",
"F$	c #61665E",
"G$	c #4C4E47",
"H$	c #575B50",
"I$	c #515849",
"J$	c #586050",
"K$	c #535C4E",
"L$	c #575A51",
"M$	c #7D846D",
"N$	c #717B67",
"O$	c #4C4C4C",
"P$	c #5D6651",
"Q$	c #3D4A2E",
"R$	c #3F4836",
"S$	c #465D43",
"T$	c #4D574B",
"U$	c #B0B1AF",
"V$	c #868D84",
"W$	c #31342F",
"X$	c #2C3625",
"Y$	c #2C3029",
"Z$	c #575757",
"`$	c #70736D",
" %	c #7C7E7A",
".%	c #757872",
"+%	c #8E948A",
"@%	c #717A6A",
"#%	c #404939",
"$%	c #686D64",
"%%	c #777875",
"&%	c #484D45",
"*%	c #4E5747",
"=%	c #505848",
"-%	c #565D4E",
";%	c #4D6047",
">%	c #4C5847",
",%	c #80866E",
"'%	c #747D67",
")%	c #525F41",
"!%	c #3C4B2D",
"~%	c #41513E",
"{%	c #3E5B39",
"]%	c #575F56",
"^%	c #AFB1AF",
"/%	c #898F88",
"(%	c #666666",
"_%	c #363834",
":%	c #484E43",
"<%	c #333731",
"[%	c #282927",
"}%	c #3A3A3A",
"|%	c #595A59",
"1%	c #60645E",
"2%	c #535850",
"3%	c #4C5444",
"4%	c #434C3D",
"5%	c #63675F",
"6%	c #7C7D7A",
"7%	c #474745",
"8%	c #3F423D",
"9%	c #495241",
"0%	c #485041",
"a%	c #505D48",
"b%	c #48603B",
"c%	c #58604A",
"d%	c #94988A",
"e%	c #6F7C68",
"f%	c #4C5541",
"g%	c #3A4331",
"h%	c #445E3D",
"i%	c #465C43",
"j%	c #60655E",
"k%	c #979D97",
"l%	c #888A88",
"m%	c #91948D",
"n%	c #7A7C78",
"o%	c #82897D",
"p%	c #70756D",
"q%	c #2D2E2D",
"r%	c #363636",
"s%	c #6E6F6E",
"t%	c #6F706E",
"u%	c #9A9F92",
"v%	c #96A18D",
"w%	c #97A08E",
"x%	c #7B7C7A",
"y%	c #484A45",
"z%	c #4C5148",
"A%	c #42473E",
"B%	c #4D5F40",
"C%	c #495D40",
"D%	c #5E645C",
"E%	c #889186",
"F%	c #6F7B69",
"G%	c #49513E",
"H%	c #3C4439",
"I%	c #446038",
"J%	c #54654F",
"K%	c #5A6359",
"L%	c #798078",
"M%	c #838682",
"N%	c #838383",
"O%	c #8F9786",
"P%	c #86947A",
"Q%	c #92A085",
"R%	c #97A38E",
"S%	c #76826E",
"T%	c #727571",
"U%	c #A5A6A5",
"V%	c #AEB3A9",
"W%	c #ABB79A",
"X%	c #879478",
"Y%	c #B6BDAA",
"Z%	c #97A487",
"`%	c #B2B2B0",
" &	c #474945",
".&	c #43473C",
"+&	c #465D3C",
"@&	c #4F604A",
"#&	c #5B6359",
"$&	c #757D73",
"%&	c #626F5B",
"&&	c #595D53",
"*&	c #414839",
"=&	c #4A564A",
"-&	c #516845",
";&	c #5B694E",
">&	c #4C5849",
",&	c #7D867B",
"'&	c #8D908C",
")&	c #888D81",
"!&	c #98AC82",
"~&	c #909F84",
"{&	c #FFFFFF",
"]&	c #AEB7A3",
"^&	c #383A38",
"/&	c #A2A99B",
"(&	c #A5BB89",
"_&	c #9FB486",
":&	c #D7DBD0",
"<&	c #AFB0A3",
"[&	c #4A5547",
"}&	c #536550",
"|&	c #5B6358",
"1&	c #525B4F",
"2&	c #727C6E",
"3&	c #687362",
"4&	c #4D5246",
"5&	c #474D40",
"6&	c #5D6656",
"7&	c #4D663D",
"8&	c #506741",
"9&	c #4F6243",
"0&	c #747D69",
"a&	c #9FA09E",
"b&	c #8D9F76",
"c&	c #B5CB98",
"d&	c #B0BF9F",
"e&	c #C5CDBB",
"f&	c #647154",
"g&	c #393B38",
"h&	c #6D726B",
"i&	c #CCD6BE",
"j&	c #CADAB7",
"k&	c #E4E9DF",
"l&	c #ADB493",
"m&	c #55564D",
"n&	c #454841",
"o&	c #4C5D4A",
"p&	c #505E4F",
"q&	c #566254",
"r&	c #6A7366",
"s&	c #798274",
"t&	c #4E5446",
"u&	c #4E5A40",
"v&	c #5A634E",
"w&	c #496144",
"x&	c #516C44",
"y&	c #495446",
"z&	c #67715C",
"A&	c #949890",
"B&	c #A0A49B",
"C&	c #C3CABA",
"D&	c #BAC0B0",
"E&	c #C2C7B9",
"F&	c #CED3C8",
"G&	c #818778",
"H&	c #51534E",
"I&	c #373936",
"J&	c #6A6F67",
"K&	c #B0B4AC",
"L&	c #B3B3B3",
"M&	c #C4CBBE",
"N&	c #C8D2BB",
"O&	c #D7DECF",
"P&	c #BCBDAA",
"Q&	c #A0A288",
"R&	c #55574E",
"S&	c #474C44",
"T&	c #4F5649",
"U&	c #4A5F49",
"V&	c #4F634D",
"W&	c #535D4F",
"X&	c #636B5D",
"Y&	c #788174",
"Z&	c #4A543E",
"`&	c #4D6430",
" *	c #484C42",
".*	c #425140",
"+*	c #4F6D48",
"@*	c #55614B",
"#*	c #6F7A63",
"$*	c #8F948C",
"%*	c #1C1C1C",
"&*	c #373737",
"**	c #595959",
"=*	c #404040",
"-*	c #272727",
";*	c #373935",
">*	c #6C7267",
",*	c #B1B5AE",
"'*	c #1A1A1A",
")*	c #3D3D3D",
"!*	c #242321",
"~*	c #050504",
"{*	c #414440",
"]*	c #434C3E",
"^*	c #41513F",
"/*	c #4E664B",
"(*	c #5B6356",
"_*	c #626D5B",
":*	c #62705A",
"<*	c #3D4237",
"[*	c #475A2F",
"}*	c #3F473C",
"|*	c #3A5238",
"1*	c #4D594B",
"2*	c #5B654F",
"3*	c #7F8C70",
"4*	c #191919",
"5*	c #303030",
"6*	c #525252",
"7*	c #353535",
"8*	c #444743",
"9*	c #6C7468",
"0*	c #B2B6B0",
"a*	c #171717",
"b*	c #343434",
"c*	c #090909",
"d*	c #3E4638",
"e*	c #3F4A39",
"f*	c #545F51",
"g*	c #5E6658",
"h*	c #516247",
"i*	c #6E7968",
"j*	c #42512E",
"k*	c #424A41",
"l*	c #474B45",
"m*	c #5B6552",
"n*	c #879775",
"o*	c #979F8C",
"p*	c #171A13",
"q*	c #464845",
"r*	c #A1A69D",
"s*	c #222222",
"t*	c #2D2D2D",
"u*	c #5C5C5C",
"v*	c #0E0E0E",
"w*	c #5B5B5A",
"x*	c #464B41",
"y*	c #414D3D",
"z*	c #444C41",
"A*	c #52594F",
"B*	c #5C6A54",
"C*	c #8F928B",
"D*	c #444641",
"E*	c #333333",
"F*	c #4C4D4B",
"G*	c #888B85",
"H*	c #98A18C",
"I*	c #A0AA94",
"J*	c #1C1F17",
"K*	c #3C3E3B",
"L*	c #1C201A",
"M*	c #333930",
"N*	c #5C6754",
"O*	c #798372",
"P*	c #1D211A",
"Q*	c #3A3A39",
"R*	c #575856",
"S*	c #696D65",
"T*	c #4A4E47",
"U*	c #484C46",
"V*	c #444942",
"W*	c #52584E",
"X*	c #7C8278",
"Y*	c #9EA09C",
"Z*	c #A4A4A3",
"`*	c #AAADA7",
" =	c #686A65",
".=	c #7F817C",
"+=	c #959692",
"@=	c #A0A39D",
"#=	c #BCCAAA",
"$=	c #BFCAAF",
"%=	c #151515",
"&=	c #4D4E4C",
"*=	c #343C2F",
"==	c #333E2B",
"-=	c #45503E",
";=	c #515F47",
">=	c #54634B",
",=	c #586350",
"'=	c #444A41",
")=	c #474947",
"!=	c #454545",
"~=	c #202020",
"{=	c #A0A29E",
"]=	c #787878",
"^=	c #90918F",
"/=	c #999E93",
"(=	c #BBBDB8",
"_=	c #82847F",
":=	c #94A085",
"<=	c #869572",
"[=	c #899975",
"}=	c #8C9C78",
"|=	c #95A67E",
"1=	c #B9C5AA",
"2=	c #CCCEC8",
"3=	c #111111",
"4=	c #292929",
"5=	c #242424",
"6=	c #2A2A2A",
"7=	c #333432",
"8=	c #30362D",
"9=	c #30392A",
"0=	c #565E51",
"a=	c #727A6C",
"b=	c #666F60",
"c=	c #586151",
"d=	c #434840",
"e=	c #2E2F2D",
"f=	c #2E2E2E",
"g=	c #1E1E1E",
"h=	c #848484",
"i=	c #A0A0A0",
"j=	c #929292",
"k=	c #979797",
"l=	c #9B9B9B",
"m=	c #A7A7A7",
"n=	c #B9BAB6",
"o=	c #C6C7C5",
". + @ # $ % & * = - - - - - - - - - - - - - - ; > , ' ) ! ~ { ] ",
"^ / ( _ : < [ } | - - - - - - - - - - - - - - - 1 2 3 4 5 6 7 8 ",
"9 0 a b c d e f g h - - - - - - - - - - - - - - i j k l m n o p ",
"q r s t u v w x y z A B B C D D D C E F G H I J K L M N O P Q R ",
"S T U V W X Y Z `  ...+.@.#.$.%.&.*.=.-.%.;.>.,.'.).!.~.{.].^./.",
"(._.:.<.[.}.|.1.2.3.4.5.6.7.8.9.0.a.b.c.d.e.f.g.h.i.j.k.l.m.n.o.",
"p.q.r.s.t.u.v.w.x.y.z.A./ B.C.D.E.F.G./ H.I.J.K.L.M.N.O.P.Q.R.S.",
"'.T.U.V.W.X.Y.Z.`. +.+++@+#+$+%+&+*+=+-+;+>+,+'+)+!+~+{+]+^+/+(+",
"_+:+:+<+[+}+|+1+2+3+4+5+6+7+8+9+0+a+b+c+d+e+f+g+h+i+j+k+l+m+n+o+",
"p+q+r+s+t+u+v+w+x+L.y+z+A+B+C+D+E+F+G+H+I+J+K+L+M+N+O+P+) Q+R+S+",
"T+U+V+W+X+Y+Z+`+ @.@d++@@@#@#@$@%@&@*@=@-@;@>@,@'@)@!@~@{@]@^@/@",
"(@_@:@<@[@}@R.|@1@2@3@4@5@6@ @7@8@9@0@a@b@c@d@e@f@g@h@i@j@k@l@/@",
"m@n@o@p@q@r@s@t@u@v@w@x@y@z@A@B@C@D@E@F@G@H@I@J@K@L@M@N@O@P@Q@R@",
"S@T@U@V@W@X@Y@Z@`@ #.#+#@###$#%#&#*#=#-#;#Z.>#,#7@'#)#!#~#{#]#^#",
"/#(#_#:#<#[#}#|#1#2#3#4#5#6#7#8#9#0#a#b#c#d#e#f#g#h#i#j#k#l#m#n#",
"(#1@o#p#q#r#s#t#u#v#w#x#6@y#U+z#A#B#C#D#E#F#G#H#I#J#K#L#M#N#O#P#",
"Q#R#S#T#U#V#W#X#Y#Z#`# $.$+$@$#$$$%$&$*$=$-$;$>$,$'$)$!$~${$]$^$",
"2+/$($_$:$<$[$}$|$1$2$3$4$5$6$7$8$9$0$a$b$c$d$e$0+f$g$h$i$j$k$l$",
"m$n$o$p$q$r$s$t$u$v$w$x$1@,.-$y$z$A$e#B$C$D$E$F$G$H$I$J$K$L$M$N$",
"O$P$Q$R$S$T$U$V$E+3+W$X$Y$Q#Z$I@`$ %.%+%@%#%$%%%&%*%=%-%;%>%,%'%",
"1@)%!%~%{%]%^%/%'.(%x+_%:%<%[%}%|%1%2%3%4%5%6%7%8%9%0%a%b%c%d%e%",
"m$f%g%h%i%j%k%l%(%F#m%n%o%p%q%r%@+s%t%0@u%v%w%x%y%z%A%B%C%D%E%F%",
"K+G%H%I%J%K%L%M%N%O%P%Q%R%S%}%m@T%U%V%W%X%Y%Z%`%E+ &.&+&@&#&$&%&",
"&&*&=&-&;&>&,&'&)&!&~&{&{&]&r+^&`$/&(&_&{&{&:&<&3+8%[&}&|&1&2&3&",
"4&5&6&7&8&9&0&a&b&c&d&{&{&e&f&g&h&A#i&j&{&{&k&l&m&n&r$o&p&q&r&s&",
"t&u&v&w&x&y&z&A&B&C&D&E&F&G&H&I&J&K&L&M&N&O&P&Q&R&S&T&U&V&W&X&Y&",
"Z&`& *.*+*@*#*$*%*&*x+'.**=*-*;*>*,*u@'*)*(@!*~*m@{*]*^*/*(*_*:*",
"<*[*}*|*1*2*3*d#4*5*6* @ @7*'*8*9*0*B a*S@T+b*c*}%d*e*|*f*g*h*i*",
"1@j*T@k*l*m*n*o*p*K (@x.***+'*q*!.r*s*t*u*3+(#v*w*x*y*z*A*a%B*C*",
"r%D*E*(#F*G*H*I*J**+x+L.u$K*L*M*N*O*P*Q*z@(@'.H R*S*T*U*V*W*X*Y*",
"Z*`* =.=+=@=#=$=%=*+=*h.&=*===-=;=>=,='=)=!=(@~=a&{=E+]=H@^=/=(=",
"_=:=<=[=}=|=1=2=3=4=5=6=7=8=9=0=a=b=c=d=e=f=1@g=h=i=j=k=l=m=n=o="};
