/* XPM */
static char * tank_up_xpm[] = {
"32 32 882 2",
"  	c None",
". 	c #C6C7C5",
"+ 	c #B9BAB6",
"@ 	c #A7A7A7",
"# 	c #9B9B9B",
"$ 	c #979797",
"% 	c #929292",
"& 	c #A0A0A0",
"* 	c #848484",
"= 	c #1E1E1E",
"- 	c #434343",
"; 	c #2E2E2E",
"> 	c #2E2F2D",
", 	c #434840",
"' 	c #586151",
") 	c #666F60",
"! 	c #727A6C",
"~ 	c #565E51",
"{ 	c #30392A",
"] 	c #30362D",
"^ 	c #333432",
"/ 	c #2A2A2A",
"( 	c #242424",
"_ 	c #292929",
": 	c #111111",
"< 	c #CCCEC8",
"[ 	c #B9C5AA",
"} 	c #95A67E",
"| 	c #8C9C78",
"1 	c #899975",
"2 	c #869572",
"3 	c #94A085",
"4 	c #82847F",
"5 	c #BBBDB8",
"6 	c #999E93",
"7 	c #90918F",
"8 	c #868686",
"9 	c #787878",
"0 	c #5F605F",
"a 	c #A0A29E",
"b 	c #9FA09E",
"c 	c #202020",
"d 	c #4E4E4E",
"e 	c #454545",
"f 	c #474947",
"g 	c #444A41",
"h 	c #586350",
"i 	c #54634B",
"j 	c #515F47",
"k 	c #45503E",
"l 	c #333E2B",
"m 	c #343C2F",
"n 	c #4D4E4C",
"o 	c #474747",
"p 	c #404040",
"q 	c #383838",
"r 	c #151515",
"s 	c #BFCAAF",
"t 	c #BCCAAA",
"u 	c #A0A39D",
"v 	c #959692",
"w 	c #7F817C",
"x 	c #686A65",
"y 	c #AAADA7",
"z 	c #A4A4A3",
"A 	c #9EA09C",
"B 	c #7C8278",
"C 	c #52584E",
"D 	c #444942",
"E 	c #484C46",
"F 	c #4A4E47",
"G 	c #696D65",
"H 	c #575856",
"I 	c #161616",
"J 	c #4D4D4D",
"K 	c #4F4F4E",
"L 	c #3A3A39",
"M 	c #1D211A",
"N 	c #798372",
"O 	c #5C6754",
"P 	c #333930",
"Q 	c #1C201A",
"R 	c #3C3E3B",
"S 	c #555655",
"T 	c #535353",
"U 	c #4B4B4B",
"V 	c #1C1F17",
"W 	c #A0AA94",
"X 	c #98A18C",
"Y 	c #888B85",
"Z 	c #4C4D4B",
"` 	c #444444",
" .	c #333333",
"..	c #444641",
"+.	c #363636",
"@.	c #8F928B",
"#.	c #5C6A54",
"$.	c #505D48",
"%.	c #52594F",
"&.	c #444C41",
"*.	c #414D3D",
"=.	c #464B41",
"-.	c #5B5B5A",
";.	c #0E0E0E",
">.	c #5D5D5D",
",.	c #5C5C5C",
"'.	c #2D2D2D",
").	c #222222",
"!.	c #A1A69D",
"~.	c #697163",
"{.	c #464845",
"].	c #1A1A1A",
"^.	c #595959",
"/.	c #5F5F5F",
"(.	c #313131",
"_.	c #171A13",
":.	c #979F8C",
"<.	c #879775",
"[.	c #5B6552",
"}.	c #474B45",
"|.	c #424A41",
"1.	c #404840",
"2.	c #42512E",
"3.	c #6E7968",
"4.	c #516247",
"5.	c #5E6658",
"6.	c #545F51",
"7.	c #3A5238",
"8.	c #3F4A39",
"9.	c #3E4638",
"0.	c #3A3A3A",
"a.	c #090909",
"b.	c #343434",
"c.	c #585858",
"d.	c #4F4F4F",
"e.	c #171717",
"f.	c #1D1D1D",
"g.	c #B2B6B0",
"h.	c #6C7468",
"i.	c #444743",
"j.	c #353535",
"k.	c #5A5A5A",
"l.	c #525252",
"m.	c #303030",
"n.	c #191919",
"o.	c #999998",
"p.	c #7F8C70",
"q.	c #5B654F",
"r.	c #4D594B",
"s.	c #3F473C",
"t.	c #475A2F",
"u.	c #3D4237",
"v.	c #62705A",
"w.	c #626D5B",
"x.	c #5B6356",
"y.	c #4E664B",
"z.	c #41513F",
"A.	c #434C3E",
"B.	c #414440",
"C.	c #464646",
"D.	c #050504",
"E.	c #242321",
"F.	c #3D3D3D",
"G.	c #282828",
"H.	c #B1B5AE",
"I.	c #6C7267",
"J.	c #373935",
"K.	c #272727",
"L.	c #373737",
"M.	c #1C1C1C",
"N.	c #8F948C",
"O.	c #6F7A63",
"P.	c #55614B",
"Q.	c #4F6D48",
"R.	c #425140",
"S.	c #484C42",
"T.	c #4D6430",
"U.	c #4A543E",
"V.	c #788174",
"W.	c #636B5D",
"X.	c #535D4F",
"Y.	c #4F634D",
"Z.	c #4A5F49",
"`.	c #4F5649",
" +	c #474C44",
".+	c #55574E",
"++	c #A0A288",
"@+	c #BCBDAA",
"#+	c #D7DECF",
"$+	c #C8D2BB",
"%+	c #C4CBBE",
"&+	c #B3B3B3",
"*+	c #B0B4AC",
"=+	c #6A6F67",
"-+	c #373936",
";+	c #51534E",
">+	c #818778",
",+	c #CED3C8",
"'+	c #C2C7B9",
")+	c #BAC0B0",
"!+	c #C3CABA",
"~+	c #A0A49B",
"{+	c #949890",
"]+	c #67715C",
"^+	c #495446",
"/+	c #516C44",
"(+	c #496144",
"_+	c #5A634E",
":+	c #4E5A40",
"<+	c #4E5446",
"[+	c #798274",
"}+	c #6A7366",
"|+	c #566254",
"1+	c #505E4F",
"2+	c #4C5D4A",
"3+	c #565C53",
"4+	c #454841",
"5+	c #55564D",
"6+	c #ADB493",
"7+	c #E4E9DF",
"8+	c #FFFFFF",
"9+	c #CADAB7",
"0+	c #CCD6BE",
"a+	c #A0A898",
"b+	c #6D726B",
"c+	c #393B38",
"d+	c #647154",
"e+	c #C5CDBB",
"f+	c #B0BF9F",
"g+	c #B5CB98",
"h+	c #8D9F76",
"i+	c #747D69",
"j+	c #4F6243",
"k+	c #506741",
"l+	c #4D663D",
"m+	c #5D6656",
"n+	c #474D40",
"o+	c #4D5246",
"p+	c #687362",
"q+	c #727C6E",
"r+	c #525B4F",
"s+	c #5B6358",
"t+	c #536550",
"u+	c #4A5547",
"v+	c #3F423D",
"w+	c #AFB0A3",
"x+	c #D7DBD0",
"y+	c #9FB486",
"z+	c #A5BB89",
"A+	c #A2A99B",
"B+	c #70736D",
"C+	c #383A38",
"D+	c #515948",
"E+	c #AEB7A3",
"F+	c #909F84",
"G+	c #98AC82",
"H+	c #888D81",
"I+	c #8D908C",
"J+	c #7D867B",
"K+	c #4C5849",
"L+	c #5B694E",
"M+	c #516845",
"N+	c #4A564A",
"O+	c #414839",
"P+	c #595D53",
"Q+	c #626F5B",
"R+	c #757D73",
"S+	c #5B6359",
"T+	c #4F604A",
"U+	c #465D3C",
"V+	c #43473C",
"W+	c #474945",
"X+	c #B2B2B0",
"Y+	c #97A487",
"Z+	c #B6BDAA",
"`+	c #879478",
" @	c #ABB79A",
".@	c #AEB3A9",
"+@	c #A5A6A5",
"@@	c #727571",
"#@	c #76826E",
"$@	c #97A38E",
"%@	c #92A085",
"&@	c #86947A",
"*@	c #8F9786",
"=@	c #838383",
"-@	c #838682",
";@	c #798078",
">@	c #5A6359",
",@	c #54654F",
"'@	c #446038",
")@	c #3C4439",
"!@	c #49513E",
"~@	c #5C5E5A",
"{@	c #6F7B69",
"]@	c #889186",
"^@	c #5E645C",
"/@	c #495D40",
"(@	c #4D5F40",
"_@	c #42473E",
":@	c #4C5148",
"<@	c #484A45",
"[@	c #7B7C7A",
"}@	c #97A08E",
"|@	c #96A18D",
"1@	c #9A9F92",
"2@	c #A6A9A2",
"3@	c #6F706E",
"4@	c #6E6F6E",
"5@	c #656763",
"6@	c #2D2E2D",
"7@	c #70756D",
"8@	c #82897D",
"9@	c #7A7C78",
"0@	c #91948D",
"a@	c #9E9E9E",
"b@	c #666666",
"c@	c #888A88",
"d@	c #979D97",
"e@	c #60655E",
"f@	c #465C43",
"g@	c #445E3D",
"h@	c #3A4331",
"i@	c #4C5541",
"j@	c #494949",
"k@	c #6F7C68",
"l@	c #94988A",
"m@	c #58604A",
"n@	c #48603B",
"o@	c #485041",
"p@	c #495241",
"q@	c #474745",
"r@	c #7C7D7A",
"s@	c #63675F",
"t@	c #434C3D",
"u@	c #4C5444",
"v@	c #535850",
"w@	c #60645E",
"x@	c #595A59",
"y@	c #282927",
"z@	c #333731",
"A@	c #484E43",
"B@	c #363834",
"C@	c #898F88",
"D@	c #AFB1AF",
"E@	c #575F56",
"F@	c #3E5B39",
"G@	c #41513E",
"H@	c #3C4B2D",
"I@	c #525F41",
"J@	c #747D67",
"K@	c #80866E",
"L@	c #4C5847",
"M@	c #4D6047",
"N@	c #565D4E",
"O@	c #505848",
"P@	c #4E5747",
"Q@	c #484D45",
"R@	c #777875",
"S@	c #686D64",
"T@	c #404939",
"U@	c #717A6A",
"V@	c #8E948A",
"W@	c #757872",
"X@	c #7C7E7A",
"Y@	c #686B66",
"Z@	c #575757",
"`@	c #3C3C3C",
" #	c #2C3029",
".#	c #2C3625",
"+#	c #31342F",
"@#	c #868D84",
"##	c #B0B1AF",
"$#	c #4D574B",
"%#	c #465D43",
"&#	c #3F4836",
"*#	c #3D4A2E",
"=#	c #5D6651",
"-#	c #4C4C4C",
";#	c #717B67",
">#	c #7D846D",
",#	c #575A51",
"'#	c #535C4E",
")#	c #586050",
"!#	c #515849",
"~#	c #575B50",
"{#	c #4C4E47",
"]#	c #61665E",
"^#	c #4A5443",
"/#	c #666C5F",
"(#	c #A8ABA5",
"_#	c #9C9E9A",
":#	c #8E928B",
"<#	c #9A9F96",
"[#	c #9BA095",
"}#	c #A6A9A3",
"|#	c #979895",
"1#	c #717171",
"2#	c #2B3127",
"3#	c #2F3928",
"4#	c #3C403A",
"5#	c #8D918A",
"6#	c #A7AAA5",
"7#	c #505F44",
"8#	c #3A452F",
"9#	c #363E2F",
"0#	c #5C6255",
"a#	c #96988C",
"b#	c #898D78",
"c#	c #66675A",
"d#	c #566151",
"e#	c #56604F",
"f#	c #4F5548",
"g#	c #53584D",
"h#	c #41443F",
"i#	c #3A4035",
"j#	c #4C5149",
"k#	c #999B97",
"l#	c #A1A39D",
"m#	c #A1A59E",
"n#	c #ACAFA7",
"o#	c #A9AEA4",
"p#	c #B8BBB3",
"q#	c #D4D6D2",
"r#	c #B2B5AE",
"s#	c #676B63",
"t#	c #595C56",
"u#	c #333630",
"v#	c #1F231A",
"w#	c #31362D",
"x#	c #515251",
"y#	c #91948F",
"z#	c #A5AAA3",
"A#	c #5F6C54",
"B#	c #51693E",
"C#	c #3A4534",
"D#	c #343C2C",
"E#	c #565951",
"F#	c #414141",
"G#	c #B4B4B1",
"H#	c #898F7C",
"I#	c #5C6450",
"J#	c #57614F",
"K#	c #555F4F",
"L#	c #4E5249",
"M#	c #4B4F47",
"N#	c #3C3D3B",
"O#	c #343C2E",
"P#	c #696D66",
"Q#	c #9A9D97",
"R#	c #B5B9B1",
"S#	c #808977",
"T#	c #7F8677",
"U#	c #757E6D",
"V#	c #808A78",
"W#	c #7B7F76",
"X#	c #4C4F48",
"Y#	c #51524F",
"Z#	c #3E3F3E",
"`#	c #292928",
" $	c #2C3227",
".$	c #3F403E",
"+$	c #A1A49F",
"@$	c #9FA797",
"#$	c #5D6C4E",
"$$	c #526642",
"%$	c #424E40",
"&$	c #424C37",
"*$	c #4A4B49",
"=$	c #BBBBBA",
"-$	c #A6A798",
";$	c #585C56",
">$	c #626656",
",$	c #576550",
"'$	c #586152",
")$	c #454A3F",
"!$	c #454644",
"~$	c #303D27",
"{$	c #868A82",
"]$	c #B8B9B7",
"^$	c #B2B7AC",
"/$	c #848E7B",
"($	c #909989",
"_$	c #BFC3BC",
":$	c #393B37",
"<$	c #373836",
"[$	c #535451",
"}$	c #484847",
"|$	c #30312F",
"1$	c #293024",
"2$	c #353734",
"3$	c #ACAFA8",
"4$	c #98A48D",
"5$	c #5A654F",
"6$	c #576748",
"7$	c #485A43",
"8$	c #58674E",
"9$	c #A4A7A1",
"0$	c #989B89",
"a$	c #595D50",
"b$	c #656B60",
"c$	c #64715D",
"d$	c #55634F",
"e$	c #454941",
"f$	c #555754",
"g$	c #38452F",
"h$	c #A3A69F",
"i$	c #A3AA9D",
"j$	c #9CA596",
"k$	c #ACB3A5",
"l$	c #CDD0CA",
"m$	c #B4B7B1",
"n$	c #262E20",
"o$	c #363635",
"p$	c #4B4D49",
"q$	c #4E4E4D",
"r$	c #353733",
"s$	c #2B3227",
"t$	c #343533",
"u$	c #AEB4A8",
"v$	c #909E83",
"w$	c #5B6A4A",
"x$	c #627057",
"y$	c #5F7258",
"z$	c #586D4F",
"A$	c #515151",
"B$	c #B9B9B7",
"C$	c #8D907C",
"D$	c #62644F",
"E$	c #6B6D5F",
"F$	c #5D6957",
"G$	c #4F5E49",
"H$	c #424C3D",
"I$	c #545653",
"J$	c #3D4637",
"K$	c #868783",
"L$	c #929391",
"M$	c #A5A8A2",
"N$	c #C2C5BE",
"O$	c #9BA096",
"P$	c #6E7668",
"Q$	c #747770",
"R$	c #62675F",
"S$	c #2B3325",
"T$	c #494948",
"U$	c #454743",
"V$	c #4F514E",
"W$	c #343930",
"X$	c #2E3528",
"Y$	c #313231",
"Z$	c #ACAFAA",
"`$	c #8C9B7F",
" %	c #5E6D4D",
".%	c #616D57",
"+%	c #5E6E57",
"@%	c #516549",
"#%	c #9D9F9B",
"$%	c #949489",
"%%	c #61634F",
"&%	c #5D634B",
"*%	c #575D4E",
"=%	c #4A5348",
"-%	c #3A4835",
";%	c #4D4F4B",
">%	c #3E443A",
",%	c #9FA19E",
"'%	c #BCBEBA",
")%	c #6E736A",
"!%	c #41483C",
"~%	c #43493D",
"{%	c #353B31",
"]%	c #252823",
"^%	c #434441",
"/%	c #4C4F4A",
"(%	c #30372B",
"_%	c #2D3329",
":%	c #969A94",
"<%	c #7B896D",
"[%	c #5D6E4A",
"}%	c #5D6A51",
"|%	c #586251",
"1%	c #4B5A40",
"2%	c #364335",
"3%	c #888E85",
"4%	c #8A8A78",
"5%	c #5E623C",
"6%	c #62664C",
"7%	c #60645C",
"8%	c #565755",
"9%	c #424A3D",
"0%	c #515550",
"a%	c #353B2F",
"b%	c #4D5448",
"c%	c #6A6B68",
"d%	c #8A8A8A",
"e%	c #A7A9A5",
"f%	c #969894",
"g%	c #696A69",
"h%	c #4B4C4A",
"i%	c #484D44",
"j%	c #343B30",
"k%	c #393C37",
"l%	c #949793",
"m%	c #75806E",
"n%	c #5D7047",
"o%	c #5E6F4C",
"p%	c #5F6756",
"q%	c #586B3F",
"r%	c #384136",
"s%	c #69745A",
"t%	c #626541",
"u%	c #5B6651",
"v%	c #5A6353",
"w%	c #50504E",
"x%	c #434640",
"y%	c #686867",
"z%	c #424441",
"A%	c #343A30",
"B%	c #43493E",
"C%	c #656663",
"D%	c #898B88",
"E%	c #949592",
"F%	c #828380",
"G%	c #61625F",
"H%	c #494B49",
"I%	c #5C5D5A",
"J%	c #585A56",
"K%	c #41473D",
"L%	c #3F443B",
"M%	c #555554",
"N%	c #9A9C99",
"O%	c #828C7A",
"P%	c #637252",
"Q%	c #657655",
"R%	c #62665F",
"S%	c #505A44",
"T%	c #9EA09E",
"U%	c #6A7562",
"V%	c #515F45",
"W%	c #58674F",
"X%	c #5E655A",
"Y%	c #50514E",
"Z%	c #424540",
"`%	c #6A6E66",
" &	c #6B7065",
".&	c #373D33",
"+&	c #394032",
"@&	c #585D55",
"#&	c #6C6D6B",
"$&	c #6B6B6A",
"%&	c #4A4C4A",
"&&	c #525451",
"*&	c #5B5E58",
"=&	c #4B5047",
"-&	c #42463E",
";&	c #575755",
">&	c #989A97",
",&	c #88927F",
"'&	c #677656",
")&	c #707F62",
"!&	c #60645D",
"~&	c #42453F",
"{&	c #626262",
"]&	c #A0A19E",
"^&	c #787D72",
"/&	c #516049",
"(&	c #616E59",
"_&	c #565B53",
":&	c #4A5147",
"<&	c #485043",
"[&	c #5C6355",
"}&	c #696F62",
"|&	c #5B5B5B",
"1&	c #535553",
"2&	c #32382D",
"3&	c #393A38",
"4&	c #3E413B",
"5&	c #43483F",
"6&	c #4A5246",
"7&	c #464C42",
"8&	c #4E534B",
"9&	c #585957",
"0&	c #5E5E5E",
"a&	c #8A8E88",
"b&	c #7D8575",
"c&	c #69735F",
"d&	c #7D8873",
"e&	c #53584E",
"f&	c #4F5448",
"g&	c #565656",
"h&	c #9B9C9A",
"i&	c #7C8178",
"j&	c #576451",
"k&	c #697561",
"l&	c #505B49",
"m&	c #586055",
"n&	c #464D42",
"o&	c #575A54",
"p&	c #7C896D",
"q&	c #757A6F",
"r&	c #656D5C",
"s&	c #748360",
"t&	c #6A7063",
"u&	c #545553",
"v&	c #434B3C",
"w&	c #47503C",
"x&	c #494E45",
"y&	c #4E514D",
"z&	c #7B7C79",
"A&	c #868983",
"B&	c #555C50",
"C&	c #555555",
"D&	c #828A7A",
"E&	c #637353",
"F&	c #8A987A",
"G&	c #565F4C",
"H&	c #646A5C",
"I&	c #4B5144",
"J&	c #979995",
"K&	c #53614A",
"L&	c #5F6C56",
"M&	c #4E5D46",
"N&	c #595F56",
"O&	c #474845",
"P&	c #72845B",
"Q&	c #B14D26",
"R&	c #BD482D",
"S&	c #7C7E6E",
"T&	c #859374",
"U&	c #849373",
"V&	c #859278",
"W&	c #808677",
"X&	c #6A755F",
"Y&	c #6A7461",
"Z&	c #6D706A",
"`&	c #778568",
" *	c #C73929",
".*	c #AE4536",
"+*	c #9D9E9D",
"@*	c #98A090",
"#*	c #6C795D",
"$*	c #849075",
"%*	c #5D6C4C",
"&*	c #62714E",
"**	c #495737",
"=*	c #3E3E3E",
"-*	c #7B8376",
";*	c #67765F",
">*	c #56664D",
",*	c #56674D",
"'*	c #4E5B45",
")*	c #50584A",
"!*	c #474846",
"~*	c #7F7E79",
"{*	c #E1331E",
"]*	c #EB210E",
"^*	c #9E9486",
"/*	c #777E72",
"(*	c #647950",
"_*	c #79876C",
":*	c #8E9689",
"<*	c #8D9684",
"[*	c #7B886C",
"}*	c #778469",
"|*	c #70835C",
"1*	c #5F7A44",
"2*	c #D42E1F",
"3*	c #C0453A",
"4*	c #636363",
"5*	c #A2A2A2",
"6*	c #9EA896",
"7*	c #7C8A6B",
"8*	c #899777",
"9*	c #5F6D51",
"0*	c #5A684A",
"a*	c #4B5B37",
"b*	c #2F2F2F",
"c*	c #6A7663",
"d*	c #798472",
"e*	c #667060",
"f*	c #53644A",
"g*	c #465A3C",
"h*	c #696B68",
"i*	c #88807F",
"j*	c #836D6A",
"k*	c #868785",
"l*	c #7C8577",
"m*	c #6F7969",
"n*	c #7C7E7B",
"o*	c #828480",
"p*	c #838B78",
"q*	c #80867A",
"r*	c #848A7E",
"s*	c #849175",
"t*	c #8F9382",
"u*	c #9D9E9A",
"v*	c #6F6F6F",
"w*	c #A2A4A1",
"x*	c #94A087",
"y*	c #74885C",
"z*	c #7E906A",
"A*	c #757E6B",
"B*	c #788863",
"C*	c #687C4F",
"D*	c #32332F",
"E*	c #65735C",
"F*	c #828B7B",
"G*	c #646E5E",
"H*	c #4F6144",
"I*	c #475C3C",
"J*	c #6A7563",
"K*	c #797C77",
"L*	c #0F0F0F",
"M*	c #141414",
"N*	c #181818",
"O*	c #1C1D1C",
"P*	c #1E201D",
"Q*	c #232323",
"R*	c #212121",
"S*	c #24281E",
"T*	c #212917",
"U*	c #13180C",
"V*	c #9EA992",
"W*	c #8AA170",
"X*	c #6D7F58",
"Y*	c #788868",
"Z*	c #829077",
"`*	c #80926B",
" =	c #75875E",
".=	c #4B4D47",
"+=	c #747D6D",
"@=	c #747E6D",
"#=	c #5F6A58",
"$=	c #506047",
"%=	c #445839",
"&=	c #53624A",
"*=	c #646C5F",
"==	c #141514",
"-=	c #000000",
";=	c #010200",
">=	c #0E1802",
",=	c #7B9858",
"'=	c #718C52",
")=	c #657657",
"!=	c #637651",
"~=	c #596D47",
"{=	c #6B7A5C",
"]=	c #6C775F",
"^=	c #282E23",
"/=	c #A0A59C",
"(=	c #929B8C",
"_=	c #64705D",
":=	c #757E6F",
"<=	c #485A3E",
"[=	c #5F6D57",
"}=	c #868C81",
"|=	c #181D16",
"1=	c #0F1802",
"2=	c #86A85D",
"3=	c #7F9B62",
"4=	c #6B7E59",
"5=	c #708759",
"6=	c #526840",
"7=	c #7F9369",
"8=	c #121A0C",
"9=	c #B6B8B5",
"0=	c #B5B9B3",
"a=	c #90948F",
"b=	c #73776F",
"c=	c #727D6B",
"d=	c #939491",
"e=	c #10140E",
"f=	c #020201",
"g=	c #121D03",
"h=	c #9DB381",
"i=	c #A2AF96",
"j=	c #848A80",
"k=	c #676C64",
"l=	c #71776C",
"m=	c #9CA393",
"n=	c #808A74",
"o=	c #090E06",
". + @ # $ % & * = - ; > , ' ) ! ~ { ] ^ / ( _ : < [ } | 1 2 3 4 ",
"5 6 7 8 9 0 a b c d e f g h i j k l m n o p q r s t u v w x y z ",
"A B C D E F G H I J d K L M N O P Q R S T U q V W X Y Z `  ...+.",
"@.#.$.%.&.*.=.-.;.` >.,.'.).!.~.{.].q ^./.d (._.:.<.[.}.|.1.2.- ",
"3.4.5.6.7.8.9.0.a.b.c.d.e.f.g.h.i.].j.k.k.l.m.n.o.p.q.r.7.s.t.u.",
"v.w.x.y.z.A.B.C.D.E.d F.].G.H.I.J.K.p ^.J U L.M.N.O.P.Q.R.S.T.U.",
"V.W.X.Y.Z.`. +.+++@+#+$+%+&+*+=+-+;+>+,+'+)+!+~+{+]+^+/+(+_+:+<+",
"[+}+|+1+2+3+4+5+6+7+8+8+9+0+a+b+c+d+e+8+8+f+g+h+b i+j+k+l+m+n+o+",
"p+q+r+s+t+u+v+>.w+x+8+8+y+z+A+B+C+D+E+8+8+F+G+H+I+J+K+L+M+N+O+P+",
"Q+R+S+T+U+V+W+0 X+Y+Z+`+ @.@+@@@C.0.#@$@%@&@*@=@-@;@>@,@'@)@!@~@",
"{@]@^@/@(@_@:@<@[@}@|@1@2@3@4@5@+.6@7@8@9@0@a@b@c@d@e@f@g@h@i@j@",
"k@l@m@n@$.o@p@v+q@r@s@t@u@v@w@x@0.y@z@A@B@U b@J C@D@E@F@G@H@I@- ",
"J@K@L@M@N@O@P@Q@R@S@T@U@V@W@X@B+Y@Z@`@ #.#+#>.0 @###$#%#&#*#=#-#",
";#>#,#'#)#!#~#{#]#^#/#(#_#:#<#[#}#|#1#- 2#3#4#S 5#6#3+7#8#9#0#j@",
"a#b#c#d#e#f#g#h#i#j#k#l#m#n#o#p#q#r#s#t#u#v#w#x#y#z#A#B#C#D#E#F#",
"G#H#I#J#K#L#M#N#O#P#|#Q#R#S#T#U#V#W#X#Y#Z#`# $.$+$@$#$$$%$&$*$`@",
"=$-$;$>$,$'$)$!$~${$a@]$^$/$($a+_$:$<$[$}$|$1$2$3$4$5$6$7$8$- ` ",
"9$0$a$b$c$d$e$f$g$:#o.h$i$j$k$l$m$n$o$p$q$r$s$t$u$v$w$x$y$z$` A$",
"B$C$D$E$F$G$H$I$J$K$L$M$N$O$P$Q$R$S$T$U$V$W$X$Y$Z$`$ %.%+%@%1.d.",
"#%$%%%&%*%=%-%;%>%Y@8 ,%'%)%!%~%{%]%K ^%/%(%_%G.:%<%[%}%|%1%2%C.",
"3%4%5%6%7%8%9%0%a%b%c%d%e%2@f%g%I$k.[$h%i%j%k%- l%m%n%o%p%q%r%d ",
"3%s%t%u%v%w%x%y%z%A%B%C%D%E%F%G%H%I%I%J%K%L%M%k.N%O%P%Q%R%S%:$c.",
"T%U%V%W%X%Y%Z%`% &~@.&+&@&#&$&0 %&&&*&=&-&;&T U >&,&'&)&!&D+~&{&",
"]&^&/&(&_&:&<&[&}&|&1&L%2&3&4&h#5&6&7&8&9&0&>.F#a&b&c&d&e&f&f&g&",
"h&i&j&k&l&m&n&o&p&q&r&s&t&u&q v&w&x&y&5@z&A&B&C&L$D&E&F&G&H&I&J ",
"J&m%K&L&M&N&O&T P&Q&R&S&T&U&V&W&X&Y&Z&T&`& *.*/.+*@*#*$*%*&***=*",
"-*;*>*,*'*)*!*o ~*{*]*^*/*(*_*:*<*[*}*|*1*2*3*4*5*6*7*8*9*0*a*b*",
"c*d*e*f*g*~.h*J 1#i*j*k*l*m*n*o*k*p*q*r*s*t*u*v*w*x*y*z*A*B*C*D*",
"E*F*G*H*I*J*K*(.L*M*I N*O*P*Q*R*R*R*Q*f.f.S*T*U*V*W*X*Y*Z*`* =.=",
"+=@=#=$=%=&=*===-=-=-=-=-=-=-=-=-=-=-=-=-=-=;=>=,='=)=!=~={=]=^=",
"/=(=_=:=<=[=}=|=-=-=-=-=-=-=-=-=-=-=-=-=-=-=-=1=2=3=4=5=6=7=T&8=",
"9=0=a=b=W%c=d=e=f=-=-=-=-=-=-=-=-=-=-=-=-=-=-=g=h=i=j=k=l=m=n=o="};
