/* XPM */
static char * tank_right_xpm[] = {
"32 32 882 2",
"  	c None",
". 	c #B6B8B5",
"+ 	c #A0A59C",
"@ 	c #747D6D",
"# 	c #65735C",
"$ 	c #6A7663",
"% 	c #7B8376",
"& 	c #979995",
"* 	c #9B9C9A",
"= 	c #A0A19E",
"- 	c #9EA09E",
"; 	c #888E85",
"> 	c #9D9F9B",
", 	c #B9B9B7",
"' 	c #A4A7A1",
") 	c #BBBBBA",
"! 	c #B4B4B1",
"~ 	c #96988C",
"{ 	c #717B67",
"] 	c #747D67",
"^ 	c #6F7C68",
"/ 	c #6F7B69",
"( 	c #626F5B",
"_ 	c #687362",
": 	c #798274",
"< 	c #788174",
"[ 	c #62705A",
"} 	c #6E7968",
"| 	c #8F928B",
"1 	c #9EA09C",
"2 	c #BBBDB8",
"3 	c #C6C7C5",
"4 	c #B5B9B3",
"5 	c #929B8C",
"6 	c #747E6D",
"7 	c #828B7B",
"8 	c #798472",
"9 	c #67765F",
"0 	c #75806E",
"a 	c #7C8178",
"b 	c #787D72",
"c 	c #6A7562",
"d 	c #69745A",
"e 	c #8A8A78",
"f 	c #949489",
"g 	c #8D907C",
"h 	c #989B89",
"i 	c #A6A798",
"j 	c #898F7C",
"k 	c #898D78",
"l 	c #7D846D",
"m 	c #80866E",
"n 	c #94988A",
"o 	c #889186",
"p 	c #757D73",
"q 	c #727C6E",
"r 	c #6A7366",
"s 	c #636B5D",
"t 	c #626D5B",
"u 	c #516247",
"v 	c #5C6A54",
"w 	c #7C8278",
"x 	c #999E93",
"y 	c #B9BAB6",
"z 	c #90948F",
"A 	c #64705D",
"B 	c #5F6A58",
"C 	c #646E5E",
"D 	c #667060",
"E 	c #56664D",
"F 	c #53614A",
"G 	c #576451",
"H 	c #516049",
"I 	c #515F45",
"J 	c #626541",
"K 	c #5E623C",
"L 	c #61634F",
"M 	c #62644F",
"N 	c #595D50",
"O 	c #585C56",
"P 	c #5C6450",
"Q 	c #66675A",
"R 	c #575A51",
"S 	c #4C5847",
"T 	c #58604A",
"U 	c #5E645C",
"V 	c #5B6359",
"W 	c #525B4F",
"X 	c #566254",
"Y 	c #535D4F",
"Z 	c #5B6356",
"` 	c #5E6658",
" .	c #505D48",
"..	c #52584E",
"+.	c #90918F",
"@.	c #A7A7A7",
"#.	c #73776F",
"$.	c #757E6F",
"%.	c #506047",
"&.	c #4F6144",
"*.	c #53644A",
"=.	c #56674D",
"-.	c #5F6C56",
";.	c #697561",
">.	c #616E59",
",.	c #58674F",
"'.	c #5B6651",
").	c #62664C",
"!.	c #5D634B",
"~.	c #6B6D5F",
"{.	c #656B60",
"].	c #626656",
"^.	c #57614F",
"/.	c #566151",
"(.	c #535C4E",
"_.	c #4D6047",
":.	c #48603B",
"<.	c #495D40",
"[.	c #4F604A",
"}.	c #5B6358",
"|.	c #505E4F",
"1.	c #4F634D",
"2.	c #4E664B",
"3.	c #545F51",
"4.	c #52594F",
"5.	c #444942",
"6.	c #868686",
"7.	c #9B9B9B",
"8.	c #485A3E",
"9.	c #445839",
"0.	c #475C3C",
"a.	c #465A3C",
"b.	c #4E5B45",
"c.	c #4E5D46",
"d.	c #505B49",
"e.	c #565B53",
"f.	c #5E655A",
"g.	c #5A6353",
"h.	c #60645C",
"i.	c #575D4E",
"j.	c #5D6957",
"k.	c #64715D",
"l.	c #576550",
"m.	c #555F4F",
"n.	c #56604F",
"o.	c #586050",
"p.	c #565D4E",
"q.	c #4D5F40",
"r.	c #465D3C",
"s.	c #536550",
"t.	c #4C5D4A",
"u.	c #4A5F49",
"v.	c #41513F",
"w.	c #3A5238",
"x.	c #444C41",
"y.	c #484C46",
"z.	c #787878",
"A.	c #979797",
"B.	c #727D6B",
"C.	c #5F6D57",
"D.	c #53624A",
"E.	c #6A7563",
"F.	c #697163",
"G.	c #50584A",
"H.	c #595F56",
"I.	c #586055",
"J.	c #4A5147",
"K.	c #50514E",
"L.	c #50504E",
"M.	c #565755",
"N.	c #4A5348",
"O.	c #4F5E49",
"P.	c #55634F",
"Q.	c #586152",
"R.	c #4E5249",
"S.	c #4F5548",
"T.	c #515849",
"U.	c #505848",
"V.	c #485041",
"W.	c #42473E",
"X.	c #43473C",
"Y.	c #4A5547",
"Z.	c #565C53",
"`.	c #4F5649",
" +	c #434C3E",
".+	c #3F4A39",
"++	c #414D3D",
"@+	c #4A4E47",
"#+	c #5F605F",
"$+	c #929292",
"%+	c #939491",
"&+	c #868C81",
"*+	c #646C5F",
"=+	c #797C77",
"-+	c #696B68",
";+	c #474846",
">+	c #474845",
",+	c #464D42",
"'+	c #485043",
")+	c #424540",
"!+	c #434640",
"~+	c #424A3D",
"{+	c #3A4835",
"]+	c #424C3D",
"^+	c #454941",
"/+	c #454A3F",
"(+	c #4B4F47",
"_+	c #53584D",
":+	c #575B50",
"<+	c #4E5747",
"[+	c #495241",
"}+	c #4C5148",
"|+	c #474945",
"1+	c #3F423D",
"2+	c #454841",
"3+	c #474C44",
"4+	c #414440",
"5+	c #3E4638",
"6+	c #464B41",
"7+	c #696D65",
"8+	c #A0A29E",
"9+	c #A0A0A0",
"0+	c #10140E",
"a+	c #181D16",
"b+	c #141514",
"c+	c #313131",
"d+	c #4D4D4D",
"e+	c #474747",
"f+	c #535353",
"g+	c #575A54",
"h+	c #5C6355",
"i+	c #6A6E66",
"j+	c #686867",
"k+	c #515550",
"l+	c #4D4F4B",
"m+	c #545653",
"n+	c #555754",
"o+	c #454644",
"p+	c #3C3D3B",
"q+	c #41443F",
"r+	c #4C4E47",
"s+	c #484D45",
"t+	c #484A45",
"u+	c #5D5D5D",
"v+	c #55564D",
"w+	c #55574E",
"x+	c #464646",
"y+	c #3A3A3A",
"z+	c #5B5B5A",
"A+	c #575856",
"B+	c #9FA09E",
"C+	c #848484",
"D+	c #020201",
"E+	c #000000",
"F+	c #0F0F0F",
"G+	c #717171",
"H+	c #7F7E79",
"I+	c #72845B",
"J+	c #7C896D",
"K+	c #696F62",
"L+	c #6B7065",
"M+	c #424441",
"N+	c #353B2F",
"O+	c #3E443A",
"P+	c #3D4637",
"Q+	c #38452F",
"R+	c #303D27",
"S+	c #343C2E",
"T+	c #3A4035",
"U+	c #61665E",
"V+	c #777875",
"W+	c #474745",
"X+	c #7B7C7A",
"Y+	c #B2B2B0",
"Z+	c #AFB0A3",
"`+	c #ADB493",
" @	c #A0A288",
".@	c #050504",
"+@	c #090909",
"@@	c #0E0E0E",
"#@	c #161616",
"$@	c #202020",
"%@	c #1E1E1E",
"&@	c #141414",
"*@	c #88807F",
"=@	c #E1331E",
"-@	c #B14D26",
";@	c #757A6F",
">@	c #5B5B5B",
",@	c #5C5E5A",
"'@	c #343A30",
")@	c #4D5448",
"!@	c #686B66",
"~@	c #868783",
"{@	c #8E928B",
"]@	c #868A82",
"^@	c #696D66",
"/@	c #4C5149",
"(@	c #4A5443",
"_@	c #686D64",
":@	c #7C7D7A",
"<@	c #97A08E",
"[@	c #97A487",
"}@	c #D7DBD0",
"|@	c #E4E9DF",
"1@	c #BCBDAA",
"2@	c #242321",
"3@	c #343434",
"4@	c #444444",
"5@	c #4E4E4E",
"6@	c #434343",
"7@	c #836D6A",
"8@	c #EB210E",
"9@	c #BD482D",
"0@	c #656D5C",
"a@	c #535553",
"b@	c #373D33",
"c@	c #43493E",
"d@	c #6A6B68",
"e@	c #929391",
"f@	c #999998",
"g@	c #9E9E9E",
"h@	c #979895",
"i@	c #999B97",
"j@	c #666C5F",
"k@	c #404939",
"l@	c #63675F",
"m@	c #96A18D",
"n@	c #B6BDAA",
"o@	c #FFFFFF",
"p@	c #D7DECF",
"q@	c #585858",
"r@	c #454545",
"s@	c #2E2E2E",
"t@	c #181818",
"u@	c #868785",
"v@	c #9E9486",
"w@	c #7C7E6E",
"x@	c #748360",
"y@	c #3F443B",
"z@	c #394032",
"A@	c #656663",
"B@	c #8A8A8A",
"C@	c #9FA19E",
"D@	c #A5A8A2",
"E@	c #A3A69F",
"F@	c #B8B9B7",
"G@	c #9A9D97",
"H@	c #A1A39D",
"I@	c #A8ABA5",
"J@	c #717A6A",
"K@	c #434C3D",
"L@	c #9A9F92",
"M@	c #879478",
"N@	c #C8D2BB",
"O@	c #3D3D3D",
"P@	c #4F4F4F",
"Q@	c #5C5C5C",
"R@	c #4F4F4E",
"S@	c #474947",
"T@	c #2E2F2D",
"U@	c #1C1D1C",
"V@	c #7C8577",
"W@	c #777E72",
"X@	c #859374",
"Y@	c #6A7063",
"Z@	c #32382D",
"`@	c #585D55",
" #	c #898B88",
".#	c #A7A9A5",
"+#	c #BCBEBA",
"@#	c #C2C5BE",
"##	c #A3AA9D",
"$#	c #B2B7AC",
"%#	c #B5B9B1",
"&#	c #A1A59E",
"*#	c #9C9E9A",
"=#	c #8E948A",
"-#	c #4C5444",
";#	c #A6A9A2",
">#	c #ABB79A",
",#	c #9FB486",
"'#	c #CADAB7",
")#	c #C4CBBE",
"!#	c #1A1A1A",
"~#	c #171717",
"{#	c #2D2D2D",
"]#	c #3A3A39",
"^#	c #444A41",
"/#	c #434840",
"(#	c #1E201D",
"_#	c #6F7969",
":#	c #647950",
"<#	c #849373",
"[#	c #545553",
"}#	c #393A38",
"|#	c #6C6D6B",
"1#	c #949592",
"2#	c #6E736A",
"3#	c #9BA096",
"4#	c #9CA596",
"5#	c #848E7B",
"6#	c #808977",
"7#	c #ACAFA7",
"8#	c #757872",
"9#	c #535850",
"0#	c #6F706E",
"a#	c #AEB3A9",
"b#	c #A5BB89",
"c#	c #CCD6BE",
"d#	c #B3B3B3",
"e#	c #282828",
"f#	c #1D1D1D",
"g#	c #222222",
"h#	c #1D211A",
"i#	c #586350",
"j#	c #586151",
"k#	c #232323",
"l#	c #7C7E7B",
"m#	c #79876C",
"n#	c #859278",
"o#	c #383838",
"p#	c #3E413B",
"q#	c #6B6B6A",
"r#	c #828380",
"s#	c #969894",
"t#	c #41483C",
"u#	c #6E7668",
"v#	c #ACB3A5",
"w#	c #909989",
"x#	c #7F8677",
"y#	c #A9AEA4",
"z#	c #9A9F96",
"A#	c #7C7E7A",
"B#	c #60645E",
"C#	c #6E6F6E",
"D#	c #A5A6A5",
"E#	c #A2A99B",
"F#	c #A0A898",
"G#	c #B0B4AC",
"H#	c #B1B5AE",
"I#	c #B2B6B0",
"J#	c #A1A69D",
"K#	c #798372",
"L#	c #54634B",
"M#	c #666F60",
"N#	c #212121",
"O#	c #828480",
"P#	c #8E9689",
"Q#	c #808677",
"R#	c #434B3C",
"S#	c #61625F",
"T#	c #696A69",
"U#	c #43493D",
"V#	c #747770",
"W#	c #CDD0CA",
"X#	c #757E6D",
"Y#	c #B8BBB3",
"Z#	c #9BA095",
"`#	c #70736D",
" $	c #595A59",
".$	c #656763",
"+$	c #727571",
"@$	c #6D726B",
"#$	c #6A6F67",
"$$	c #6C7267",
"%$	c #6C7468",
"&$	c #5C6754",
"*$	c #515F47",
"=$	c #727A6C",
"-$	c #8D9684",
";$	c #6A755F",
">$	c #47503C",
",$	c #43483F",
"'$	c #4A4C4A",
")$	c #494B49",
"!$	c #353B31",
"~$	c #62675F",
"{$	c #B4B7B1",
"]$	c #BFC3BC",
"^$	c #808A78",
"/$	c #D4D6D2",
"($	c #A6A9A3",
"_$	c #363636",
":$	c #383A38",
"<$	c #393B38",
"[$	c #373936",
"}$	c #373935",
"|$	c #444743",
"1$	c #464845",
"2$	c #333930",
"3$	c #45503E",
"4$	c #565E51",
"5$	c #838B78",
"6$	c #7B886C",
"7$	c #6A7461",
"8$	c #494E45",
"9$	c #4A5246",
"0$	c #525451",
"a$	c #5C5D5A",
"b$	c #5A5A5A",
"c$	c #252823",
"d$	c #2B3325",
"e$	c #262E20",
"f$	c #393B37",
"g$	c #7B7F76",
"h$	c #B2B5AE",
"i$	c #575757",
"j$	c #282927",
"k$	c #2D2E2D",
"l$	c #515948",
"m$	c #647154",
"n$	c #51534E",
"o$	c #272727",
"p$	c #1C201A",
"q$	c #333E2B",
"r$	c #30392A",
"s$	c #80867A",
"t$	c #778469",
"u$	c #6D706A",
"v$	c #4E514D",
"w$	c #464C42",
"x$	c #5B5E58",
"y$	c #535451",
"z$	c #494948",
"A$	c #363635",
"B$	c #373836",
"C$	c #4C4F48",
"D$	c #676B63",
"E$	c #3C3C3C",
"F$	c #333731",
"G$	c #70756D",
"H$	c #76826E",
"I$	c #AEB7A3",
"J$	c #C5CDBB",
"K$	c #818778",
"L$	c #404040",
"M$	c #353535",
"N$	c #3C3E3B",
"O$	c #343C2F",
"P$	c #30362D",
"Q$	c #848A7E",
"R$	c #70835C",
"S$	c #4E534B",
"T$	c #4B5047",
"U$	c #585A56",
"V$	c #4B4C4A",
"W$	c #434441",
"X$	c #454743",
"Y$	c #4B4D49",
"Z$	c #51524F",
"`$	c #595C56",
" %	c #2C3029",
".%	c #484E43",
"+%	c #82897D",
"@%	c #97A38E",
"#%	c #CED3C8",
"$%	c #595959",
"%%	c #555655",
"&%	c #4D4E4C",
"*%	c #333432",
"=%	c #849175",
"-%	c #5F7A44",
";%	c #778568",
">%	c #7B7C79",
",%	c #585957",
"'%	c #42463E",
")%	c #41473D",
"!%	c #484D44",
"~%	c #4C4F4A",
"{%	c #4F514E",
"]%	c #4E4E4D",
"^%	c #484847",
"/%	c #3E3F3E",
"(%	c #333630",
"_%	c #2B3127",
":%	c #2C3625",
"<%	c #363834",
"[%	c #7A7C78",
"}%	c #92A085",
"|%	c #C2C7B9",
"1%	c #5F5F5F",
"2%	c #2A2A2A",
"3%	c #24281E",
"4%	c #8F9382",
"5%	c #D42E1F",
"6%	c #C73929",
"7%	c #868983",
"8%	c #5E5E5E",
"9%	c #575755",
"0%	c #343B30",
"a%	c #30372B",
"b%	c #343930",
"c%	c #353733",
"d%	c #30312F",
"e%	c #292928",
"f%	c #1F231A",
"g%	c #2F3928",
"h%	c #31342F",
"i%	c #4B4B4B",
"j%	c #91948D",
"k%	c #86947A",
"l%	c #909F84",
"m%	c #B0BF9F",
"n%	c #BAC0B0",
"o%	c #525252",
"p%	c #242424",
"q%	c #010200",
"r%	c #212917",
"s%	c #9D9E9A",
"t%	c #C0453A",
"u%	c #AE4536",
"v%	c #555C50",
"w%	c #555554",
"x%	c #393C37",
"y%	c #2D3329",
"z%	c #2E3528",
"A%	c #2B3227",
"B%	c #293024",
"C%	c #2C3227",
"D%	c #31362D",
"E%	c #3C403A",
"F%	c #666666",
"G%	c #8F9786",
"H%	c #98AC82",
"I%	c #B5CB98",
"J%	c #C3CABA",
"K%	c #373737",
"L%	c #303030",
"M%	c #292929",
"N%	c #121D03",
"O%	c #0F1802",
"P%	c #0E1802",
"Q%	c #13180C",
"R%	c #6F6F6F",
"S%	c #636363",
"T%	c #555555",
"U%	c #414141",
"V%	c #313231",
"W%	c #343533",
"X%	c #353734",
"Y%	c #3F403E",
"Z%	c #515251",
"`%	c #838383",
" &	c #888D81",
".&	c #8D9F76",
"+&	c #A0A49B",
"@&	c #1C1C1C",
"#&	c #191919",
"$&	c #171A13",
"%&	c #1C1F17",
"&&	c #151515",
"*&	c #111111",
"=&	c #9DB381",
"-&	c #86A85D",
";&	c #7B9858",
">&	c #9EA992",
",&	c #A2A4A1",
"'&	c #A2A2A2",
")&	c #9D9E9D",
"!&	c #8A8E88",
"~&	c #989A97",
"{&	c #9A9C99",
"]&	c #949793",
"^&	c #969A94",
"/&	c #ACAFAA",
"(&	c #AEB4A8",
"_&	c #ACAFA8",
":&	c #A1A49F",
"<&	c #91948F",
"[&	c #8D918A",
"}&	c #868D84",
"|&	c #898F88",
"1&	c #888A88",
"2&	c #838682",
"3&	c #8D908C",
"4&	c #949890",
"5&	c #8F948C",
"6&	c #979F8C",
"7&	c #A0AA94",
"8&	c #BFCAAF",
"9&	c #CCCEC8",
"0&	c #A2AF96",
"a&	c #7F9B62",
"b&	c #718C52",
"c&	c #8AA170",
"d&	c #94A087",
"e&	c #9EA896",
"f&	c #98A090",
"g&	c #828A7A",
"h&	c #7D8575",
"i&	c #88927F",
"j&	c #828C7A",
"k&	c #7B896D",
"l&	c #8C9B7F",
"m&	c #909E83",
"n&	c #98A48D",
"o&	c #9FA797",
"p&	c #A5AAA3",
"q&	c #A7AAA5",
"r&	c #B0B1AF",
"s&	c #AFB1AF",
"t&	c #979D97",
"u&	c #798078",
"v&	c #7D867B",
"w&	c #747D69",
"x&	c #67715C",
"y&	c #6F7A63",
"z&	c #7F8C70",
"A&	c #879775",
"B&	c #98A18C",
"C&	c #BCCAAA",
"D&	c #B9C5AA",
"E&	c #848A80",
"F&	c #6B7E59",
"G&	c #657657",
"H&	c #6D7F58",
"I&	c #74885C",
"J&	c #7C8A6B",
"K&	c #6C795D",
"L&	c #637353",
"M&	c #69735F",
"N&	c #677656",
"O&	c #637252",
"P&	c #5D7047",
"Q&	c #5D6E4A",
"R&	c #5E6D4D",
"S&	c #5B6A4A",
"T&	c #5A654F",
"U&	c #5D6C4E",
"V&	c #5F6C54",
"W&	c #4D574B",
"X&	c #575F56",
"Y&	c #60655E",
"Z&	c #5A6359",
"`&	c #4C5849",
" *	c #4F6243",
".*	c #495446",
"+*	c #55614B",
"@*	c #5B654F",
"#*	c #5B6552",
"$*	c #888B85",
"%*	c #A0A39D",
"&*	c #95A67E",
"**	c #676C64",
"=*	c #708759",
"-*	c #637651",
";*	c #788868",
">*	c #7E906A",
",*	c #899777",
"'*	c #849075",
")*	c #8A987A",
"!*	c #7D8873",
"~*	c #707F62",
"{*	c #657655",
"]*	c #5E6F4C",
"^*	c #5D6A51",
"/*	c #616D57",
"(*	c #627057",
"_*	c #576748",
":*	c #526642",
"<*	c #51693E",
"[*	c #505F44",
"}*	c #465D43",
"|*	c #3E5B39",
"1*	c #465C43",
"2*	c #54654F",
"3*	c #5B694E",
"4*	c #506741",
"5*	c #516C44",
"6*	c #4F6D48",
"7*	c #4D594B",
"8*	c #474B45",
"9*	c #4C4D4B",
"0*	c #959692",
"a*	c #8C9C78",
"b*	c #71776C",
"c*	c #526840",
"d*	c #596D47",
"e*	c #829077",
"f*	c #757E6B",
"g*	c #5F6D51",
"h*	c #5D6C4C",
"i*	c #565F4C",
"j*	c #53584E",
"k*	c #60645D",
"l*	c #62665F",
"m*	c #5F6756",
"n*	c #586251",
"o*	c #5E6E57",
"p*	c #5F7258",
"q*	c #485A43",
"r*	c #424E40",
"s*	c #3A4534",
"t*	c #3A452F",
"u*	c #3F4836",
"v*	c #41513E",
"w*	c #445E3D",
"x*	c #446038",
"y*	c #516845",
"z*	c #4D663D",
"A*	c #496144",
"B*	c #425140",
"C*	c #424A41",
"D*	c #7F817C",
"E*	c #899975",
"F*	c #9CA393",
"G*	c #7F9369",
"H*	c #6B7A5C",
"I*	c #80926B",
"J*	c #788863",
"K*	c #5A684A",
"L*	c #62714E",
"M*	c #646A5C",
"N*	c #4F5448",
"O*	c #505A44",
"P*	c #586B3F",
"Q*	c #4B5A40",
"R*	c #516549",
"S*	c #586D4F",
"T*	c #58674E",
"U*	c #424C37",
"V*	c #343C2C",
"W*	c #363E2F",
"X*	c #3D4A2E",
"Y*	c #3C4B2D",
"Z*	c #3A4331",
"`*	c #3C4439",
" =	c #4A564A",
".=	c #5D6656",
"+=	c #5A634E",
"@=	c #484C42",
"#=	c #3F473C",
"$=	c #404840",
"%=	c #333333",
"&=	c #686A65",
"*=	c #869572",
"==	c #808A74",
"-=	c #6C775F",
";=	c #75875E",
">=	c #687C4F",
",=	c #4B5B37",
"'=	c #495737",
")=	c #4B5144",
"!=	c #42453F",
"~=	c #384136",
"{=	c #364335",
"]=	c #4A4B49",
"^=	c #565951",
"/=	c #5C6255",
"(=	c #5D6651",
"_=	c #525F41",
":=	c #4C5541",
"<=	c #49513E",
"[=	c #414839",
"}=	c #474D40",
"|=	c #4E5A40",
"1=	c #4D6430",
"2=	c #475A2F",
"3=	c #42512E",
"4=	c #444641",
"5=	c #AAADA7",
"6=	c #94A085",
"7=	c #090E06",
"8=	c #121A0C",
"9=	c #282E23",
"0=	c #4B4D47",
"a=	c #32332F",
"b=	c #2F2F2F",
"c=	c #3E3E3E",
"d=	c #565656",
"e=	c #626262",
"f=	c #515151",
"g=	c #494949",
"h=	c #4C4C4C",
"i=	c #595D53",
"j=	c #4D5246",
"k=	c #4E5446",
"l=	c #4A543E",
"m=	c #3D4237",
"n=	c #A4A4A3",
"o=	c #82847F",
". + @ # $ % & * = - ; ; > , ' ) ! ~ { ] ^ / ( _ : < [ } | 1 2 3 ",
"4 5 6 7 8 9 0 a b c d e f g h i j k l m n o p q r s t u v w x y ",
"z A B C D E F G H I J K L M N O P Q R S T U V W X Y Z `  ...+.@.",
"#.$.%.&.*.=.-.;.>.,.'.).!.~.{.].^./.(._.:.<.[.}.|.1.2.3.4.5.6.7.",
",.8.9.0.a.b.c.d.e.f.g.h.i.j.k.l.m.n.o.p. .q.r.s.t.u.v.w.x.y.z.A.",
"B.C.D.E.F.G.H.I.J.K.L.M.N.O.P.Q.R.S.T.U.V.W.X.Y.Z.`. +.+++@+#+$+",
"%+&+*+=+-+;+>+,+'+)+!+~+{+]+^+/+(+_+:+<+[+}+|+1+2+3+4+5+6+7+8+9+",
"0+a+b+c+d+e+f+g+h+i+j+k+l+m+n+o+p+q+r+s+1+t+#+u+v+w+x+y+z+A+B+C+",
"D+E+E+F+G+H+I+J+K+L+M+N+O+P+Q+R+S+T+U+V+W+X+Y+Z+`+ @.@+@@@#@$@%@",
"E+E+E+&@*@=@-@;@>@,@'@)@!@~@{@]@^@/@(@_@:@<@[@}@|@1@2@3@4@d+5@6@",
"E+E+E+#@7@8@9@0@a@b@c@d@6.e@f@g@h@i@j@k@l@m@n@o@o@p@5@q@u+5@r@s@",
"E+E+E+t@u@v@w@x@y@z@A@B@C@D@E@F@G@H@I@J@K@L@M@o@o@N@O@P@Q@R@S@T@",
"E+E+E+U@V@W@X@Y@Z@`@ #.#+#@###$#%#&#*#=#-#;#>#,#'#)#!#~#{#]#^#/#",
"E+E+E+(#_#:#<#[#}#|#1#;#2#3#4#5#6#7#{@8#9#0#a#b#c#d#e#f#g#h#i#j#",
"E+E+E+k#l#m#n#o#p#q#r#s#t#u#v#w#x#y#z#A#B#C#D#E#F#G#H#I#J#K#L#M#",
"E+E+E+N#O#P#Q#R#q+#+S#T#U#V#W#F#X#Y#Z#`# $.$+$`#@$#$$$%$F.&$*$=$",
"E+E+E+N#u@-$;$>$,$'$)$m+!$~${$]$^$/$($!@y+_$x+:$<$[$}$|$1$2$3$4$",
"E+E+E+N#5$6$7$8$9$0$a$b$c$d$e$f$g$h$h@i$j$k$y+l$m$n$o$!#!#p$q$r$",
"E+E+E+k#s$t$u$v$w$x$a$y$R@z$A$B$C$D$G+E$F$G$H$I$J$K$L$M$o#N$O$P$",
"E+E+E+f#Q$R$X@.$S$T$U$V$W$X$Y$y$Z$`$6@ %.%+%@%o@o@#%$%b$$%%%&%*%",
"E+E+E+f#=%-%;%>%,%'%)%!%~%{%]%^%/%(%_%:%<%[%}%o@o@|%d+b$1%f+e+2%",
"E+E+E+3%4%5%6%7%8%9%y@0%a%b%c%d%e%f%g%h%i%j%k%l%m%n%i%o%5@i%L$p%",
"E+E+q%r%s%t%u%v%u+f+w%x%y%z%A%B%C%D%E%u+F%g@G%H%I%J%K%L%c+o#o#M%",
"N%O%P%Q%R%S%1%T%U%i%b$6@e#V%W%X%Y%Z%%%#+d+F%`% &.&+&@&#&$&%&&&*&",
"=&-&;&>&,&'&)&e@!&~&{&]&^&/&(&_&:&<&[&}&|&1&2&3&B+4&5&f@6&7&8&9&",
"0&a&b&c&d&e&f&g&h&i&j&0 k&l&m&n&o&p&q&r&s&t&u&v&w&x&y&z&A&B&C&D&",
"E&F&G&H&I&J&K&L&M&N&O&P&Q&R&S&T&U&V&Z.W&X&Y&Z&`& *.*+*@*#*$*%*&*",
"**=*-*;*>*,*'*)*!*~*{*]*^*/*(*_*:*<*[*}*|*1*2*3*4*5*6*7*8*9*0*a*",
"b*c*d*e*f*g*h*i*j*k*l*m*n*o*p*q*r*s*t*u*v*w*x*y*z*A*B*w.C*4@D*E*",
"F*G*H*I*J*K*L*M*N*l$O*P*Q*R*S*T*U*V*W*X*Y*Z*`* =.=+=@=#=$=%=&=*=",
"==X@-=;=>=,='=)=N*!=f$~={=$=4@6@]=^=/=(=_=:=<=[=}=|=1=2=3=4=5=6=",
"7=8=9=0=a=b=c=d+d=e=q@5@x+P@f=4@E$U%g=h=6@g=,@i=j=k=l=m=6@_$n=o="};
