/* XPM */
static char * tank_left_xpm[] = {
"32 32 882 2",
"  	c None",
". 	c #82847F",
"+ 	c #A4A4A3",
"@ 	c #363636",
"# 	c #434343",
"$ 	c #3D4237",
"% 	c #4A543E",
"& 	c #4E5446",
"* 	c #4D5246",
"= 	c #595D53",
"- 	c #5C5E5A",
"; 	c #494949",
"> 	c #4C4C4C",
", 	c #414141",
"' 	c #3C3C3C",
") 	c #444444",
"! 	c #515151",
"~ 	c #4F4F4F",
"{ 	c #464646",
"] 	c #4E4E4E",
"^ 	c #585858",
"/ 	c #626262",
"( 	c #565656",
"_ 	c #4D4D4D",
": 	c #3E3E3E",
"< 	c #2F2F2F",
"[ 	c #32332F",
"} 	c #4B4D47",
"| 	c #282E23",
"1 	c #121A0C",
"2 	c #090E06",
"3 	c #94A085",
"4 	c #AAADA7",
"5 	c #444641",
"6 	c #42512E",
"7 	c #475A2F",
"8 	c #4D6430",
"9 	c #4E5A40",
"0 	c #474D40",
"a 	c #414839",
"b 	c #49513E",
"c 	c #4C5541",
"d 	c #525F41",
"e 	c #5D6651",
"f 	c #5C6255",
"g 	c #565951",
"h 	c #4A4B49",
"i 	c #404840",
"j 	c #364335",
"k 	c #384136",
"l 	c #393B37",
"m 	c #42453F",
"n 	c #4F5448",
"o 	c #4B5144",
"p 	c #495737",
"q 	c #4B5B37",
"r 	c #687C4F",
"s 	c #75875E",
"t 	c #6C775F",
"u 	c #859374",
"v 	c #808A74",
"w 	c #869572",
"x 	c #686A65",
"y 	c #333333",
"z 	c #3F473C",
"A 	c #484C42",
"B 	c #5A634E",
"C 	c #5D6656",
"D 	c #4A564A",
"E 	c #3C4439",
"F 	c #3A4331",
"G 	c #3C4B2D",
"H 	c #3D4A2E",
"I 	c #363E2F",
"J 	c #343C2C",
"K 	c #424C37",
"L 	c #58674E",
"M 	c #586D4F",
"N 	c #516549",
"O 	c #4B5A40",
"P 	c #586B3F",
"Q 	c #505A44",
"R 	c #515948",
"S 	c #646A5C",
"T 	c #62714E",
"U 	c #5A684A",
"V 	c #788863",
"W 	c #80926B",
"X 	c #6B7A5C",
"Y 	c #7F9369",
"Z 	c #9CA393",
"` 	c #899975",
" .	c #7F817C",
"..	c #424A41",
"+.	c #3A5238",
"@.	c #425140",
"#.	c #496144",
"$.	c #4D663D",
"%.	c #516845",
"&.	c #446038",
"*.	c #445E3D",
"=.	c #41513E",
"-.	c #3F4836",
";.	c #3A452F",
">.	c #3A4534",
",.	c #424E40",
"'.	c #485A43",
").	c #5F7258",
"!.	c #5E6E57",
"~.	c #586251",
"{.	c #5F6756",
"].	c #62665F",
"^.	c #60645D",
"/.	c #53584E",
"(.	c #565F4C",
"_.	c #5D6C4C",
":.	c #5F6D51",
"<.	c #757E6B",
"[.	c #829077",
"}.	c #596D47",
"|.	c #526840",
"1.	c #71776C",
"2.	c #8C9C78",
"3.	c #959692",
"4.	c #4C4D4B",
"5.	c #474B45",
"6.	c #4D594B",
"7.	c #4F6D48",
"8.	c #516C44",
"9.	c #506741",
"0.	c #5B694E",
"a.	c #54654F",
"b.	c #465C43",
"c.	c #3E5B39",
"d.	c #465D43",
"e.	c #505F44",
"f.	c #51693E",
"g.	c #526642",
"h.	c #576748",
"i.	c #627057",
"j.	c #616D57",
"k.	c #5D6A51",
"l.	c #5E6F4C",
"m.	c #657655",
"n.	c #707F62",
"o.	c #7D8873",
"p.	c #8A987A",
"q.	c #849075",
"r.	c #899777",
"s.	c #7E906A",
"t.	c #788868",
"u.	c #637651",
"v.	c #708759",
"w.	c #676C64",
"x.	c #95A67E",
"y.	c #A0A39D",
"z.	c #888B85",
"A.	c #5B6552",
"B.	c #5B654F",
"C.	c #55614B",
"D.	c #495446",
"E.	c #4F6243",
"F.	c #4C5849",
"G.	c #5A6359",
"H.	c #60655E",
"I.	c #575F56",
"J.	c #4D574B",
"K.	c #565C53",
"L.	c #5F6C54",
"M.	c #5D6C4E",
"N.	c #5A654F",
"O.	c #5B6A4A",
"P.	c #5E6D4D",
"Q.	c #5D6E4A",
"R.	c #5D7047",
"S.	c #637252",
"T.	c #677656",
"U.	c #69735F",
"V.	c #637353",
"W.	c #6C795D",
"X.	c #7C8A6B",
"Y.	c #74885C",
"Z.	c #6D7F58",
"`.	c #657657",
" +	c #6B7E59",
".+	c #848A80",
"++	c #B9C5AA",
"@+	c #BCCAAA",
"#+	c #98A18C",
"$+	c #879775",
"%+	c #7F8C70",
"&+	c #6F7A63",
"*+	c #67715C",
"=+	c #747D69",
"-+	c #7D867B",
";+	c #798078",
">+	c #979D97",
",+	c #AFB1AF",
"'+	c #B0B1AF",
")+	c #A7AAA5",
"!+	c #A5AAA3",
"~+	c #9FA797",
"{+	c #98A48D",
"]+	c #909E83",
"^+	c #8C9B7F",
"/+	c #7B896D",
"(+	c #75806E",
"_+	c #828C7A",
":+	c #88927F",
"<+	c #7D8575",
"[+	c #828A7A",
"}+	c #98A090",
"|+	c #9EA896",
"1+	c #94A087",
"2+	c #8AA170",
"3+	c #718C52",
"4+	c #7F9B62",
"5+	c #A2AF96",
"6+	c #CCCEC8",
"7+	c #BFCAAF",
"8+	c #A0AA94",
"9+	c #979F8C",
"0+	c #999998",
"a+	c #8F948C",
"b+	c #949890",
"c+	c #9FA09E",
"d+	c #8D908C",
"e+	c #838682",
"f+	c #888A88",
"g+	c #898F88",
"h+	c #868D84",
"i+	c #8D918A",
"j+	c #91948F",
"k+	c #A1A49F",
"l+	c #ACAFA8",
"m+	c #AEB4A8",
"n+	c #ACAFAA",
"o+	c #969A94",
"p+	c #949793",
"q+	c #9A9C99",
"r+	c #989A97",
"s+	c #8A8E88",
"t+	c #929391",
"u+	c #9D9E9D",
"v+	c #A2A2A2",
"w+	c #A2A4A1",
"x+	c #9EA992",
"y+	c #7B9858",
"z+	c #86A85D",
"A+	c #9DB381",
"B+	c #111111",
"C+	c #151515",
"D+	c #1C1F17",
"E+	c #171A13",
"F+	c #191919",
"G+	c #1C1C1C",
"H+	c #A0A49B",
"I+	c #8D9F76",
"J+	c #888D81",
"K+	c #838383",
"L+	c #666666",
"M+	c #5F605F",
"N+	c #555655",
"O+	c #515251",
"P+	c #3F403E",
"Q+	c #353734",
"R+	c #343533",
"S+	c #313231",
"T+	c #282828",
"U+	c #5A5A5A",
"V+	c #4B4B4B",
"W+	c #555555",
"X+	c #5F5F5F",
"Y+	c #636363",
"Z+	c #6F6F6F",
"`+	c #13180C",
" @	c #0E1802",
".@	c #0F1802",
"+@	c #121D03",
"@@	c #292929",
"#@	c #383838",
"$@	c #313131",
"%@	c #303030",
"&@	c #373737",
"*@	c #C3CABA",
"=@	c #B5CB98",
"-@	c #98AC82",
";@	c #8F9786",
">@	c #9E9E9E",
",@	c #5D5D5D",
"'@	c #3C403A",
")@	c #31362D",
"!@	c #2C3227",
"~@	c #293024",
"{@	c #2B3227",
"]@	c #2E3528",
"^@	c #2D3329",
"/@	c #393C37",
"(@	c #555554",
"_@	c #535353",
":@	c #555C50",
"<@	c #AE4536",
"[@	c #C0453A",
"}@	c #9D9E9A",
"|@	c #212917",
"1@	c #010200",
"2@	c #000000",
"3@	c #242424",
"4@	c #404040",
"5@	c #525252",
"6@	c #BAC0B0",
"7@	c #B0BF9F",
"8@	c #909F84",
"9@	c #86947A",
"0@	c #91948D",
"a@	c #31342F",
"b@	c #2F3928",
"c@	c #1F231A",
"d@	c #292928",
"e@	c #30312F",
"f@	c #353733",
"g@	c #343930",
"h@	c #30372B",
"i@	c #343B30",
"j@	c #3F443B",
"k@	c #575755",
"l@	c #5E5E5E",
"m@	c #868983",
"n@	c #C73929",
"o@	c #D42E1F",
"p@	c #8F9382",
"q@	c #24281E",
"r@	c #2A2A2A",
"s@	c #474747",
"t@	c #C2C7B9",
"u@	c #FFFFFF",
"v@	c #92A085",
"w@	c #7A7C78",
"x@	c #363834",
"y@	c #2C3625",
"z@	c #2B3127",
"A@	c #333630",
"B@	c #3E3F3E",
"C@	c #484847",
"D@	c #4E4E4D",
"E@	c #4F514E",
"F@	c #4C4F4A",
"G@	c #484D44",
"H@	c #41473D",
"I@	c #42463E",
"J@	c #585957",
"K@	c #7B7C79",
"L@	c #778568",
"M@	c #5F7A44",
"N@	c #849175",
"O@	c #1D1D1D",
"P@	c #333432",
"Q@	c #4D4E4C",
"R@	c #595959",
"S@	c #CED3C8",
"T@	c #97A38E",
"U@	c #82897D",
"V@	c #484E43",
"W@	c #2C3029",
"X@	c #595C56",
"Y@	c #51524F",
"Z@	c #535451",
"`@	c #4B4D49",
" #	c #454743",
".#	c #434441",
"+#	c #4B4C4A",
"@#	c #585A56",
"##	c #4B5047",
"$#	c #4E534B",
"%#	c #656763",
"&#	c #70835C",
"*#	c #848A7E",
"=#	c #30362D",
"-#	c #343C2F",
";#	c #3C3E3B",
">#	c #353535",
",#	c #818778",
"'#	c #C5CDBB",
")#	c #AEB7A3",
"!#	c #76826E",
"~#	c #70756D",
"{#	c #333731",
"]#	c #717171",
"^#	c #676B63",
"/#	c #4C4F48",
"(#	c #373836",
"_#	c #363635",
":#	c #494948",
"<#	c #4F4F4E",
"[#	c #5C5D5A",
"}#	c #5B5E58",
"|#	c #464C42",
"1#	c #4E514D",
"2#	c #6D706A",
"3#	c #778469",
"4#	c #80867A",
"5#	c #232323",
"6#	c #30392A",
"7#	c #333E2B",
"8#	c #1C201A",
"9#	c #1A1A1A",
"0#	c #272727",
"a#	c #51534E",
"b#	c #647154",
"c#	c #3A3A3A",
"d#	c #2D2E2D",
"e#	c #282927",
"f#	c #575757",
"g#	c #979895",
"h#	c #B2B5AE",
"i#	c #7B7F76",
"j#	c #262E20",
"k#	c #2B3325",
"l#	c #252823",
"m#	c #525451",
"n#	c #4A5246",
"o#	c #494E45",
"p#	c #6A7461",
"q#	c #7B886C",
"r#	c #838B78",
"s#	c #212121",
"t#	c #565E51",
"u#	c #45503E",
"v#	c #333930",
"w#	c #464845",
"x#	c #444743",
"y#	c #373935",
"z#	c #373936",
"A#	c #393B38",
"B#	c #383A38",
"C#	c #686B66",
"D#	c #A6A9A3",
"E#	c #D4D6D2",
"F#	c #808A78",
"G#	c #BFC3BC",
"H#	c #B4B7B1",
"I#	c #62675F",
"J#	c #353B31",
"K#	c #545653",
"L#	c #494B49",
"M#	c #4A4C4A",
"N#	c #43483F",
"O#	c #47503C",
"P#	c #6A755F",
"Q#	c #8D9684",
"R#	c #868785",
"S#	c #727A6C",
"T#	c #515F47",
"U#	c #5C6754",
"V#	c #697163",
"W#	c #6C7468",
"X#	c #6C7267",
"Y#	c #6A6F67",
"Z#	c #6D726B",
"`#	c #70736D",
" $	c #727571",
".$	c #595A59",
"+$	c #9BA095",
"@$	c #B8BBB3",
"#$	c #757E6D",
"$$	c #A0A898",
"%$	c #CDD0CA",
"&$	c #747770",
"*$	c #43493D",
"=$	c #696A69",
"-$	c #61625F",
";$	c #41443F",
">$	c #434B3C",
",$	c #808677",
"'$	c #8E9689",
")$	c #828480",
"!$	c #666F60",
"~$	c #54634B",
"{$	c #798372",
"]$	c #A1A69D",
"^$	c #B2B6B0",
"/$	c #B1B5AE",
"($	c #B0B4AC",
"_$	c #A2A99B",
":$	c #A5A6A5",
"<$	c #6E6F6E",
"[$	c #60645E",
"}$	c #7C7E7A",
"|$	c #9A9F96",
"1$	c #A9AEA4",
"2$	c #7F8677",
"3$	c #909989",
"4$	c #ACB3A5",
"5$	c #6E7668",
"6$	c #41483C",
"7$	c #969894",
"8$	c #828380",
"9$	c #6B6B6A",
"0$	c #3E413B",
"a$	c #859278",
"b$	c #79876C",
"c$	c #7C7E7B",
"d$	c #586151",
"e$	c #586350",
"f$	c #1D211A",
"g$	c #222222",
"h$	c #B3B3B3",
"i$	c #CCD6BE",
"j$	c #A5BB89",
"k$	c #AEB3A9",
"l$	c #6F706E",
"m$	c #535850",
"n$	c #757872",
"o$	c #8E928B",
"p$	c #ACAFA7",
"q$	c #808977",
"r$	c #848E7B",
"s$	c #9CA596",
"t$	c #9BA096",
"u$	c #6E736A",
"v$	c #A6A9A2",
"w$	c #949592",
"x$	c #6C6D6B",
"y$	c #393A38",
"z$	c #545553",
"A$	c #849373",
"B$	c #647950",
"C$	c #6F7969",
"D$	c #1E201D",
"E$	c #434840",
"F$	c #444A41",
"G$	c #3A3A39",
"H$	c #2D2D2D",
"I$	c #171717",
"J$	c #C4CBBE",
"K$	c #CADAB7",
"L$	c #9FB486",
"M$	c #ABB79A",
"N$	c #4C5444",
"O$	c #8E948A",
"P$	c #9C9E9A",
"Q$	c #A1A59E",
"R$	c #B5B9B1",
"S$	c #B2B7AC",
"T$	c #A3AA9D",
"U$	c #C2C5BE",
"V$	c #BCBEBA",
"W$	c #A7A9A5",
"X$	c #898B88",
"Y$	c #585D55",
"Z$	c #32382D",
"`$	c #6A7063",
" %	c #777E72",
".%	c #7C8577",
"+%	c #1C1D1C",
"@%	c #2E2F2D",
"#%	c #474947",
"$%	c #5C5C5C",
"%%	c #3D3D3D",
"&%	c #C8D2BB",
"*%	c #879478",
"=%	c #9A9F92",
"-%	c #434C3D",
";%	c #717A6A",
">%	c #A8ABA5",
",%	c #A1A39D",
"'%	c #9A9D97",
")%	c #B8B9B7",
"!%	c #A3A69F",
"~%	c #A5A8A2",
"{%	c #9FA19E",
"]%	c #8A8A8A",
"^%	c #656663",
"/%	c #394032",
"(%	c #748360",
"_%	c #7C7E6E",
":%	c #9E9486",
"<%	c #181818",
"[%	c #2E2E2E",
"}%	c #454545",
"|%	c #D7DECF",
"1%	c #B6BDAA",
"2%	c #96A18D",
"3%	c #63675F",
"4%	c #404939",
"5%	c #666C5F",
"6%	c #999B97",
"7%	c #868686",
"8%	c #6A6B68",
"9%	c #43493E",
"0%	c #373D33",
"a%	c #535553",
"b%	c #656D5C",
"c%	c #BD482D",
"d%	c #EB210E",
"e%	c #836D6A",
"f%	c #161616",
"g%	c #343434",
"h%	c #242321",
"i%	c #BCBDAA",
"j%	c #E4E9DF",
"k%	c #D7DBD0",
"l%	c #97A487",
"m%	c #97A08E",
"n%	c #7C7D7A",
"o%	c #686D64",
"p%	c #4A5443",
"q%	c #4C5149",
"r%	c #696D66",
"s%	c #868A82",
"t%	c #868783",
"u%	c #4D5448",
"v%	c #343A30",
"w%	c #5B5B5B",
"x%	c #757A6F",
"y%	c #B14D26",
"z%	c #E1331E",
"A%	c #88807F",
"B%	c #141414",
"C%	c #1E1E1E",
"D%	c #202020",
"E%	c #0E0E0E",
"F%	c #090909",
"G%	c #050504",
"H%	c #A0A288",
"I%	c #ADB493",
"J%	c #AFB0A3",
"K%	c #B2B2B0",
"L%	c #7B7C7A",
"M%	c #474745",
"N%	c #777875",
"O%	c #61665E",
"P%	c #3A4035",
"Q%	c #343C2E",
"R%	c #303D27",
"S%	c #38452F",
"T%	c #3D4637",
"U%	c #3E443A",
"V%	c #353B2F",
"W%	c #424441",
"X%	c #6B7065",
"Y%	c #696F62",
"Z%	c #7C896D",
"`%	c #72845B",
" &	c #7F7E79",
".&	c #0F0F0F",
"+&	c #020201",
"@&	c #848484",
"#&	c #575856",
"$&	c #5B5B5A",
"%&	c #55574E",
"&&	c #55564D",
"*&	c #484A45",
"=&	c #3F423D",
"-&	c #484D45",
";&	c #4C4E47",
">&	c #3C3D3B",
",&	c #454644",
"'&	c #555754",
")&	c #4D4F4B",
"!&	c #515550",
"~&	c #686867",
"{&	c #6A6E66",
"]&	c #5C6355",
"^&	c #575A54",
"/&	c #141514",
"(&	c #181D16",
"_&	c #10140E",
":&	c #A0A0A0",
"<&	c #A0A29E",
"[&	c #696D65",
"}&	c #464B41",
"|&	c #3E4638",
"1&	c #414440",
"2&	c #474C44",
"3&	c #454841",
"4&	c #474945",
"5&	c #4C5148",
"6&	c #495241",
"7&	c #4E5747",
"8&	c #575B50",
"9&	c #53584D",
"0&	c #4B4F47",
"a&	c #454A3F",
"b&	c #454941",
"c&	c #424C3D",
"d&	c #3A4835",
"e&	c #424A3D",
"f&	c #434640",
"g&	c #424540",
"h&	c #485043",
"i&	c #464D42",
"j&	c #474845",
"k&	c #474846",
"l&	c #696B68",
"m&	c #797C77",
"n&	c #646C5F",
"o&	c #868C81",
"p&	c #939491",
"q&	c #929292",
"r&	c #4A4E47",
"s&	c #414D3D",
"t&	c #3F4A39",
"u&	c #434C3E",
"v&	c #4F5649",
"w&	c #4A5547",
"x&	c #43473C",
"y&	c #42473E",
"z&	c #485041",
"A&	c #505848",
"B&	c #515849",
"C&	c #4F5548",
"D&	c #4E5249",
"E&	c #586152",
"F&	c #55634F",
"G&	c #4F5E49",
"H&	c #4A5348",
"I&	c #565755",
"J&	c #50504E",
"K&	c #50514E",
"L&	c #4A5147",
"M&	c #586055",
"N&	c #595F56",
"O&	c #50584A",
"P&	c #6A7563",
"Q&	c #53624A",
"R&	c #5F6D57",
"S&	c #727D6B",
"T&	c #979797",
"U&	c #787878",
"V&	c #484C46",
"W&	c #444C41",
"X&	c #41513F",
"Y&	c #4A5F49",
"Z&	c #4C5D4A",
"`&	c #536550",
" *	c #465D3C",
".*	c #4D5F40",
"+*	c #505D48",
"@*	c #565D4E",
"#*	c #586050",
"$*	c #56604F",
"%*	c #555F4F",
"&*	c #576550",
"**	c #64715D",
"=*	c #5D6957",
"-*	c #575D4E",
";*	c #60645C",
">*	c #5A6353",
",*	c #5E655A",
"'*	c #565B53",
")*	c #505B49",
"!*	c #4E5D46",
"~*	c #4E5B45",
"{*	c #465A3C",
"]*	c #475C3C",
"^*	c #445839",
"/*	c #485A3E",
"(*	c #58674F",
"_*	c #9B9B9B",
":*	c #444942",
"<*	c #52594F",
"[*	c #545F51",
"}*	c #4E664B",
"|*	c #4F634D",
"1*	c #505E4F",
"2*	c #5B6358",
"3*	c #4F604A",
"4*	c #495D40",
"5*	c #48603B",
"6*	c #4D6047",
"7*	c #535C4E",
"8*	c #566151",
"9*	c #57614F",
"0*	c #626656",
"a*	c #656B60",
"b*	c #6B6D5F",
"c*	c #5D634B",
"d*	c #62664C",
"e*	c #5B6651",
"f*	c #616E59",
"g*	c #697561",
"h*	c #5F6C56",
"i*	c #56674D",
"j*	c #53644A",
"k*	c #4F6144",
"l*	c #506047",
"m*	c #757E6F",
"n*	c #73776F",
"o*	c #A7A7A7",
"p*	c #90918F",
"q*	c #52584E",
"r*	c #5E6658",
"s*	c #5B6356",
"t*	c #535D4F",
"u*	c #566254",
"v*	c #525B4F",
"w*	c #5B6359",
"x*	c #5E645C",
"y*	c #58604A",
"z*	c #4C5847",
"A*	c #575A51",
"B*	c #66675A",
"C*	c #5C6450",
"D*	c #585C56",
"E*	c #595D50",
"F*	c #62644F",
"G*	c #61634F",
"H*	c #5E623C",
"I*	c #626541",
"J*	c #515F45",
"K*	c #516049",
"L*	c #576451",
"M*	c #53614A",
"N*	c #56664D",
"O*	c #667060",
"P*	c #646E5E",
"Q*	c #5F6A58",
"R*	c #64705D",
"S*	c #90948F",
"T*	c #B9BAB6",
"U*	c #999E93",
"V*	c #7C8278",
"W*	c #5C6A54",
"X*	c #516247",
"Y*	c #626D5B",
"Z*	c #636B5D",
"`*	c #6A7366",
" =	c #727C6E",
".=	c #757D73",
"+=	c #889186",
"@=	c #94988A",
"#=	c #80866E",
"$=	c #7D846D",
"%=	c #898D78",
"&=	c #898F7C",
"*=	c #A6A798",
"==	c #989B89",
"-=	c #8D907C",
";=	c #949489",
">=	c #8A8A78",
",=	c #69745A",
"'=	c #6A7562",
")=	c #787D72",
"!=	c #7C8178",
"~=	c #67765F",
"{=	c #798472",
"]=	c #828B7B",
"^=	c #747E6D",
"/=	c #929B8C",
"(=	c #B5B9B3",
"_=	c #C6C7C5",
":=	c #BBBDB8",
"<=	c #9EA09C",
"[=	c #8F928B",
"}=	c #6E7968",
"|=	c #62705A",
"1=	c #788174",
"2=	c #798274",
"3=	c #687362",
"4=	c #626F5B",
"5=	c #6F7B69",
"6=	c #6F7C68",
"7=	c #747D67",
"8=	c #717B67",
"9=	c #96988C",
"0=	c #B4B4B1",
"a=	c #BBBBBA",
"b=	c #A4A7A1",
"c=	c #B9B9B7",
"d=	c #9D9F9B",
"e=	c #888E85",
"f=	c #9EA09E",
"g=	c #A0A19E",
"h=	c #9B9C9A",
"i=	c #979995",
"j=	c #7B8376",
"k=	c #6A7663",
"l=	c #65735C",
"m=	c #747D6D",
"n=	c #A0A59C",
"o=	c #B6B8B5",
". + @ # $ % & * = - ; # > ; , ' ) ! ~ { ] ^ / ( _ : < [ } | 1 2 ",
"3 4 5 6 7 8 9 0 a b c d e f g h # ) i j k l m n o p q r s t u v ",
"w x y i z A B C D E F G H I J K L M N O P Q R n S T U V W X Y Z ",
"`  .) ..+.@.#.$.%.&.*.=.-.;.>.,.'.).!.~.{.].^./.(._.:.<.[.}.|.1.",
"2.3.4.5.6.7.8.9.0.a.b.c.d.e.f.g.h.i.j.k.l.m.n.o.p.q.r.s.t.u.v.w.",
"x.y.z.A.B.C.D.E.F.G.H.I.J.K.L.M.N.O.P.Q.R.S.T.U.V.W.X.Y.Z.`. +.+",
"++@+#+$+%+&+*+=+-+;+>+,+'+)+!+~+{+]+^+/+(+_+:+<+[+}+|+1+2+3+4+5+",
"6+7+8+9+0+a+b+c+d+e+f+g+h+i+j+k+l+m+n+o+p+q+r+s+t+u+v+w+x+y+z+A+",
"B+C+D+E+F+G+H+I+J+K+L+_ M+N+O+P+Q+R+S+T+# U+V+, W+X+Y+Z+`+ @.@+@",
"@@#@#@$@%@&@*@=@-@;@>@L+,@'@)@!@~@{@]@^@/@(@_@,@:@<@[@}@|@1@2@2@",
"3@4@V+] 5@V+6@7@8@9@0@V+a@b@c@d@e@f@g@h@i@j@k@l@m@n@o@p@q@2@2@2@",
"r@s@_@X+U+_ t@u@u@v@w@x@y@z@A@B@C@D@E@F@G@H@I@J@K@L@M@N@O@2@2@2@",
"P@Q@N+R@U+R@S@u@u@T@U@V@W@# X@Y@Z@`@ #.#+#@###$#%#u &#*#O@2@2@2@",
"=#-#;##@>#4@,#'#)#!#~#{#' ]#^#/#(#_#:#<#Z@[#}#|#1#2#3#4#5#2@2@2@",
"6#7#8#9#9#0#a#b#R c#d#e#f#g#h#i#l j#k#l#U+[#m#n#o#p#q#r#s#2@2@2@",
"t#u#v#w#x#y#z#A#B#{ @ c#C#D#E#F#G#H#I#J#K#L#M#N#O#P#Q#R#s#2@2@2@",
"S#T#U#V#W#X#Y#Z#`# $%#.$`#+$@$#$$$%$&$*$=$-$M+;$>$,$'$)$s#2@2@2@",
"!$~${$]$^$/$($$$_$:$<$[$}$|$1$2$3$4$5$6$7$8$9$0$#@a$b$c$5#2@2@2@",
"d$e$f$g$O@T+h$i$j$k$l$m$n$o$p$q$r$s$t$u$v$w$x$y$z$A$B$C$D$2@2@2@",
"E$F$G$H$I$9#J$K$L$M$v$N$O$P$Q$R$S$T$U$V$W$X$Y$Z$`$u  %.%+%2@2@2@",
"@%#%<#$%~ %%&%u@u@*%=%-%;%>%,%'%)%!%~%{%]%^%/%j@(%_%:%R#<%2@2@2@",
"[%}%] ,@^ ] |%u@u@1%2%3%4%5%6%g#>@0+t+7%8%9%0%a%b%c%d%e%f%2@2@2@",
"# ] _ ) g%h%i%j%k%l%m%n%o%p%q%r%s%o$t%C#u%v%- w%x%y%z%A%B%2@2@2@",
"C%D%f%E%F%G%H%I%J%K%L%M%N%O%P%Q%R%S%T%U%V%W%X%Y%Z%`% &]#.&2@2@+&",
"@&c+#&$&c#{ %&&&,@M+*&=&-&;&;$>&,&'&K#)&!&~&{&]&^&_@s@_ $@/&(&_&",
":&<&[&}&|&1&2&3&=&4&5&6&7&8&9&0&a&b&c&d&e&f&g&h&i&j&k&l&m&n&o&p&",
"q&M+r&s&t&u&v&K.w&x&y&z&A&B&C&D&E&F&G&H&I&J&K&L&M&N&O&V#P&Q&R&S&",
"T&U&V&W&+.X&Y&Z&`& *.*+*@*#*$*%*&***=*-*;*>*,*'*)*!*~*{*]*^*/*(*",
"_*7%:*<*[*}*|*1*2*3*4*5*6*7*8*9*0*a*b*c*d*e*(*f*g*h*i*j*k*l*m*n*",
"o*p*q*+*r*s*t*u*v*w*x*y*z*A*B*C*D*E*F*G*H*I*J*K*L*M*N*O*P*Q*R*S*",
"T*U*V*W*X*Y*Z*`* =.=+=@=#=$=%=&=*===-=;=>=,='=)=!=(+~={=]=^=/=(=",
"_=:=<=[=}=|=1=2=3=4=5=6=7=8=9=0=a=b=c=d=e=e=f=g=h=i=j=k=l=m=n=o="};
