/* XPM */
static char * tree_xpm[] = {
"32 32 658 2",
"  	c None",
". 	c #000000",
"+ 	c #020301",
"@ 	c #030401",
"# 	c #060A04",
"$ 	c #0A0F06",
"% 	c #0F1709",
"& 	c #15230E",
"* 	c #1D2E13",
"= 	c #213214",
"- 	c #223615",
"; 	c #223617",
"> 	c #203214",
", 	c #1E3214",
"' 	c #1E2D11",
") 	c #1F2E11",
"! 	c #19270F",
"~ 	c #18240E",
"{ 	c #151F0C",
"] 	c #0C1307",
"^ 	c #090F06",
"/ 	c #080C04",
"( 	c #070A03",
"_ 	c #070C04",
": 	c #070B04",
"< 	c #050803",
"[ 	c #030502",
"} 	c #020402",
"| 	c #010100",
"1 	c #010201",
"2 	c #0D1408",
"3 	c #15200D",
"4 	c #1D2C12",
"5 	c #243816",
"6 	c #2A421A",
"7 	c #304B1E",
"8 	c #314D1F",
"9 	c #314B1F",
"0 	c #334D21",
"a 	c #2E4C1F",
"b 	c #30481F",
"c 	c #2B441A",
"d 	c #2A461A",
"e 	c #263E18",
"f 	c #243717",
"g 	c #213315",
"h 	c #1B2B11",
"i 	c #17250D",
"j 	c #131C0B",
"k 	c #111B09",
"l 	c #0F1608",
"m 	c #0E1508",
"n 	c #0B1106",
"o 	c #030603",
"p 	c #060B04",
"q 	c #0E1408",
"r 	c #15210D",
"s 	c #1F3214",
"t 	c #2A441A",
"u 	c #32511F",
"v 	c #3B5E24",
"w 	c #406527",
"x 	c #446929",
"y 	c #476C2D",
"z 	c #4B6E31",
"A 	c #4B6D32",
"B 	c #496D30",
"C 	c #466B2D",
"D 	c #43682B",
"E 	c #406429",
"F 	c #406329",
"G 	c #3A5A26",
"H 	c #364E23",
"I 	c #2C421D",
"J 	c #203415",
"K 	c #1E3115",
"L 	c #192710",
"M 	c #17250F",
"N 	c #141F0C",
"O 	c #10190A",
"P 	c #0B1006",
"Q 	c #060903",
"R 	c #0B1107",
"S 	c #17230C",
"T 	c #213414",
"U 	c #2E491D",
"V 	c #395924",
"W 	c #42682A",
"X 	c #4E7931",
"Y 	c #548034",
"Z 	c #5B883F",
"` 	c #638B43",
" .	c #6E924C",
"..	c #769C55",
"+.	c #779F57",
"@.	c #719B52",
"#.	c #6B954A",
"$.	c #608E40",
"%.	c #5F8A40",
"&.	c #547F36",
"*.	c #517535",
"=.	c #44672C",
"-.	c #365522",
";.	c #2D491E",
">.	c #223816",
",.	c #1E2D12",
"'.	c #17230D",
").	c #080B04",
"!.	c #040703",
"~.	c #121C0B",
"{.	c #1E3012",
"].	c #2D461D",
"^.	c #3D5F25",
"/.	c #4A762C",
"(.	c #568835",
"_.	c #699A45",
":.	c #669F3E",
"<.	c #6EA148",
"[.	c #71A34B",
"}.	c #81AC5C",
"|.	c #8CB466",
"1.	c #95BB6B",
"2.	c #91B663",
"3.	c #86B25B",
"4.	c #7DAF55",
"5.	c #79AB51",
"6.	c #6BA044",
"7.	c #669543",
"8.	c #5B8938",
"9.	c #4A782D",
"0.	c #3F6426",
"a.	c #395923",
"b.	c #2F4B1E",
"c.	c #253A17",
"d.	c #1B2A11",
"e.	c #131E0B",
"f.	c #090E06",
"g.	c #050702",
"h.	c #1A2910",
"i.	c #3A5C24",
"j.	c #48712C",
"k.	c #548930",
"l.	c #609C36",
"m.	c #6FAA44",
"n.	c #71A946",
"o.	c #64A336",
"p.	c #63A334",
"q.	c #73AB4B",
"r.	c #81B054",
"s.	c #91B25A",
"t.	c #8EAC52",
"u.	c #77A545",
"v.	c #7BB14E",
"w.	c #83BB58",
"x.	c #75AF4A",
"y.	c #77AC4D",
"z.	c #6C9D43",
"A.	c #598B33",
"B.	c #4E7C2D",
"C.	c #466E29",
"D.	c #3A5F26",
"E.	c #2D481C",
"F.	c #14200D",
"G.	c #0D1306",
"H.	c #040602",
"I.	c #111B0B",
"J.	c #2D491C",
"K.	c #3F6728",
"L.	c #4F7E30",
"M.	c #629839",
"N.	c #6DA841",
"O.	c #65A636",
"P.	c #7CB450",
"Q.	c #75AD48",
"R.	c #78B04C",
"S.	c #7BB152",
"T.	c #7CAE4F",
"U.	c #8DA94D",
"V.	c #94A84F",
"W.	c #789F3F",
"X.	c #77AF49",
"Y.	c #7FB952",
"Z.	c #88B75E",
"`.	c #83AF59",
" +	c #679C3D",
".+	c #5A8C33",
"++	c #517E2F",
"@+	c #426A29",
"#+	c #34511F",
"$+	c #253B18",
"%+	c #050904",
"&+	c #0A0E05",
"*+	c #141E0B",
"=+	c #233817",
"-+	c #315320",
";+	c #46702B",
">+	c #598A37",
",+	c #659E3A",
"'+	c #64A236",
")+	c #589F28",
"!+	c #5EA32F",
"~+	c #6DAB3F",
"{+	c #85B55C",
"]+	c #7FB055",
"^+	c #76AA46",
"/+	c #96B45A",
"(+	c #A6B965",
"_+	c #89AF52",
":+	c #80B451",
"<+	c #80B853",
"[+	c #7EB451",
"}+	c #92BF67",
"|+	c #8FBB65",
"1+	c #6EA346",
"2+	c #639A40",
"3+	c #5A8837",
"4+	c #48702C",
"5+	c #365523",
"6+	c #0E1709",
"7+	c #0B0F05",
"8+	c #151F0B",
"9+	c #233917",
"0+	c #375523",
"a+	c #48722E",
"b+	c #5D903A",
"c+	c #5C9D31",
"d+	c #4D971C",
"e+	c #4C981B",
"f+	c #66A737",
"g+	c #82B457",
"h+	c #83B159",
"i+	c #71A744",
"j+	c #76AC44",
"k+	c #9FC36C",
"l+	c #B0C977",
"m+	c #91B85B",
"n+	c #7CB24B",
"o+	c #7EB74E",
"p+	c #7BB54C",
"q+	c #7AB44B",
"r+	c #71AC43",
"s+	c #69A33F",
"t+	c #659A3E",
"u+	c #5A8C38",
"v+	c #4B732E",
"w+	c #385822",
"x+	c #284219",
"y+	c #1A280F",
"z+	c #070C05",
"A+	c #18220B",
"B+	c #263C19",
"C+	c #385821",
"D+	c #4C752F",
"E+	c #629239",
"F+	c #5A9A2B",
"G+	c #4E981B",
"H+	c #4D991C",
"I+	c #5DA12F",
"J+	c #70AC43",
"K+	c #7DB052",
"L+	c #70A640",
"M+	c #82AF4E",
"N+	c #A3C16E",
"O+	c #ACC371",
"P+	c #8FB457",
"Q+	c #76AB43",
"R+	c #6EA83D",
"S+	c #5EA42D",
"T+	c #67A937",
"U+	c #6AA63C",
"V+	c #65A03A",
"W+	c #60983C",
"X+	c #568634",
"Y+	c #49742C",
"Z+	c #375822",
"`+	c #273E19",
" @	c #0E1509",
".@	c #0B1105",
"+@	c #17220D",
"@@	c #395A22",
"#@	c #4F752E",
"$@	c #6D8D3A",
"%@	c #7B9C41",
"&@	c #6CA236",
"*@	c #599D27",
"=@	c #5B9F2B",
"-@	c #529B21",
";@	c #5EA02E",
">@	c #71A53E",
",@	c #8FB254",
"'@	c #9DBB65",
")@	c #9BB960",
"!@	c #7FAE4A",
"~@	c #5C9D29",
"{@	c #599D26",
"]@	c #6CA435",
"^@	c #78A43C",
"/@	c #709C36",
"(@	c #699536",
"_@	c #60913A",
":@	c #528333",
"<@	c #456D2C",
"[@	c #32521F",
"}@	c #233A17",
"|@	c #1A250E",
"1@	c #0D1308",
"2@	c #0B1207",
"3@	c #14210D",
"4@	c #233716",
"5@	c #365721",
"6@	c #4D722E",
"7@	c #598A26",
"8@	c #76993A",
"9@	c #7BA13F",
"0@	c #68A131",
"a@	c #84B052",
"b@	c #67A337",
"c@	c #539A21",
"d@	c #599922",
"e@	c #6A9E2D",
"f@	c #6AA030",
"g@	c #79AA42",
"h@	c #6EA73A",
"i@	c #69A233",
"j@	c #85AA47",
"k@	c #98AD51",
"l@	c #8DA041",
"m@	c #7C9335",
"n@	c #6C9034",
"o@	c #608D38",
"p@	c #507C31",
"q@	c #3F6326",
"r@	c #2F491E",
"s@	c #213413",
"t@	c #0A0F05",
"u@	c #13200D",
"v@	c #345220",
"w@	c #466E2C",
"x@	c #53862A",
"y@	c #599325",
"z@	c #709C35",
"A@	c #6E9D31",
"B@	c #87AA4B",
"C@	c #85AE50",
"D@	c #619E2D",
"E@	c #5C9822",
"F@	c #729F31",
"G@	c #83A845",
"H@	c #95BA5F",
"I@	c #89B354",
"J@	c #89A749",
"K@	c #8FA347",
"L@	c #90A449",
"M@	c #889E40",
"N@	c #709636",
"O@	c #649337",
"P@	c #568732",
"Q@	c #48702D",
"R@	c #365423",
"S@	c #283A18",
"T@	c #1C280E",
"U@	c #0B1005",
"V@	c #213313",
"W@	c #314D1E",
"X@	c #416729",
"Y@	c #4D7D2D",
"Z@	c #559327",
"`@	c #549720",
" #	c #6E9F34",
".#	c #8BAC4B",
"+#	c #8DAD4F",
"@#	c #7BA53F",
"##	c #649A26",
"$#	c #719A2C",
"%#	c #82A340",
"&#	c #89AF51",
"*#	c #7FAB4B",
"=#	c #7BA241",
"-#	c #83A548",
";#	c #80A344",
">#	c #77A443",
",#	c #6EA145",
"'#	c #609139",
")#	c #4E7C2C",
"!#	c #3E6323",
"~#	c #1E2E12",
"{#	c #0C1105",
"]#	c #090E05",
"^#	c #1E2F14",
"/#	c #3C5F24",
"(#	c #497A2C",
"_#	c #599034",
":#	c #569827",
"<#	c #569A22",
"[#	c #7DAC45",
"}#	c #97B459",
"|#	c #88AD4B",
"1#	c #789E34",
"2#	c #739427",
"3#	c #72982B",
"4#	c #75A73C",
"5#	c #7DA947",
"6#	c #7BAA49",
"7#	c #72A640",
"8#	c #78AB48",
"9#	c #78AB4B",
"0#	c #639B38",
"a#	c #598A35",
"b#	c #476F2A",
"c#	c #375A21",
"d#	c #243C16",
"e#	c #15250F",
"f#	c #0C1306",
"g#	c #0F1708",
"h#	c #18260F",
"i#	c #283E19",
"j#	c #466F29",
"k#	c #51852D",
"l#	c #4D941F",
"m#	c #4E971C",
"n#	c #65A232",
"o#	c #8EB356",
"p#	c #84AF4B",
"q#	c #7FA13A",
"r#	c #779128",
"s#	c #679727",
"t#	c #6FA73C",
"u#	c #6DA73C",
"v#	c #6AA83B",
"w#	c #62A532",
"x#	c #60A130",
"y#	c #619F35",
"z#	c #5C9136",
"A#	c #507C2F",
"B#	c #2C481C",
"C#	c #141F0B",
"D#	c #223516",
"E#	c #304C1D",
"F#	c #3E6226",
"G#	c #477A28",
"H#	c #4D8E21",
"I#	c #569828",
"J#	c #5B9E2A",
"K#	c #72AB43",
"L#	c #78AE49",
"M#	c #83AE4D",
"N#	c #83A241",
"O#	c #73A83D",
"P#	c #70AA43",
"Q#	c #74AB45",
"R#	c #73AD45",
"S#	c #70AB44",
"T#	c #70AC44",
"U#	c #689D40",
"V#	c #578834",
"W#	c #4B752D",
"X#	c #3C5F23",
"Y#	c #1A290F",
"Z#	c #0D1507",
"`#	c #080E06",
" $	c #121B0B",
".$	c #1B2910",
"+$	c #2B431C",
"@$	c #456E2A",
"#$	c #4F812C",
"$$	c #588F30",
"%$	c #549A26",
"&$	c #61A234",
"*$	c #73AC48",
"=$	c #7FB250",
"-$	c #77AC44",
";$	c #6DAC3E",
">$	c #6CAA3C",
",$	c #67A53B",
"'$	c #75AB4A",
")$	c #81B659",
"!$	c #72A54A",
"~$	c #609738",
"{$	c #558633",
"]$	c #49732C",
"^$	c #273F19",
"/$	c #0A1005",
"($	c #15220D",
"_$	c #213515",
":$	c #2D4A1D",
"<$	c #3C6125",
"[$	c #487529",
"}$	c #50832C",
"|$	c #4D9221",
"1$	c #589B2B",
"2$	c #5FA130",
"3$	c #77B14A",
"4$	c #6EA73F",
"5$	c #69A235",
"6$	c #69A23D",
"7$	c #77AC4C",
"8$	c #7AAD51",
"9$	c #64993E",
"0$	c #5A8D35",
"a$	c #436A2A",
"b$	c #324D20",
"c$	c #223716",
"d$	c #121D0B",
"e$	c #080D05",
"f$	c #10180A",
"g$	c #263C16",
"h$	c #3C6025",
"i$	c #446D2B",
"j$	c #4F8030",
"k$	c #619D38",
"l$	c #6BA441",
"m$	c #6AA43B",
"n$	c #6F9C35",
"o$	c #77A742",
"p$	c #7BB04F",
"q$	c #79AE51",
"r$	c #5D923A",
"s$	c #558634",
"t$	c #49752E",
"u$	c #395A23",
"v$	c #2B441B",
"w$	c #1C2B11",
"x$	c #101A0A",
"y$	c #080D06",
"z$	c #0A1006",
"A$	c #273D18",
"B$	c #304C1E",
"C$	c #3B5C24",
"D$	c #446C2B",
"E$	c #4F7D31",
"F$	c #578836",
"G$	c #68A03D",
"H$	c #739D3D",
"I$	c #7AA847",
"J$	c #74A849",
"K$	c #689E42",
"L$	c #5B8C38",
"M$	c #4E7C32",
"N$	c #47712C",
"O$	c #3A5C25",
"P$	c #2D461C",
"Q$	c #203314",
"R$	c #0C1308",
"S$	c #060A03",
"T$	c #0D1307",
"U$	c #1C2B10",
"V$	c #233715",
"W$	c #325120",
"X$	c #3E5F25",
"Y$	c #48732E",
"Z$	c #568233",
"`$	c #619139",
" %	c #65983B",
".%	c #68993E",
"+%	c #5F913A",
"@%	c #558534",
"#%	c #4A732C",
"$%	c #3D6227",
"%%	c #355420",
"&%	c #283F19",
"*%	c #203213",
"=%	c #16230E",
"-%	c #0D1508",
";%	c #0C1207",
">%	c #19250E",
",%	c #233916",
"'%	c #2E481D",
")%	c #3E5C24",
"!%	c #516D29",
"~%	c #57762B",
"{%	c #597E31",
"]%	c #577830",
"^%	c #4B712D",
"/%	c #3F6226",
"(%	c #345521",
"_%	c #223614",
":%	c #192810",
"<%	c #0F1809",
"[%	c #0E1407",
"}%	c #121A0A",
"|%	c #17220E",
"1%	c #1D2D12",
"2%	c #35421D",
"3%	c #565E24",
"4%	c #57711F",
"5%	c #53721D",
"6%	c #597121",
"7%	c #4E5B27",
"8%	c #36461F",
"9%	c #243716",
"0%	c #131D0B",
"a%	c #090D05",
"b%	c #141E0C",
"c%	c #36361B",
"d%	c #6B592E",
"e%	c #795E2E",
"f%	c #7C5F2A",
"g%	c #84622D",
"h%	c #6D5930",
"i%	c #403C1F",
"j%	c #171E0D",
"k%	c #020200",
"l%	c #0B0E06",
"m%	c #3B321B",
"n%	c #7B5D33",
"o%	c #8A6531",
"p%	c #8E652D",
"q%	c #93662C",
"r%	c #7D5E30",
"s%	c #4D3E23",
"t%	c #101109",
"u%	c #362C18",
"v%	c #7D5E34",
"w%	c #8E6732",
"x%	c #94672C",
"y%	c #996728",
"z%	c #845F2E",
"A%	c #4D3D22",
"B%	c #100E08",
"C%	c #312817",
"D%	c #7C5E34",
"E%	c #94672D",
"F%	c #996829",
"G%	c #84602E",
"H%	c #4E3C23",
"I%	c #110D08",
"J%	c #2D2314",
"K%	c #7B5C33",
"L%	c #8F6732",
"M%	c #97662A",
"N%	c #805D2E",
"O%	c #4C3A22",
"P%	c #0F0B07",
"Q%	c #2D2214",
"R%	c #795C34",
"S%	c #8D6632",
"T%	c #91662E",
"U%	c #96662A",
"V%	c #7B592D",
"W%	c #4B3922",
"X%	c #100C07",
"Y%	c #302515",
"Z%	c #775B33",
"`%	c #856436",
" &	c #8D6430",
".&	c #92632A",
"+&	c #7A582B",
"@&	c #45341D",
"#&	c #0C0805",
"$&	c #040300",
"%&	c #2F2110",
"&&	c #6E512B",
"*&	c #7D5D32",
"=&	c #865F2E",
"-&	c #895E27",
";&	c #735024",
">&	c #372814",
",&	c #050302",
". . . + @ # $ % & * = - ; > , ' ) ! ~ { % ] ^ / ( _ ( : < [ } | ",
". . 1 [ # 2 3 4 5 6 7 8 9 0 a b c d e f g h i j k l m n $ # [ } ",
"| 1 o p q r s t u v w x y z A B C D E F G H I J K L M N O P Q } ",
"1 } < R S T U V W X Y Z `  ...+.@.#.$.%.&.*.=.-.;.6 >.,.'.m ).!.",
"} [ P ~.{.].^./.(._.:.<.[.}.|.1.2.3.4.5.6.7.8.9.0.a.b.c.d.e.f.g.",
"[ : 2 h.c.i.j.k.l.m.n.o.p.q.r.s.t.u.v.w.x.y.z.A.B.C.D.E.- F.G.# ",
"H./ I.J J.K.L.M.N.O.P.Q.R.S.T.U.V.W.X.Y.R.Z.`. +.+++@+#+$+~ ] %+",
"!.&+*+=+-+;+>+,+'+)+!+~+{+]+^+/+(+_+:+<+[+}+|+1+2+3+4+5+e ! 6+( ",
"!.7+8+9+0+a+b+c+d+e+f+g+h+i+j+k+l+m+n+o+p+q+r+s+t+u+v+w+x+y+] z+",
"H.$ A+B+C+D+E+F+G+H+I+J+K+L+M+N+O+P+Q+R+S+T+U+V+W+X+Y+Z+`+y+ @# ",
"o .@+@5 @@#@$@%@&@*@=@-@;@>@,@'@)@!@~@{@]@^@/@(@_@:@<@[@}@|@1@# ",
"!.2@3@4@5@6@7@8@9@0@a@b@c@d@e@f@g@h@i@j@k@l@m@n@o@p@q@r@s@*+t@< ",
"@ R u@4@v@w@x@y@z@A@B@C@D@E@F@G@H@I@J@K@L@M@N@O@P@Q@R@S@T@l : o ",
"[ U@3@V@W@X@Y@Z@`@ #.#+#@###$#%#&#*#=#-#;#>#,#'#)#!#J.~#*+{#o } ",
"@ ]#O ^#J./#(#_#:#<#[#}#|#1#2#3#4#5#6#7#8#9#0#a#b#c#d#e#f## } 1 ",
"+ # g#h#i#Z+j#k#l#m#n#o#p#q#r#s#t#u#v#w#x#y#z#A#F B#{.~.]#!.| . ",
"+ H.] C#D#E#F#G#H#I#J#K#L#M#N#O#P#Q#R#S#T#U#V#W#X#`+Y#Z#: 1 | | ",
"| [ `# $.$+$a.@$#$$$%$&$*$=$-$;$>$,$'$)$!$~${$]$Z+^$+@R < + | | ",
". 1 < /$($_$:$<$[$}$|$1$2$3$4$5$4$6$7$8$9$0$:@a$b$c$d$R g.+ 1 | ",
". | o e$f$Y#g$8 h$i$j$_#k$l$m$n$o$p$q$1+r$s$t$u$v$w$x$y$H.+ | | ",
". | 1 !.z$F.h A$B$C$D$E$F$W+G$H$I$J$K$L$M$N$O$P$Q$F.R$S$[ 1 | . ",
". . | [ : T$r U$V$c W$X$Y$Z$`$ %.%+%@%#%$%%%&%*%=%-%Q H.1 | | . ",
". . . + H.e$;% $>%4 ,%'%)%!%~%{%]%^%/%(%6 _%:%<%] Q [ 1 | | . . ",
". . . . + H.: &+[%}%|%1%2%3%4%5%6%7%8%9%h#0%R$a%H.@ | | . . . . ",
". . . . | + [ H.: ]#;%b%c%d%e%f%g%h%i%j%y$# } + k%. . . . . . . ",
". . . . . | 1 + [ [ Q l%m%n%o%p%q%r%s%t%H.| | . . . . . . . . . ",
". . . . . . . | | | + [ u%v%w%x%y%z%A%B%| . . . . . . . . . . . ",
". . . . . . . . . . . | C%D%w%E%F%G%H%I%. . . . . . . . . . . . ",
". . . . . . . . . . . . J%K%L%q%M%N%O%P%. . . . . . . . . . . . ",
". . . . . . . . . . . . Q%R%S%T%U%V%W%X%. . . . . . . . . . . . ",
". . . . . . . . . . . . Y%Z%`% &.&+&@&#&. . . . . . . . . . . . ",
". . . . . . . . . . . $&%&&&*&=&-&;&>&,&. . . . . . . . . . . . "};
