/* XPM */
static char * wall_xpm[] = {
"32 32 560 2",
"  	c None",
". 	c #B56C33",
"+ 	c #9B5824",
"@ 	c #854716",
"# 	c #874817",
"$ 	c #5F310D",
"% 	c #955320",
"& 	c #904F1D",
"* 	c #93521F",
"= 	c #975421",
"- 	c #9A5723",
"; 	c #975521",
"> 	c #985521",
", 	c #995622",
"' 	c #5A2E0C",
") 	c #965421",
"! 	c #8F4F1D",
"~ 	c #8E4E1C",
"{ 	c #8D4D1B",
"] 	c #69360E",
"^ 	c #874818",
"/ 	c #884918",
"( 	c #8A4B1A",
"_ 	c #8A4B19",
": 	c #90501D",
"< 	c #CD7F42",
"[ 	c #CD7E41",
"} 	c #C4773C",
"| 	c #AA632C",
"1 	c #1F1004",
"2 	c #B86E36",
"3 	c #BD7237",
"4 	c #BF7439",
"5 	c #C07539",
"6 	c #C6793D",
"7 	c #C87A3F",
"8 	c #CB7D41",
"9 	c #B96F35",
"0 	c #AC662E",
"a 	c #341B08",
"b 	c #A15C28",
"c 	c #AD662E",
"d 	c #B16931",
"e 	c #AC652E",
"f 	c #B36B32",
"g 	c #B97036",
"h 	c #351C07",
"i 	c #A36029",
"j 	c #A56129",
"k 	c #B46D33",
"l 	c #C1763A",
"m 	c #C67A3E",
"n 	c #CA7D40",
"o 	c #CE7F42",
"p 	c #D38345",
"q 	c #B76D34",
"r 	c #120902",
"s 	c #BA7036",
"t 	c #C3783B",
"u 	c #C57A3D",
"v 	c #CA7C3F",
"w 	c #BB7036",
"x 	c #C1753A",
"y 	c #0C0702",
"z 	c #B16A30",
"A 	c #B86F35",
"B 	c #BE7438",
"C 	c #C0763A",
"D 	c #CD7F41",
"E 	c #CD7D41",
"F 	c #A56329",
"G 	c #A8652B",
"H 	c #C77A3E",
"I 	c #BB7337",
"J 	c #B97136",
"K 	c #C87A3E",
"L 	c #B96F36",
"M 	c #030200",
"N 	c #B26931",
"O 	c #A55F2A",
"P 	c #AE6730",
"Q 	c #BC7138",
"R 	c #C5783C",
"S 	c #BC7137",
"T 	c #050201",
"U 	c #B66C33",
"V 	c #B86E35",
"W 	c #C2763A",
"X 	c #C3773B",
"Y 	c #C2753A",
"Z 	c #A05C27",
"` 	c #1C0F05",
" .	c #A16027",
"..	c #A9652C",
"+.	c #BF7539",
"@.	c #C2773B",
"#.	c #CF8042",
"$.	c #BB7037",
"%.	c #CB7D40",
"&.	c #070401",
"*.	c #AB642D",
"=.	c #AE672F",
"-.	c #AB652E",
";.	c #AF6730",
">.	c #B06830",
",.	c #A9622C",
"'.	c #080401",
").	c #BE7338",
"!.	c #B26A32",
"~.	c #C0743A",
"{.	c #070402",
"].	c #A6632A",
"^.	c #A9662C",
"/.	c #B26C31",
"(.	c #BD7438",
"_.	c #C3783C",
":.	c #C4783C",
"<.	c #000000",
"[.	c #100904",
"}.	c #130B04",
"|.	c #0F0903",
"1.	c #1F1207",
"2.	c #241608",
"3.	c #1B1006",
"4.	c #190F06",
"5.	c #1B1106",
"6.	c #1A0E05",
"7.	c #170E05",
"8.	c #0D0803",
"9.	c #150C05",
"0.	c #150D05",
"a.	c #140C04",
"b.	c #0E0802",
"c.	c #130A03",
"d.	c #040201",
"e.	c #150C04",
"f.	c #1C1006",
"g.	c #221407",
"h.	c #241508",
"i.	c #221408",
"j.	c #0D0703",
"k.	c #030100",
"l.	c #120B04",
"m.	c #180D05",
"n.	c #1A0F06",
"o.	c #201307",
"p.	c #B66F33",
"q.	c #B97135",
"r.	c #AB672D",
"s.	c #AD682E",
"t.	c #A05F26",
"u.	c #A26027",
"v.	c #0C0703",
"w.	c #AC682E",
"x.	c #C1773A",
"y.	c #C67A3D",
"z.	c #C5793D",
"A.	c #B76F34",
"B.	c #AE692F",
"C.	c #BB7236",
"D.	c #BA7236",
"E.	c #BB7136",
"F.	c #130B03",
"G.	c #B66E33",
"H.	c #BC7337",
"I.	c #A36228",
"J.	c #2B1909",
"K.	c #A5632A",
"L.	c #B66F34",
"M.	c #CB7E40",
"N.	c #C97C3F",
"O.	c #B06B30",
"P.	c #AA662D",
"Q.	c #AA672D",
"R.	c #B97236",
"S.	c #BF7639",
"T.	c #C57A3C",
"U.	c #BB7237",
"V.	c #AD692F",
"W.	c #0E0803",
"X.	c #B36C32",
"Y.	c #C87B3E",
"Z.	c #C77B3E",
"`.	c #A7642A",
" +	c #45280F",
".+	c #AF6A30",
"++	c #CC7E41",
"@+	c #BD7338",
"#+	c #191005",
"$+	c #AA662C",
"%+	c #C87C3F",
"&+	c #B77034",
"*+	c #050301",
"=+	c #B16C31",
"-+	c #B36D32",
";+	c #B16B31",
">+	c #A6642A",
",+	c #37210C",
"'+	c #BA7136",
")+	c #B56E33",
"!+	c #B77035",
"~+	c #AE6A2F",
"{+	c #090502",
"]+	c #B46E33",
"^+	c #BC7237",
"/+	c #020100",
"(+	c #AC682D",
"_+	c #060301",
":+	c #140B04",
"<+	c #170D05",
"[+	c #0A0503",
"}+	c #1D1107",
"|+	c #261709",
"1+	c #100903",
"2+	c #0F0803",
"3+	c #160C05",
"4+	c #020101",
"5+	c #180E06",
"6+	c #211307",
"7+	c #1C1107",
"8+	c #150B04",
"9+	c #0A0602",
"0+	c #2D1B0A",
"a+	c #2B190A",
"b+	c #1E1206",
"c+	c #180E05",
"d+	c #0E0903",
"e+	c #040301",
"f+	c #321E0B",
"g+	c #B46D32",
"h+	c #BC7338",
"i+	c #BE7439",
"j+	c #1A0F05",
"k+	c #B06A30",
"l+	c #291809",
"m+	c #AF692F",
"n+	c #C4793C",
"o+	c #CA7D3F",
"p+	c #D08143",
"q+	c #331E0B",
"r+	c #B16B30",
"s+	c #BD7437",
"t+	c #BE7539",
"u+	c #BF753A",
"v+	c #231508",
"w+	c #36200C",
"x+	c #CF8143",
"y+	c #D08043",
"z+	c #CE8042",
"A+	c #251608",
"B+	c #B06C31",
"C+	c #BA7337",
"D+	c #231507",
"E+	c #BD7337",
"F+	c #361F0B",
"G+	c #A7642B",
"H+	c #CC7E40",
"I+	c #BA7237",
"J+	c #B87035",
"K+	c #B86F34",
"L+	c #BC7437",
"M+	c #C5793C",
"N+	c #D18345",
"O+	c #160D05",
"P+	c #1F1307",
"Q+	c #3D240D",
"R+	c #261608",
"S+	c #1E1107",
"T+	c #190E05",
"U+	c #291909",
"V+	c #281708",
"W+	c #180D04",
"X+	c #1E1207",
"Y+	c #190F05",
"Z+	c #341F0C",
"`+	c #271709",
" @	c #160D04",
".@	c #3B220D",
"+@	c #341F0B",
"@@	c #0C0602",
"#@	c #C1763B",
"$@	c #B87136",
"%@	c #130C04",
"&@	c #A46229",
"*@	c #BE7337",
"=@	c #221507",
"-@	c #B16A31",
";@	c #C77A3D",
">@	c #B26D32",
",@	c #1F1206",
"'@	c #B66D34",
")@	c #B56C32",
"!@	c #C3773C",
"~@	c #D28345",
"{@	c #C0753A",
"]@	c #AB672C",
"^@	c #201306",
"/@	c #B67034",
"(@	c #2F1C0B",
"_@	c #C97C40",
":@	c #C97C3E",
"<@	c #AF6A2F",
"[@	c #271808",
"}@	c #B36A32",
"|@	c #CA7C40",
"1@	c #C87C3E",
"2@	c #AA652D",
"3@	c #CC7F41",
"4@	c #B16C30",
"5@	c #BF763A",
"6@	c #BB7137",
"7@	c #C87B3F",
"8@	c #A26227",
"9@	c #B87036",
"0@	c #0A0502",
"a@	c #100A03",
"b@	c #C2783C",
"c@	c #C67A3C",
"d@	c #B56D33",
"e@	c #C0763B",
"f@	c #B26C32",
"g@	c #C97B3F",
"h@	c #090602",
"i@	c #110903",
"j@	c #120903",
"k@	c #170D04",
"l@	c #0D0702",
"m@	c #190D03",
"n@	c #2B1607",
"o@	c #1B0F03",
"p@	c #0F0A03",
"q@	c #130B05",
"r@	c #120A04",
"s@	c #140902",
"t@	c #1B0E03",
"u@	c #291807",
"v@	c #1C1005",
"w@	c #080402",
"x@	c #0B0602",
"y@	c #170D06",
"z@	c #2B1A09",
"A@	c #301B09",
"B@	c #372009",
"C@	c #341E09",
"D@	c #A5602A",
"E@	c #9B5924",
"F@	c #B16930",
"G@	c #A7612A",
"H@	c #A35E29",
"I@	c #A86227",
"J@	c #AC6428",
"K@	c #A96329",
"L@	c #A76129",
"M@	c #A35E28",
"N@	c #A8622A",
"O@	c #AB642B",
"P@	c #B96F33",
"Q@	c #130A02",
"R@	c #A35E20",
"S@	c #A86122",
"T@	c #BE7233",
"U@	c #BE7234",
"V@	c #B97030",
"W@	c #B96F30",
"X@	c #C07436",
"Y@	c #A6612A",
"Z@	c #A8612B",
"`@	c #A8632C",
" #	c #B06831",
".#	c #0F0702",
"+#	c #AE672B",
"@#	c #AD652A",
"##	c #BE7339",
"$#	c #B76F35",
"%#	c #B86E33",
"&#	c #231306",
"*#	c #9F5B1E",
"=#	c #AE6527",
"-#	c #BF7334",
";#	c #C7793B",
">#	c #CA7C3E",
",#	c #CF8041",
"'#	c #D18143",
")#	c #A6602A",
"!#	c #B66E34",
"~#	c #B46A32",
"{#	c #BA7033",
"]#	c #C67A3B",
"^#	c #D18144",
"/#	c #CB7C41",
"(#	c #BA7035",
"_#	c #A86229",
":#	c #2C1807",
"<#	c #A96326",
"[#	c #B66C2D",
"}#	c #C47839",
"|#	c #D08042",
"1#	c #A05B26",
"2#	c #AC652D",
"3#	c #C3783D",
"4#	c #A35F29",
"5#	c #C5783A",
"6#	c #D08142",
"7#	c #B66C30",
"8#	c #B2692F",
"9#	c #271506",
"0#	c #9F5B22",
"a#	c #AD6528",
"b#	c #BB7031",
"c#	c #C27638",
"d#	c #C67B3C",
"e#	c #CA7D3E",
"f#	c #C8793C",
"g#	c #C57739",
"h#	c #BD7235",
"i#	c #AF692E",
"j#	c #170D02",
"k#	c #A05C26",
"l#	c #B2682E",
"m#	c #BD7034",
"n#	c #C07337",
"o#	c #B96E35",
"p#	c #B26930",
"q#	c #080501",
"r#	c #AF682D",
"s#	c #B36B2F",
"t#	c #C17639",
"u#	c #B66D32",
"v#	c #AC652B",
"w#	c #B46B32",
"x#	c #150A03",
"y#	c #A55F25",
"z#	c #A15E24",
"A#	c #B26A2E",
"B#	c #BA7034",
"C#	c #B56E31",
"D#	c #B97034",
"E#	c #BD7336",
"F#	c #C5783B",
"G#	c #4E2904",
"H#	c #643404",
"I#	c #572F05",
"J#	c #4D2A07",
"K#	c #4A2805",
"L#	c #492603",
"M#	c #472502",
"N#	c #502902",
"O#	c #502A02",
"P#	c #271301",
"Q#	c #1C0F01",
"R#	c #160B01",
"S#	c #140A01",
"T#	c #140B01",
"U#	c #120A01",
"V#	c #150C01",
"W#	c #221203",
"X#	c #221304",
"Y#	c #211104",
"Z#	c #1A0E03",
"`#	c #1E1003",
" $	c #160C02",
".$	c #0A0500",
"+$	c #170D03",
"@$	c #100902",
"#$	c #0C0801",
"$$	c #060300",
"%$	c #0E0700",
"&$	c #160C03",
"*$	c #241506",
"=$	c #C87B3D",
"-$	c #C5793B",
";$	c #C77B3D",
">$	c #B66926",
",$	c #B76B28",
"'$	c #BC6D27",
")$	c #BE6D27",
"!$	c #B1641C",
"~$	c #A05A13",
"{$	c #542E03",
"]$	c #975921",
"^$	c #B56D34",
"/$	c #B26B31",
"($	c #AC672D",
"_$	c #B36C31",
":$	c #AF6B30",
"<$	c #C2773A",
"[$	c #170D01",
"}$	c #BF7438",
"|$	c #BF7436",
"1$	c #D28244",
"2$	c #D07F41",
"3$	c #CF7F40",
"4$	c #CF7F3F",
"5$	c #CE7D3D",
"6$	c #BE702E",
"7$	c #A15C1C",
"8$	c #452603",
"9$	c #A36128",
"0$	c #C5793E",
"a$	c #C6793E",
"b$	c #B16B2F",
"c$	c #170B01",
"d$	c #D18244",
"e$	c #CD7E42",
"f$	c #AD682F",
"g$	c #170C01",
"h$	c #C1773B",
"i$	c #D28245",
"j$	c #C7793A",
"k$	c #AE6626",
"l$	c #2D1901",
"m$	c #B76D31",
"n$	c #BD7137",
"o$	c #CF7F42",
"p$	c #A76329",
"q$	c #1C1103",
"r$	c #CC7D40",
"s$	c #B97035",
"t$	c #110A00",
"u$	c #C87B40",
"v$	c #D18042",
"w$	c #CF8040",
"x$	c #CB7D3D",
"y$	c #BA6E2F",
"z$	c #AC6524",
"A$	c #371C02",
"B$	c #BC702E",
"C$	c #BA6D2D",
"D$	c #C77838",
"E$	c #C27539",
"F$	c #A96227",
"G$	c #A76225",
"H$	c #462A10",
"I$	c #170C00",
"J$	c #BA7238",
"K$	c #C3763A",
"L$	c #965521",
"M$	c #AF672F",
"N$	c #A35D27",
"O$	c #8B4A18",
"P$	c #8B4A16",
"Q$	c #69360D",
"R$	c #884917",
"S$	c #834514",
"T$	c #8A4A18",
"U$	c #8F4F1C",
"V$	c #95531F",
"W$	c #975420",
"X$	c #93521D",
"Y$	c #91511C",
"Z$	c #542B0A",
"`$	c #92511E",
" %	c #92521E",
".%	c #985622",
"+%	c #9D5A25",
"@%	c #AB652D",
"#%	c #8A4C19",
"$%	c #6B370E",
"%%	c #854616",
"&%	c #94521E",
". + @ # $ % % & * = - ; > , ' & = ) ! ~ ~ { ~ ] ^ @ / ( _ : , . ",
"< [ } | 1 2 3 4 5 6 7 8 9 0 a b | c d e c f g h i j k l m n o o ",
"p p p q r 3 s } n t u v w x y z A t 5 B C D E y F G l H C I J l ",
"p p K L M N O P A Q K R S 4 T U V W X Y Y . Z `  ...J X +.@.#.p ",
"p H $.%.&.*.c =.-.e ;.>.>.,.'.. d ).q d d !.~.{.].^./.+.l (._.:.",
"<.[.}.|.1.2.3.4.5.y 6.7.8.9.0.a.b.c.d.e.f.3.g.1.h.i.j.k.l.m.n.o.",
"l p.q.q.G r.s.t.u.v.F w.x.t y.z.A.B.&.B.^.q.C.D.E.w.B.F.G ..G.+.",
"H.:.:.I q.C.k r.I.J.K.L.n < M.N.C.O.o.P.Q.L.R.S.T.U.V.W.B.X.Y.M.",
"y.H.@.N.Z.C.s.`.u. +]..+Z.++H @+B.].#+O.$+L.x.:.%+&+.+*+p.=+D p ",
"l /.B.-+A.;+r.F >+,+r.'+l C )+@+!+~+{++.-+L.A.!+]+;+^+/+U.(+q.Y.",
"_+:+j.<+[+}+|+l.1+2+2+j.3+|.4+1+n.5+3.6+7+8+9+0+a+b+c+|.d+d+y e+",
"X A.G.;+f+g+O.h++.i++.+.J +.j+)+k+)+q.(.l t l+m+w.k H.n+o+%.D [ ",
"p+C +.'+q+r+.+s+t+u+@.l A.@+v+O.)+C t _.+.R.w+^.Q.G.n+++x+y+z+o ",
"N.H./.r.A+B+V.C+C X n+B ;+)+D+B.-+E+H :.)+;+F+^.G+X.x.Y.++o+H+x+",
"(.'+.+s.<+]+k+'+C.(.l I+r+J+o.k+L.)+K+C.L.L+6+k B.g++._.z.M+%.N+",
"O+5+P+c+5+f+Q+R+S+T+v+U+V+3.W+n.X+Y+m.a+Z+`+ @2..@+@U+W.@@y {.*+",
"n v :.z.#@$@;+$+=+%@&@`.B.O.A.'+*@C.=@/.-@s+;@@.)+r+>@,@'@)@!@[ ",
"p ~@p p+n {@I+]@^.^@ .r+(.t %.+.@+/@(@B./.C _@:@s+<@m+[@}@m p p ",
"p |@Z.1@y.@+B G+2@v+K.=+8 z+3@+.'+^.f+4@-+5@Z.Y.D.<@/.|+d 6@o p ",
"< 7@1@o+6 I m+8@9@0@q.V.H.^+K+)+-+)+a@5@s+b@c@X J d@e@g.f@@+6 g@",
"<.d.h@{+*+i@j@k@l@m@n@o@d+d+p@q@2+r@s@t@u@v@w@x@y@R+a@e.z@A@B@C@",
"M.'+B.s.9+D@E@F@q >.G@*.i H@y I@J@K@L@M@N@O@P@Q@R@S@T@U@V@W@W@X@",
"~@v p.G M Y@Z@K %.M.H G.`@ #.#+#@#:.%.##$#)@%#&#*#=#-#;#>#,#'#p ",
"p p U..+1+)#!#v Y.Z.M+Y.g ~#0@{#]#p ^#x+/#(#_#:#<#[#}#|#p p p p ",
"< y./.].3.1#2#x 7@Y.3#{@2#4#&.%#5#~@~@~@6#7#8#9#0#a#b#c#d#e#H+>#",
"f#g#h#i#j#k#l#m#n#g@i+o#p#'+q#r#s#t#4 3 u#v#w#x#y#z#A#B#C#D#E#F#",
"G#H#I#J#K#L#M#N#O#P#Q#R#S#T#U#V#W#X#Y#Z#`# $.$.$+$@$#$$$%$&$*$*$",
"=$-$;$>$,$'$)$!$~${$]$Q.k ^$k /$($(+_$S#:$p.<$M+t+_$k+[$p.}$|$c#",
"y+1$~@2$3$4$5$6$7$8$9$k 4 0$a$M+3 X.b$c$L.M+p+d$e$H.f$g$h$o d$p ",
"1$d$p p p p i$j$k$l$m$n$'#p p p o$F@p$q$B r$p 1$z+l s$t$u$z+p p ",
"[ o |#3$v$w$x$y$z$A$B$C$D$,#6#v$E$F$G$H$J+{@v y.l '+/$I$J$A.K$F#",
"_ L$M$d . M$N$O$P$Q$R$S$S$T$U$V$W$X$Y$Z$`$ %.%+%@%Y@#%$%! , %%&%"};
